<svg width="22" height="23" viewBox="0 0 22 23" fill="none" xmlns="http://www.w3.org/2000/svg">
<g clip-path="url(#clip0_112_2031)">
<path d="M10.5 22.9081C16.5751 22.9081 21.5 17.9832 21.5 11.9081C21.5 5.83295 16.5751 0.908081 10.5 0.908081C4.42487 0.908081 -0.5 5.83295 -0.5 11.9081C-0.5 17.9832 4.42487 22.9081 10.5 22.9081Z" fill="#F0F0F0"/>
<path d="M10.0218 11.9074H21.5C21.5 10.9146 21.3677 9.95278 21.1211 9.03784H10.0218V11.9074Z" fill="#D80027"/>
<path d="M10.0218 6.16829H19.8855C19.2122 5.06949 18.3512 4.09827 17.3474 3.29871H10.0218V6.16829Z" fill="#D80027"/>
<path d="M10.5 22.9078C13.0888 22.9078 15.4683 22.013 17.3473 20.5165H3.65265C5.53167 22.013 7.91115 22.9078 10.5 22.9078Z" fill="#D80027"/>
<path d="M1.11453 17.6468H19.8855C20.4261 16.7647 20.8454 15.8005 21.1211 14.7772H-0.121033C0.154698 15.8005 0.573944 16.7647 1.11453 17.6468Z" fill="#D80027"/>
<path d="M4.59541 2.62589H5.59782L4.6654 3.30329L5.02157 4.39938L4.08919 3.72198L3.15681 4.39938L3.46447 3.45248C2.64351 4.13632 1.92395 4.93752 1.33098 5.83024H1.65218L1.05865 6.26143C0.96618 6.41569 0.877492 6.57239 0.7925 6.73142L1.07592 7.60373L0.547148 7.21955C0.415707 7.49803 0.29548 7.78278 0.187414 8.07346L0.499668 9.03459H1.65218L0.719754 9.71199L1.07592 10.8081L0.143543 10.1307L-0.414965 10.5365C-0.470867 10.9858 -0.5 11.4435 -0.5 11.9081H10.5C10.5 5.83299 10.5 5.11678 10.5 0.908081C8.32698 0.908081 6.30131 1.53843 4.59541 2.62589ZM5.02157 10.8081L4.08919 10.1307L3.15681 10.8081L3.51298 9.71199L2.58056 9.03459H3.73307L4.08919 7.9385L4.44532 9.03459H5.59782L4.6654 9.71199L5.02157 10.8081ZM4.6654 6.50764L5.02157 7.60373L4.08919 6.92633L3.15681 7.60373L3.51298 6.50764L2.58056 5.83024H3.73307L4.08919 4.73415L4.44532 5.83024H5.59782L4.6654 6.50764ZM8.96722 10.8081L8.03484 10.1307L7.10246 10.8081L7.45863 9.71199L6.52621 9.03459H7.67871L8.03484 7.9385L8.39097 9.03459H9.54347L8.61105 9.71199L8.96722 10.8081ZM8.61105 6.50764L8.96722 7.60373L8.03484 6.92633L7.10246 7.60373L7.45863 6.50764L6.52621 5.83024H7.67871L8.03484 4.73415L8.39097 5.83024H9.54347L8.61105 6.50764ZM8.61105 3.30329L8.96722 4.39938L8.03484 3.72198L7.10246 4.39938L7.45863 3.30329L6.52621 2.62589H7.67871L8.03484 1.5298L8.39097 2.62589H9.54347L8.61105 3.30329Z" fill="#0052B4"/>
</g>
<defs>
<clipPath id="clip0_112_2031">
<rect width="22" height="22" fill="white" transform="translate(0 0.920776)"/>
</clipPath>
</defs>
</svg>
