<svg width="40" height="27" viewBox="0 0 40 27" fill="none" xmlns="http://www.w3.org/2000/svg">
<rect y="0.426758" width="40" height="26" rx="2.51813" fill="#F4F5FF"/>
<mask id="mask0_112_1933" style="mask-type:alpha" maskUnits="userSpaceOnUse" x="0" y="0" width="40" height="27">
<rect y="0.426758" width="40" height="26" rx="2.51813" fill="#F4F5FF"/>
</mask>
<g mask="url(#mask0_112_1933)">
<path d="M17.3116 19.4676V15.6826L15.5887 17.5467L17.3116 19.4676Z" fill="#306FC8"/>
<path d="M10.0911 16.1572V17.0092L12.5546 17.0041V17.98H10.0911V18.9146H12.8529L14.1387 17.5308L12.9043 16.1572H10.0911Z" fill="#306FC8"/>
<path d="M20.5571 8.9853C20.7011 8.90269 20.7886 8.73745 20.7886 8.53607C20.7886 8.33468 20.696 8.1901 20.5571 8.11265C20.4234 8.03519 20.2228 8.03003 20.0222 8.03003H18.6336V9.08341H20.0068C20.2228 9.08341 20.4028 9.07309 20.5571 8.9853Z" fill="#306FC8"/>
<path d="M2.06763 9.72918H3.60542L2.83395 7.84961L2.06763 9.72918Z" fill="#306FC8"/>
<path d="M19.9038 16.1572H18.438V17.3449H19.8935C20.3204 17.3449 20.5878 17.1383 20.5878 16.7304C20.5827 16.3225 20.3049 16.1572 19.9038 16.1572Z" fill="#306FC8"/>
<path d="M2.35554 11.6445H3.32245L3.75961 12.7031H7.5398V11.8975L7.87924 12.7031H9.83363L10.1731 11.8872V12.7031H19.5644V10.9784H19.7495C19.8833 10.9784 19.9193 10.9939 19.9193 11.2056V12.7031H24.7744V12.2951C25.1601 12.5069 25.767 12.7031 26.5796 12.7031H28.6214L29.0637 11.6445H30.0306L30.4678 12.7031H34.392V11.7013L34.9937 12.7031H38.1464V6.11426H35.0297V6.88881L34.5823 6.11426H31.3781V6.88881L30.9872 6.11426H26.6567C25.9264 6.11426 25.2835 6.21237 24.7744 6.4912V6.11426H21.7914V6.4912C21.4416 6.2072 21.0045 6.11426 20.5107 6.11426H9.5919L8.85129 7.8131L8.11068 6.11426H4.67509V6.88881L4.28421 6.11426H1.35264L0 9.23827V12.7031H1.91838L2.35554 11.6445ZM24.9852 7.59622C25.3452 7.21928 25.9213 7.04371 26.6979 7.04371H27.7728V8.05579H26.7185C26.3019 8.05579 26.0704 8.11775 25.8493 8.33979C25.6538 8.53601 25.5201 8.91296 25.5201 9.40867C25.5201 9.9147 25.6178 10.271 25.839 10.5189C26.0036 10.7047 26.3173 10.7615 26.6207 10.7615H27.1248L28.7088 7.04371H30.3855L32.2936 11.5154V7.04371H34.0114L35.9863 10.333V7.04371H37.1435V11.7736H35.5389L33.4148 8.23135V11.7736H31.1261L30.6941 10.7151H28.354L27.9219 11.7736H26.6156C26.0653 11.7736 25.371 11.6445 24.9801 11.2469C24.5841 10.8442 24.3835 10.302 24.3835 9.44481C24.3835 8.74255 24.5069 8.10226 24.9852 7.59622ZM22.6811 7.04371H23.8332V11.7736H22.6811V7.04371ZM17.5123 7.04371H20.1044C20.6753 7.04371 21.097 7.06437 21.4571 7.27092C21.8171 7.48262 22.0382 7.79244 22.0382 8.31914C22.0382 9.06786 21.5342 9.45514 21.2359 9.5739C21.4828 9.66685 21.6936 9.83725 21.7914 9.97667C21.9508 10.2039 21.9765 10.4207 21.9765 10.8338V11.7736H20.845V11.1746C20.845 10.8958 20.8707 10.4827 20.6599 10.2607C20.5004 10.0903 20.2536 10.0541 19.8421 10.0541H18.6335V11.7736H17.5071V7.04371H17.5123ZM12.9761 7.04371H16.7305V8.02997H14.0973V8.88197H16.6637V9.85274H14.0973V10.7874L16.7305 10.7822V11.7685H12.9761V7.04371ZM1.23435 11.7736H0.0102862L2.02124 7.04371H3.6979L5.60599 11.5154V7.04371H7.44722L8.91301 10.2503L10.2656 7.04371H12.1377V11.7736H10.9857V8.07128L9.35532 11.7736H8.36784L6.73233 8.06612V11.7736H4.4385L4.00648 10.7151H1.66637L1.23435 11.7736Z" fill="#306FC8"/>
<path d="M29.5215 7.84961L28.7551 9.72918H30.2878L29.5215 7.84961Z" fill="#306FC8"/>
<path d="M37.5088 16.2662C37.3905 16.3437 37.3391 16.4573 37.3391 16.607C37.3391 16.7826 37.442 16.9065 37.586 16.9581C37.6991 16.9995 37.8277 17.0098 38.018 17.0098L38.6197 17.0253C39.2421 17.0408 39.6535 17.144 39.9055 17.4074C39.9415 17.4435 39.9724 17.4797 39.9981 17.5158V16.1836H37.9563C37.7557 16.1836 37.6168 16.1939 37.5088 16.2662Z" fill="#306FC8"/>
<path d="M38.4809 19.8954H36.3105V18.8833H38.4706C38.6815 18.8833 38.8306 18.8523 38.9232 18.7697C39.0004 18.6974 39.0569 18.5942 39.0569 18.4599C39.0569 18.3205 39.0004 18.2121 38.9181 18.1449C38.8358 18.0726 38.7175 18.0417 38.5272 18.0417C37.478 18.0107 36.1562 18.0778 36.1562 16.5752C36.1562 15.8987 36.5831 15.1707 37.766 15.1707H40.0033V14.2412H37.9203C37.298 14.2412 36.83 14.3858 36.5111 14.6182V14.2412H33.4407C32.9521 14.2412 32.3657 14.36 32.0932 14.6182V14.2412H26.5952V14.6182C26.158 14.3083 25.4225 14.2412 25.0728 14.2412H21.4469V14.6182C21.1023 14.2825 20.3412 14.2412 19.8731 14.2412H15.8101L14.8792 15.2533L14.0151 14.2412H7.95654V20.83H13.9071L14.8586 19.8025L15.7638 20.8249L19.4257 20.83V19.2758H19.7908C20.2743 19.2758 20.8503 19.2654 21.3492 19.0486V20.83H24.3836V19.1054H24.5328C24.7179 19.1054 24.7334 19.1209 24.7334 19.2964V20.83H33.9138C34.4898 20.83 35.1122 20.6803 35.4516 20.4118V20.83H38.3626C38.9644 20.83 39.561 20.7422 40.0135 20.5254V19.3016C39.7204 19.7044 39.2061 19.8954 38.4809 19.8954ZM19.832 18.3153H18.4331V19.8954H16.2421L14.8637 18.3411L13.4237 19.9006H8.96459V15.1707H13.4905L14.8689 16.7249L16.3038 15.1707H19.904C20.7886 15.1707 21.7915 15.4289 21.7915 16.7353C21.7864 18.0417 20.8143 18.3153 19.832 18.3153ZM26.6003 18.1036C26.7598 18.3308 26.7855 18.5477 26.7906 18.9608V19.8954H25.6591V19.2964C25.6591 19.0176 25.6848 18.6045 25.474 18.3825C25.3094 18.2121 25.0677 18.1759 24.6562 18.1759H23.4476V19.8954H22.3212V15.1655H24.9134C25.4843 15.1655 25.9009 15.1862 26.266 15.3979C26.626 15.6096 26.8472 15.9194 26.8472 16.4461C26.8472 17.1948 26.3432 17.5821 26.05 17.7009C26.2969 17.7938 26.5077 17.9642 26.6003 18.1036ZM31.224 16.1569H28.5958V17.0089H31.1674V17.9849H28.5958V18.9195H31.2291V19.9006H27.4746V15.1707H31.2291V16.1569H31.224ZM34.0835 19.8954H31.8926V18.8833H34.0733C34.2841 18.8833 34.4333 18.8523 34.5258 18.7697C34.603 18.6974 34.6596 18.5942 34.6596 18.4599C34.6596 18.3205 34.603 18.2121 34.5207 18.1449C34.4384 18.0726 34.3201 18.0417 34.1298 18.0417C33.0806 18.0107 31.7589 18.0778 31.7589 16.5752C31.7589 15.8936 32.1857 15.1707 33.3686 15.1707H35.6213V16.1827H33.5589C33.3532 16.1827 33.2195 16.1879 33.1063 16.2602C32.9881 16.3377 32.9418 16.4513 32.9418 16.601C32.9418 16.7766 33.0446 16.9005 33.1886 16.9521C33.3069 16.9934 33.4304 17.0038 33.6207 17.0038L34.2224 17.0193C34.8447 17.0347 35.2562 17.138 35.5082 17.4014C35.7293 17.6389 35.8476 17.9126 35.8476 18.4031C35.8528 19.4152 35.2253 19.8954 34.0835 19.8954Z" fill="#306FC8"/>
<path d="M25.3708 16.2347C25.2371 16.1624 25.0313 16.1572 24.8359 16.1572H23.4473V17.2106H24.8205C25.0365 17.2106 25.2216 17.2054 25.3708 17.1177C25.5148 17.035 25.6022 16.8698 25.6022 16.6684C25.5971 16.4619 25.5097 16.3173 25.3708 16.2347Z" fill="#306FC8"/>
</g>
</svg>
