<svg width="40" height="27" viewBox="0 0 40 27" fill="none" xmlns="http://www.w3.org/2000/svg">
<rect y="0.426758" width="40" height="26" rx="2.51813" fill="#F4F5FF"/>
<path d="M6.17768 10.9678H4.80029V15.8535H6.17038C6.89891 15.8535 7.42499 15.6789 7.88675 15.2894C8.4355 14.8283 8.76004 14.133 8.76004 13.414C8.76019 11.9723 7.69943 10.9678 6.17768 10.9678ZM7.27386 14.638C6.97897 14.9084 6.59611 15.0263 5.98982 15.0263H5.73804V11.7956H5.98982C6.59611 11.7956 6.96399 11.9057 7.27386 12.1907C7.5984 12.4841 7.79356 12.939 7.79356 13.4069C7.79356 13.876 7.5984 14.3447 7.27386 14.638Z" fill="#173C6A"/>
<path d="M10.1303 10.9678H9.19189V15.8535H10.1303V10.9678Z" fill="#173C6A"/>
<path d="M12.4248 12.8423C11.8617 12.6308 11.6964 12.4912 11.6964 12.2273C11.6964 11.9194 11.991 11.6857 12.3953 11.6857C12.6765 11.6857 12.9075 11.803 13.152 12.0813L13.643 11.4284C13.2395 11.0699 12.7568 10.8867 12.2294 10.8867C11.3782 10.8867 10.729 11.487 10.729 12.2866C10.729 12.9598 11.0312 13.3044 11.9125 13.6264C12.2799 13.758 12.4669 13.8456 12.5612 13.9046C12.7487 14.0289 12.8426 14.205 12.8426 14.4101C12.8426 14.806 12.5327 15.0992 12.1141 15.0992C11.6665 15.0992 11.306 14.8719 11.09 14.4476L10.4839 15.0405C10.9162 15.685 11.4354 15.9707 12.1494 15.9707C13.1245 15.9707 13.8085 15.3122 13.8085 14.3665C13.8084 13.5902 13.4922 13.2387 12.4248 12.8423Z" fill="#173C6A"/>
<path d="M14.104 13.4133C14.104 14.8493 15.2144 15.9629 16.6432 15.9629C17.0472 15.9629 17.3931 15.8822 17.8197 15.6782V14.5564C17.4445 14.9378 17.1122 15.0915 16.6869 15.0915C15.7419 15.0915 15.0712 14.3956 15.0712 13.4062C15.0712 12.4682 15.7631 11.7282 16.6433 11.7282C17.0909 11.7282 17.4296 11.8904 17.8198 12.2779V11.1566C17.4079 10.9443 17.0693 10.8564 16.6655 10.8564C15.2436 10.8567 14.104 11.9928 14.104 13.4133Z" fill="#173C6A"/>
<path d="M25.2596 14.2495L23.9768 10.9678H22.9517L24.9933 15.9789H25.4981L27.5763 10.9678H26.5591L25.2596 14.2495Z" fill="#173C6A"/>
<path d="M28.0005 15.8535H30.6616V15.0265H28.9381V13.7077H30.5981V12.8801H28.9381V11.7956H30.6616V10.9678H28.0005V15.8535Z" fill="#173C6A"/>
<path d="M34.3772 12.4101C34.3772 11.4954 33.7569 10.9678 32.6747 10.9678H31.2834V15.8535H32.2207V13.8908H32.3431L33.6418 15.8535H34.7957L33.2814 13.7952C33.988 13.6492 34.3772 13.1583 34.3772 12.4101ZM32.4948 13.2171H32.2207V11.7373H32.5096C33.094 11.7373 33.4117 11.986 33.4117 12.4615C33.4117 12.9527 33.0941 13.2171 32.4948 13.2171Z" fill="#173C6A"/>
<path d="M20.6855 16.0263C22.0989 16.0263 23.2446 14.8626 23.2446 13.4272C23.2446 11.9918 22.0989 10.8281 20.6855 10.8281C19.2722 10.8281 18.1265 11.9918 18.1265 13.4272C18.1265 14.8626 19.2722 16.0263 20.6855 16.0263Z" fill="url(#paint0_linear_112_1951)"/>
<path opacity="0.65" d="M20.6855 16.0263C22.0989 16.0263 23.2446 14.8626 23.2446 13.4272C23.2446 11.9918 22.0989 10.8281 20.6855 10.8281C19.2722 10.8281 18.1265 11.9918 18.1265 13.4272C18.1265 14.8626 19.2722 16.0263 20.6855 16.0263Z" fill="url(#paint1_linear_112_1951)"/>
<path d="M34.9763 11.1513C34.9763 11.0656 34.9182 11.0188 34.8162 11.0188H34.6804V11.4482H34.7813V11.2816L34.8996 11.4482H35.0228L34.8837 11.2712C34.9435 11.2549 34.9763 11.2109 34.9763 11.1513ZM34.7984 11.21H34.7814V11.0977H34.7995C34.8494 11.0977 34.8754 11.116 34.8754 11.1529C34.8754 11.1908 34.8491 11.21 34.7984 11.21Z" fill="#173C6A"/>
<path d="M34.8365 10.8584C34.6312 10.8584 34.4683 11.0248 34.4683 11.2327C34.4683 11.4406 34.6331 11.6072 34.8365 11.6072C35.0365 11.6072 35.2004 11.4387 35.2004 11.2327C35.2004 11.0276 35.0364 10.8584 34.8365 10.8584ZM34.8349 11.5403C34.6733 11.5403 34.5412 11.4037 34.5412 11.2333C34.5412 11.0623 34.6716 10.9258 34.8349 10.9258C34.9957 10.9258 35.1268 11.0654 35.1268 11.2333C35.1268 11.4022 34.9959 11.5403 34.8349 11.5403Z" fill="#173C6A"/>
<defs>
<linearGradient id="paint0_linear_112_1951" x1="21.9954" y1="15.5102" x2="20.1843" y2="12.718" gradientUnits="userSpaceOnUse">
<stop stop-color="#F89F21"/>
<stop offset="0.2502" stop-color="#F79A23"/>
<stop offset="0.5331" stop-color="#F78E22"/>
<stop offset="0.6196" stop-color="#F68721"/>
<stop offset="0.7232" stop-color="#F48220"/>
<stop offset="1" stop-color="#F27623"/>
</linearGradient>
<linearGradient id="paint1_linear_112_1951" x1="21.7155" y1="15.4718" x2="19.0617" y2="10.3645" gradientUnits="userSpaceOnUse">
<stop stop-color="#F68721" stop-opacity="0"/>
<stop offset="0.3587" stop-color="#E27027" stop-opacity="0.2704"/>
<stop offset="0.703" stop-color="#D4612C" stop-opacity="0.5299"/>
<stop offset="0.9816" stop-color="#D15D2D" stop-opacity="0.74"/>
</linearGradient>
</defs>
</svg>
