<svg width="40" height="27" viewBox="0 0 40 27" fill="none" xmlns="http://www.w3.org/2000/svg">
<rect y="0.426758" width="40" height="26" rx="2.51813" fill="#F4F5FF"/>
<path fill-rule="evenodd" clip-rule="evenodd" d="M30.3843 18.2709C30.3843 20.0826 28.9384 21.5518 27.1539 21.5518H9.61603V8.58313C9.61603 6.77087 11.062 5.30178 12.8467 5.30178L30.3842 5.30176V18.2709H30.3843V18.2709Z" fill="white"/>
<path fill-rule="evenodd" clip-rule="evenodd" d="M24.6666 13.7117H24.6781H24.7004H24.7226H24.7449H24.7672H24.7894H24.8117H24.834H24.8563H24.8785H24.9008H24.9231H24.9454H24.9676H24.9899H25.0122H25.0344H25.0567H25.079H25.1012H25.1235H25.1458H25.168H25.1903H25.2126H25.2349H25.2571H25.2794H25.3017H25.3239H25.3462H25.3685H25.3908H25.413H25.4353H25.4576H25.4798H25.5021H25.5244H25.5466H25.5689H25.5912H25.6135H25.6357H25.658H25.6803H25.7025H25.7248H25.7471H25.7694H25.7916H25.8139H25.8362H25.8584H25.8807H25.903H25.9252H25.9475H25.9698H25.9921H26.0106L26.0143 13.7118C26.0212 13.7119 26.0287 13.7123 26.0366 13.7127C26.0437 13.7131 26.0512 13.7136 26.0589 13.7142C26.0662 13.7147 26.0737 13.7153 26.0811 13.716C26.0886 13.7167 26.0961 13.7175 26.1034 13.7183C26.1111 13.7192 26.1186 13.7201 26.1257 13.7211C26.1337 13.7222 26.1412 13.7233 26.148 13.7245C26.1529 13.7253 26.1574 13.7262 26.1614 13.7271L26.1702 13.7291C26.1777 13.7309 26.1851 13.7328 26.1925 13.7348C26.2 13.7369 26.2074 13.7392 26.2148 13.7416C26.2222 13.744 26.2297 13.7465 26.237 13.7493C26.2445 13.752 26.2519 13.7549 26.2593 13.758C26.2668 13.7611 26.2742 13.7644 26.2816 13.7678C26.2891 13.7713 26.2965 13.7749 26.3038 13.7787C26.3113 13.7826 26.3188 13.7866 26.3261 13.7908C26.3336 13.7951 26.3411 13.7996 26.3484 13.8042C26.3559 13.809 26.3633 13.8139 26.3707 13.819C26.3782 13.8242 26.3856 13.8296 26.3929 13.8352C26.4005 13.841 26.4079 13.847 26.4152 13.8532C26.4228 13.8596 26.4302 13.8662 26.4375 13.873C26.4451 13.8801 26.4525 13.8874 26.4597 13.8949C26.4674 13.9027 26.4748 13.9109 26.482 13.9192C26.4897 13.9281 26.4971 13.9372 26.5043 13.9466C26.512 13.9567 26.5194 13.967 26.5266 13.9776C26.5343 13.9892 26.5418 14.0011 26.5488 14.0134C26.5568 14.0272 26.5642 14.0414 26.5711 14.056C26.5793 14.0733 26.5867 14.0911 26.5934 14.1094C26.6023 14.134 26.6097 14.1595 26.6156 14.1859C26.6258 14.2315 26.6313 14.2796 26.6313 14.3298C26.6313 14.3803 26.6258 14.4286 26.6156 14.4744C26.6097 14.5008 26.6023 14.5264 26.5934 14.5511C26.5867 14.5694 26.5793 14.5873 26.5711 14.6046C26.5642 14.6192 26.5568 14.6334 26.5488 14.6473C26.5418 14.6595 26.5344 14.6714 26.5266 14.6831C26.5194 14.6937 26.512 14.704 26.5043 14.7141C26.4971 14.7235 26.4897 14.7325 26.482 14.7414C26.4748 14.7498 26.4674 14.7579 26.4597 14.7658C26.4525 14.7733 26.4451 14.7805 26.4375 14.7876C26.4302 14.7944 26.4228 14.801 26.4152 14.8074C26.4079 14.8135 26.4005 14.8195 26.3929 14.8253C26.3856 14.8308 26.3782 14.8362 26.3707 14.8414C26.3633 14.8465 26.3559 14.8514 26.3484 14.8561C26.3411 14.8608 26.3336 14.8652 26.3261 14.8695C26.3188 14.8737 26.3114 14.8777 26.3038 14.8815C26.2965 14.8853 26.2891 14.8889 26.2816 14.8924C26.2742 14.8958 26.2668 14.899 26.2593 14.9021C26.2519 14.9051 26.2445 14.908 26.237 14.9107C26.2297 14.9134 26.2222 14.916 26.2148 14.9183C26.2074 14.9207 26.2 14.9229 26.1925 14.925C26.1851 14.927 26.1777 14.9289 26.1702 14.9306L26.1614 14.9326C26.1574 14.9336 26.1529 14.9345 26.148 14.9354C26.1412 14.9366 26.1337 14.9377 26.1257 14.9388C26.1186 14.9398 26.1111 14.9408 26.1034 14.9416C26.0961 14.9424 26.0886 14.9432 26.0811 14.9439C26.0737 14.9446 26.0662 14.9452 26.0589 14.9457C26.0512 14.9463 26.0437 14.9468 26.0366 14.9471C26.0287 14.9475 26.0212 14.9478 26.0143 14.948L26.0024 14.9482H25.9921H25.9698H25.9475H25.9252H25.903H25.8807H25.8584H25.8362H25.8139H25.7916H25.7694H25.7471H25.7248H25.7025H25.6803H25.658H25.6357H25.6135H25.5912H25.5689H25.5466H25.5244H25.5021H25.4798H25.4576H25.4353H25.413H25.3908H25.3685H25.3462H25.3239H25.3017H25.2794H25.2571H25.2349H25.2126H25.1903H25.168H25.1458H25.1235H25.1012H25.079H25.0567H25.0344H25.0122H24.9899H24.9676H24.9454H24.9231H24.9008H24.8785H24.8563H24.834H24.8117H24.7894H24.7672H24.7449H24.7226H24.7004H24.6781H24.6666V13.7117V13.7117ZM26.4598 12.3122C26.4688 12.3537 26.4736 12.3977 26.4736 12.444C26.4736 12.4902 26.4688 12.5341 26.4598 12.5756C26.4541 12.6022 26.4466 12.6279 26.4375 12.6524C26.4309 12.6703 26.4235 12.6877 26.4153 12.7044C26.4084 12.7185 26.4009 12.7321 26.393 12.7453C26.386 12.7569 26.3785 12.7683 26.3707 12.7793C26.3636 12.7893 26.3562 12.799 26.3485 12.8084C26.3413 12.8172 26.3339 12.8257 26.3262 12.834C26.319 12.8417 26.3116 12.8493 26.3039 12.8565C26.2967 12.8635 26.2893 12.8702 26.2817 12.8767C26.2744 12.8829 26.267 12.889 26.2594 12.8948C26.2521 12.9004 26.2447 12.9058 26.2371 12.9111C26.2298 12.9162 26.2224 12.921 26.2148 12.9257C26.2075 12.9303 26.2001 12.9347 26.1926 12.9389C26.1852 12.9431 26.1778 12.947 26.1703 12.9508C26.163 12.9545 26.1555 12.9581 26.148 12.9615C26.1407 12.9648 26.1333 12.9679 26.1258 12.9709C26.1184 12.9739 26.111 12.9767 26.1035 12.9793C26.0961 12.9819 26.0887 12.9844 26.0812 12.9867C26.0739 12.9889 26.0664 12.9911 26.059 12.993C26.0516 12.995 26.0442 12.9968 26.0367 12.9984C26.0293 13.0001 26.0219 13.0016 26.0144 13.0029L26.009 13.0039C26.0047 13.0047 25.9989 13.0055 25.9921 13.0064C25.9856 13.0072 25.978 13.0081 25.9699 13.0089C25.9628 13.0097 25.9553 13.0104 25.9476 13.011C25.9403 13.0117 25.9328 13.0122 25.9253 13.0127C25.9179 13.0132 25.9104 13.0136 25.9031 13.0139C25.8954 13.0142 25.8879 13.0144 25.8808 13.0145L25.8773 13.0145H25.8585H25.8363H25.814H25.7917H25.7695H25.7472H25.7249H25.7027H25.6804H25.6581H25.6358H25.6136H25.5913H25.569H25.5468H25.5245H25.5022H25.48H25.4577H25.4354H25.4132H25.3909H25.3686H25.3463H25.3241H25.3018H25.2795H25.2573H25.235H25.2127H25.1905H25.1682H25.1459H25.1236H25.1014H25.0791H25.0568H25.0346H25.0123H24.99H24.9678H24.9455H24.9232H24.901H24.8787H24.8564H24.8341H24.8119H24.7896H24.7673H24.7451H24.7228H24.7005H24.6783H24.6666V11.8734H24.6783H24.7005H24.7228H24.7451H24.7673H24.7896H24.8119H24.8341H24.8564H24.8787H24.901H24.9232H24.9455H24.9678H24.99H25.0123H25.0346H25.0568H25.0791H25.1014H25.1236H25.1459H25.1682H25.1905H25.2127H25.235H25.2573H25.2795H25.3018H25.3241H25.3463H25.3686H25.3909H25.4132H25.4354H25.4577H25.48H25.5022H25.5245H25.5468H25.569H25.5913H25.6136H25.6358H25.6581H25.6804H25.7027H25.7249H25.7472H25.7695H25.7917H25.814H25.8363H25.8585H25.8808H25.8902L25.9031 11.8739C25.9104 11.8742 25.9179 11.8746 25.9253 11.8751C25.9328 11.8756 25.9403 11.8762 25.9476 11.8768C25.9553 11.8774 25.9628 11.8781 25.9699 11.8788C25.978 11.8796 25.9856 11.8804 25.9921 11.8812C25.9989 11.882 26.0047 11.8827 26.009 11.8833L26.0144 11.8843C26.0219 11.8857 26.0293 11.8872 26.0367 11.8889C26.0442 11.8906 26.0516 11.8924 26.059 11.8943C26.0664 11.8963 26.0739 11.8985 26.0812 11.9008C26.0887 11.9031 26.0961 11.9056 26.1035 11.9082C26.111 11.9108 26.1184 11.9136 26.1258 11.9166C26.1333 11.9196 26.1407 11.9228 26.148 11.9261C26.1555 11.9295 26.163 11.9331 26.1703 11.9368C26.1778 11.9406 26.1852 11.9446 26.1926 11.9487C26.2001 11.9529 26.2075 11.9573 26.2148 11.9619C26.2224 11.9666 26.2298 11.9715 26.2371 11.9766C26.2447 11.9818 26.2521 11.9873 26.2594 11.9929C26.267 11.9987 26.2744 12.0048 26.2817 12.011C26.2893 12.0175 26.2967 12.0242 26.3039 12.0312C26.3116 12.0385 26.319 12.046 26.3262 12.0537C26.3339 12.062 26.3413 12.0705 26.3485 12.0793C26.3562 12.0887 26.3636 12.0985 26.3707 12.1085C26.3785 12.1195 26.386 12.1308 26.393 12.1425C26.4009 12.1556 26.4084 12.1693 26.4153 12.1833C26.4235 12.2001 26.4309 12.2174 26.4375 12.2354C26.4466 12.2599 26.4541 12.2855 26.4598 12.3122V12.3122ZM29.2216 6.39551H29.2308L29.2308 18.1143C29.2308 18.1843 29.2276 18.2536 29.2216 18.322C29.2164 18.3823 29.209 18.4419 29.1994 18.5007C29.1929 18.5402 29.1855 18.5794 29.1771 18.6183C29.1703 18.6499 29.1629 18.6813 29.1548 18.7124C29.1479 18.7392 29.1404 18.7659 29.1326 18.7923C29.1254 18.8162 29.1181 18.8401 29.1103 18.8637C29.1032 18.8851 29.0957 18.9063 29.088 18.9274C29.0808 18.9471 29.0734 18.9666 29.0657 18.986C29.0585 19.0043 29.0511 19.0224 29.0435 19.0404C29.0362 19.0575 29.0288 19.0744 29.0212 19.0913C29.0139 19.1073 29.0065 19.1233 28.9989 19.1392C28.9916 19.1544 28.9842 19.1695 28.9766 19.1845C28.9694 19.1989 28.9619 19.2132 28.9544 19.2274C28.9471 19.241 28.9396 19.2546 28.9321 19.2681C28.9248 19.2811 28.9174 19.2941 28.9098 19.307C28.9025 19.3196 28.8951 19.3321 28.8875 19.3445C28.8802 19.3565 28.8728 19.3686 28.8653 19.3805C28.8579 19.3921 28.8505 19.4036 28.843 19.415C28.8357 19.4261 28.8282 19.4371 28.8207 19.448C28.8134 19.4588 28.8059 19.4696 28.7984 19.4802C28.7911 19.4906 28.7837 19.501 28.7762 19.5112C28.7688 19.5212 28.7614 19.5311 28.7539 19.541C28.7465 19.5507 28.7391 19.5604 28.7316 19.57C28.7243 19.5795 28.7169 19.5888 28.7093 19.5981C28.702 19.6072 28.6945 19.6162 28.6871 19.6252C28.6797 19.6341 28.6723 19.643 28.6648 19.6518C28.6574 19.6604 28.65 19.6688 28.6425 19.6773C28.6352 19.6857 28.6277 19.694 28.6202 19.7022C28.6129 19.7103 28.6055 19.7185 28.598 19.7265C28.5906 19.7344 28.5832 19.7421 28.5757 19.7499C28.5683 19.7576 28.5609 19.7654 28.5534 19.773C28.5461 19.7804 28.5386 19.7877 28.5312 19.7951C28.5237 19.8024 28.5164 19.8097 28.5089 19.8169C28.5015 19.824 28.4941 19.8309 28.4866 19.8379C28.4792 19.8448 28.4718 19.8517 28.4643 19.8585C28.4569 19.8653 28.4495 19.872 28.4421 19.8786C28.4347 19.8852 28.4272 19.8916 28.4198 19.8981C28.4124 19.9045 28.405 19.9109 28.3975 19.9172C28.3901 19.9235 28.3827 19.9296 28.3752 19.9357C28.3678 19.9418 28.3604 19.9479 28.353 19.9539C28.3456 19.9598 28.3381 19.9656 28.3307 19.9715C28.3233 19.9773 28.3159 19.9831 28.3084 19.9888C28.3011 19.9944 28.2936 19.9999 28.2861 20.0055C28.2787 20.011 28.2713 20.0166 28.2639 20.022C28.2565 20.0274 28.249 20.0326 28.2416 20.0378C28.2342 20.0431 28.2268 20.0484 28.2193 20.0535C28.2119 20.0586 28.2045 20.0636 28.197 20.0686C28.1896 20.0736 28.1822 20.0786 28.1748 20.0835C28.1674 20.0884 28.1599 20.0932 28.1525 20.0979C28.1451 20.1027 28.1377 20.1074 28.1302 20.1121C28.1228 20.1167 28.1154 20.1212 28.1079 20.1258L28.0857 20.1391C28.0783 20.1435 28.0709 20.1479 28.0634 20.1522C28.056 20.1565 28.0486 20.1607 28.0411 20.1649C28.0337 20.1691 28.0263 20.1733 28.0189 20.1774C28.0115 20.1814 28.004 20.1853 27.9966 20.1893C27.9891 20.1933 27.9818 20.1974 27.9743 20.2013C27.9669 20.2051 27.9594 20.2088 27.952 20.2125C27.9446 20.2163 27.9372 20.2201 27.9297 20.2238C27.9224 20.2274 27.9149 20.231 27.9075 20.2345L27.8852 20.2451L27.8629 20.2554C27.8555 20.2587 27.8481 20.262 27.8407 20.2653C27.8332 20.2685 27.8258 20.2719 27.8184 20.2751C27.811 20.2782 27.8035 20.2812 27.7961 20.2843C27.7887 20.2874 27.7813 20.2906 27.7738 20.2936C27.7664 20.2965 27.759 20.2994 27.7516 20.3023C27.7442 20.3052 27.7368 20.308 27.7293 20.3109L27.707 20.3192C27.6996 20.3219 27.6922 20.3245 27.6847 20.3272C27.6773 20.3298 27.6699 20.3326 27.6625 20.3351C27.6551 20.3377 27.6476 20.34 27.6402 20.3425L27.6179 20.3498C27.6105 20.3522 27.6031 20.3545 27.5956 20.3568L27.5734 20.3635C27.566 20.3657 27.5585 20.368 27.5511 20.3701C27.5437 20.3722 27.5362 20.3742 27.5288 20.3763C27.5214 20.3783 27.514 20.3804 27.5065 20.3824L27.4843 20.3881L27.462 20.3936L27.4397 20.399C27.4323 20.4007 27.4249 20.4023 27.4175 20.4039C27.41 20.4056 27.4026 20.4073 27.3952 20.4088L27.3729 20.4134L27.3506 20.4177C27.3432 20.4191 27.3358 20.4206 27.3284 20.4219C27.321 20.4233 27.3135 20.4244 27.3061 20.4257L27.2838 20.4294L27.2615 20.4328L27.2393 20.436C27.2318 20.437 27.2244 20.4382 27.217 20.4392C27.2096 20.4401 27.2021 20.4409 27.1947 20.4418C27.1873 20.4426 27.1799 20.4435 27.1724 20.4444C27.165 20.4452 27.1576 20.446 27.1502 20.4467C27.1428 20.4474 27.1353 20.4481 27.1279 20.4487C27.1204 20.4494 27.113 20.4501 27.1056 20.4507C27.0982 20.4513 27.0908 20.4518 27.0833 20.4523L27.0611 20.4537C27.0536 20.4542 27.0462 20.4547 27.0388 20.4551C27.0314 20.4555 27.0239 20.4557 27.0165 20.456L26.9942 20.4568L26.972 20.4574C26.9646 20.4576 26.9571 20.4576 26.9497 20.4577L26.9274 20.458L26.9228 20.458H26.9052H26.8829H26.8606H26.8383H26.816H26.7938H26.7715H26.7492H26.727H26.7047H26.6824H26.6601H26.6379H26.6156H26.5933H26.571H26.5488H26.5265H26.5042H26.4819H26.4597H26.4374H26.4151H26.3928H26.3706H26.3483H26.326H26.3038H26.2815H26.2592H26.2369H26.2147H26.1924H26.1701H26.1478H26.1256H26.1033H26.081H26.0587H26.0365H26.0142H25.9919H25.9696H25.9474H25.9251H25.9028H25.8806H25.8583H25.836H25.8137H25.7915H25.7692H25.7469H25.7246H25.7023H25.6801H25.6578H25.6355H25.6133H25.591H25.5687H25.5464H25.5242H25.5019H25.4796H25.4573H25.4351H25.4128H25.3905H25.3682H25.346H25.3237H25.3014H25.2791H25.2569H25.2346H25.2123H25.1901H25.1678H25.1455H25.1232H25.101H25.0787H25.0564H25.0341H25.0119H24.9896H24.9673H24.945H24.9228H24.9005H24.8782H24.8559H24.8337H24.8114H24.7891H24.7669H24.7446H24.7223H24.7H24.6778H24.6555H24.6332H24.6109H24.5887H24.5664H24.5441H24.5218H24.4996H24.4773H24.455H24.4327H24.4105H24.3882H24.3659H24.3437H24.3214H24.2991H24.2768H24.2545H24.2323H24.21H24.1877H24.1654H24.1432H24.1209H24.0986H24.0764H24.0541H24.0318H24.0095H23.9873H23.965H23.9427H23.9204H23.8982H23.8759H23.8536H23.8313H23.8091H23.7868H23.7645H23.7422H23.72H23.6977H23.6754H23.6532H23.6309H23.6086H23.5863H23.5383V15.6799H23.5863H23.6086H23.6309H23.6532H23.6754H23.6977H23.72H23.7422H23.7645H23.7868H23.8091H23.8313H23.8536H23.8759H23.8982H23.9204H23.9427H23.965H23.9873H24.0095H24.0318H24.0541H24.0764H24.0986H24.1209H24.1432H24.1654H24.1877H24.21H24.2323H24.2545H24.2768H24.2991H24.3214H24.3437H24.3659H24.3882H24.4105H24.4327H24.455H24.4773H24.4996H24.5218H24.5441H24.5664H24.5887H24.6109H24.6332H24.6555H24.6778H24.7H24.7223H24.7446H24.7669H24.7891H24.8114H24.8337H24.8559H24.8782H24.9005H24.9228H24.945H24.9673H24.9896H25.0119H25.0341H25.0564H25.0787H25.101H25.1232H25.1455H25.1678H25.1901H25.2123H25.2346H25.2569H25.2791H25.3014H25.3237H25.346H25.3682H25.3905H25.4128H25.4351H25.4573H25.4796H25.5019H25.5242H25.5464H25.5687H25.591H25.6133H25.6355H25.6578H25.6801H25.7023H25.7246H25.7469H25.7692H25.7915H25.8137H25.836H25.8583H25.8806H25.9028H25.9251H25.9474H25.9696H25.9919H26.0142H26.0365H26.0587H26.081H26.1033H26.1256H26.1478H26.1701H26.1924H26.2147H26.2369H26.2592H26.2815H26.3038H26.326H26.3483H26.3706H26.3928H26.4151H26.4374H26.4597H26.4819H26.5042H26.5265H26.5488H26.571H26.5933H26.6156H26.6379H26.6601H26.6824H26.7047H26.727H26.7492H26.7715H26.7938H26.816H26.8383H26.8606H26.8829H26.9052H26.9274H26.9497H26.972H26.9942H27.0165H27.0388H27.0611H27.0833H27.1056H27.1174L27.1279 15.6798L27.1502 15.6796L27.1724 15.6791C27.1799 15.6789 27.1873 15.6788 27.1947 15.6786C27.2022 15.6783 27.2096 15.678 27.217 15.6776L27.2393 15.6766L27.2615 15.6752L27.2838 15.6736L27.3061 15.6719L27.3284 15.6698C27.3358 15.6691 27.3432 15.6684 27.3506 15.6676C27.3581 15.6668 27.3655 15.6659 27.3729 15.665L27.3952 15.6623C27.4026 15.6613 27.41 15.6604 27.4175 15.6593C27.4249 15.6583 27.4323 15.6571 27.4397 15.656C27.4472 15.6548 27.4546 15.6537 27.462 15.6525L27.4843 15.6487L27.5065 15.6446C27.514 15.6432 27.5214 15.6418 27.5288 15.6404C27.5363 15.6389 27.5437 15.6372 27.5511 15.6357L27.5734 15.6308C27.5808 15.6291 27.5883 15.6274 27.5956 15.6256C27.6031 15.6239 27.6105 15.622 27.6179 15.6201C27.6254 15.6182 27.6328 15.6163 27.6402 15.6143C27.6476 15.6123 27.6551 15.6103 27.6625 15.6083C27.6699 15.6062 27.6773 15.604 27.6847 15.6018C27.6922 15.5996 27.6996 15.5974 27.707 15.5951L27.7293 15.588C27.7368 15.5856 27.7442 15.5831 27.7516 15.5805C27.759 15.578 27.7665 15.5754 27.7738 15.5728C27.7813 15.5701 27.7887 15.5675 27.7961 15.5647C27.8036 15.5619 27.811 15.559 27.8184 15.5561C27.8258 15.5532 27.8333 15.5502 27.8407 15.5472C27.8481 15.5442 27.8556 15.5411 27.8629 15.538C27.8704 15.5348 27.8778 15.5315 27.8852 15.5282C27.8927 15.5249 27.9001 15.5215 27.9075 15.518C27.9149 15.5145 27.9224 15.511 27.9297 15.5074C27.9372 15.5038 27.9447 15.5002 27.952 15.4964C27.9595 15.4926 27.9669 15.4888 27.9743 15.4849C27.9818 15.4809 27.9892 15.4768 27.9966 15.4727C28.0041 15.4686 28.0115 15.4644 28.0189 15.4602C28.0263 15.4558 28.0338 15.4515 28.0411 15.447C28.0486 15.4425 28.0561 15.438 28.0634 15.4334C28.0709 15.4286 28.0783 15.4238 28.0857 15.419C28.0932 15.414 28.1006 15.409 28.1079 15.4039C28.1154 15.3988 28.1229 15.3935 28.1302 15.3882C28.1377 15.3828 28.1451 15.3773 28.1525 15.3718C28.16 15.3661 28.1674 15.3604 28.1748 15.3545C28.1823 15.3486 28.1897 15.3426 28.197 15.3365C28.2046 15.3302 28.212 15.3239 28.2193 15.3175C28.2268 15.311 28.2343 15.3043 28.2416 15.2976C28.2491 15.2906 28.2565 15.2836 28.2639 15.2765C28.2714 15.2692 28.2788 15.2618 28.2861 15.2543C28.2937 15.2465 28.3011 15.2387 28.3084 15.2308C28.316 15.2225 28.3234 15.2142 28.3307 15.2058C28.3383 15.197 28.3457 15.1882 28.353 15.1792C28.3606 15.1698 28.368 15.1604 28.3752 15.1508C28.3828 15.1407 28.3903 15.1306 28.3975 15.1203C28.4052 15.1094 28.4125 15.0983 28.4198 15.0871C28.4274 15.0752 28.4349 15.0631 28.4421 15.0509C28.4498 15.0378 28.4572 15.0246 28.4643 15.0111C28.4721 14.9964 28.4796 14.9816 28.4866 14.9666C28.4945 14.9498 28.5019 14.9327 28.5089 14.9153C28.5169 14.8955 28.5243 14.8753 28.5312 14.8548C28.5395 14.8295 28.5469 14.8038 28.5534 14.7775C28.5629 14.7392 28.5704 14.6998 28.5757 14.6595C28.5822 14.6106 28.5856 14.5603 28.5856 14.5087C28.5856 14.4584 28.5822 14.4095 28.5757 14.3621C28.5704 14.3231 28.5629 14.2851 28.5534 14.2481C28.5469 14.2229 28.5395 14.1981 28.5312 14.1739C28.5243 14.154 28.5169 14.1344 28.5089 14.1151C28.5019 14.0985 28.4945 14.082 28.4866 14.0659C28.4795 14.0513 28.4721 14.037 28.4643 14.0228C28.4572 14.0098 28.4498 13.997 28.4421 13.9843C28.4349 13.9726 28.4274 13.961 28.4198 13.9495C28.4126 13.9387 28.4052 13.928 28.3975 13.9175C28.3903 13.9075 28.3828 13.8978 28.3752 13.8881C28.368 13.8788 28.3606 13.8697 28.353 13.8607C28.3457 13.852 28.3383 13.8434 28.3307 13.835C28.3234 13.8268 28.316 13.8188 28.3084 13.8109C28.3011 13.8032 28.2937 13.7957 28.2861 13.7882C28.2788 13.781 28.2714 13.7738 28.2639 13.7668C28.2565 13.7599 28.2491 13.7532 28.2416 13.7465C28.2343 13.74 28.2268 13.7336 28.2193 13.7272C28.212 13.721 28.2046 13.7149 28.197 13.7089C28.1897 13.703 28.1823 13.6972 28.1748 13.6914C28.1674 13.6858 28.16 13.6803 28.1525 13.6748C28.1451 13.6694 28.1377 13.6641 28.1302 13.6589C28.1229 13.6538 28.1154 13.6487 28.1079 13.6437C28.1006 13.6388 28.0932 13.6339 28.0857 13.6291C28.0783 13.6245 28.0709 13.6198 28.0634 13.6152C28.0561 13.6107 28.0486 13.6063 28.0411 13.602C28.0338 13.5977 28.0263 13.5934 28.0189 13.5892C28.0115 13.5851 28.0041 13.5811 27.9966 13.5771C27.9892 13.5731 27.9818 13.5692 27.9743 13.5654C27.9669 13.5616 27.9595 13.5578 27.952 13.5541C27.9446 13.5505 27.9372 13.5468 27.9297 13.5433C27.9224 13.5398 27.9149 13.5364 27.9075 13.533C27.9001 13.5297 27.8927 13.5264 27.8852 13.5232C27.8778 13.52 27.8704 13.5168 27.8629 13.5137C27.8555 13.5106 27.8481 13.5076 27.8407 13.5046C27.8333 13.5016 27.8258 13.4987 27.8184 13.4959C27.811 13.4931 27.8036 13.4904 27.7961 13.4876C27.7887 13.4849 27.7813 13.4823 27.7738 13.4797C27.7664 13.4771 27.759 13.4745 27.7516 13.472C27.7442 13.4695 27.7368 13.4671 27.7293 13.4647C27.7219 13.4624 27.7145 13.4601 27.707 13.4578L27.6847 13.4512C27.6773 13.449 27.6699 13.4469 27.6625 13.4448C27.6551 13.4427 27.6476 13.4408 27.6402 13.4388C27.6328 13.4369 27.6254 13.435 27.6179 13.4331C27.6105 13.4313 27.6031 13.4294 27.5956 13.4277C27.5883 13.4259 27.5808 13.4242 27.5734 13.4225C27.566 13.4209 27.5585 13.4193 27.5511 13.4177C27.5437 13.4161 27.5363 13.4146 27.5288 13.4131L27.5065 13.4087L27.4843 13.4047C27.4769 13.4034 27.4695 13.4021 27.462 13.4009L27.4397 13.3973C27.4323 13.3962 27.4249 13.3951 27.4175 13.394L27.3952 13.3909L27.3729 13.3881L27.3506 13.3855L27.3284 13.3832L27.3061 13.3811L27.2838 13.3792L27.2632 13.3776L27.2632 13.3504L27.2838 13.3472L27.3061 13.3435C27.3135 13.3422 27.321 13.3409 27.3284 13.3395L27.3506 13.3352C27.3581 13.3337 27.3655 13.3321 27.3729 13.3305L27.3952 13.3256C27.4026 13.3239 27.4101 13.3222 27.4175 13.3204C27.4249 13.3185 27.4323 13.3166 27.4397 13.3147C27.4472 13.3128 27.4546 13.3107 27.462 13.3087C27.4695 13.3066 27.4769 13.3045 27.4843 13.3024C27.4917 13.3002 27.4992 13.298 27.5065 13.2958C27.514 13.2935 27.5215 13.2911 27.5288 13.2887C27.5363 13.2863 27.5437 13.2838 27.5511 13.2812C27.5586 13.2787 27.566 13.276 27.5734 13.2733C27.5808 13.2706 27.5883 13.2679 27.5956 13.2651C27.6031 13.2622 27.6106 13.2594 27.6179 13.2564C27.6254 13.2534 27.6328 13.2504 27.6402 13.2473C27.6477 13.2441 27.6551 13.2409 27.6625 13.2377C27.67 13.2344 27.6774 13.231 27.6847 13.2276C27.6922 13.2241 27.6996 13.2205 27.707 13.2169C27.7145 13.2133 27.7219 13.2095 27.7293 13.2058C27.7368 13.2019 27.7442 13.198 27.7516 13.1941C27.7591 13.19 27.7665 13.1859 27.7738 13.1818C27.7813 13.1776 27.7888 13.1733 27.7961 13.1689C27.8036 13.1645 27.811 13.16 27.8184 13.1554C27.8259 13.1507 27.8333 13.146 27.8407 13.1412C27.8482 13.1363 27.8556 13.1313 27.8629 13.1262C27.8704 13.1211 27.8779 13.1159 27.8852 13.1105C27.8927 13.1051 27.9002 13.0996 27.9075 13.094C27.915 13.0883 27.9224 13.0826 27.9297 13.0767C27.9373 13.0706 27.9447 13.0646 27.952 13.0584C27.9596 13.052 27.967 13.0455 27.9743 13.039C27.9819 13.0322 27.9893 13.0254 27.9966 13.0185C28.0041 13.0113 28.0116 13.0041 28.0189 12.9968C28.0264 12.9892 28.0338 12.9816 28.0411 12.9738C28.0487 12.9657 28.0561 12.9575 28.0634 12.9493C28.071 12.9406 28.0784 12.9319 28.0857 12.9231C28.0933 12.9138 28.1007 12.9044 28.1079 12.895C28.1156 12.885 28.123 12.8748 28.1302 12.8646C28.1379 12.8538 28.1453 12.8428 28.1525 12.8317C28.1602 12.8198 28.1676 12.8079 28.1748 12.7957C28.1825 12.7826 28.1899 12.7693 28.197 12.7558C28.2049 12.741 28.2123 12.7261 28.2193 12.711C28.2272 12.6939 28.2346 12.6767 28.2416 12.6592C28.2497 12.6389 28.2571 12.6183 28.2639 12.5974C28.2723 12.5712 28.2798 12.5445 28.2861 12.5175C28.2964 12.4737 28.3038 12.429 28.3084 12.3835C28.312 12.3476 28.3139 12.3113 28.3139 12.2745C28.3139 12.2358 28.312 12.1979 28.3084 12.1611C28.3038 12.1139 28.2963 12.0684 28.2861 12.0244C28.2798 11.997 28.2723 11.9702 28.2639 11.944C28.2571 11.923 28.2497 11.9025 28.2416 11.8824C28.2346 11.865 28.2272 11.848 28.2193 11.8313C28.2123 11.8163 28.2048 11.8017 28.197 11.7872C28.1899 11.774 28.1825 11.761 28.1748 11.7482C28.1676 11.7363 28.1602 11.7245 28.1525 11.713C28.1453 11.7022 28.1379 11.6915 28.1302 11.681C28.123 11.6711 28.1156 11.6613 28.1079 11.6516C28.1007 11.6424 28.0933 11.6333 28.0857 11.6243C28.0784 11.6157 28.071 11.6074 28.0634 11.5991C28.0561 11.5911 28.0487 11.5832 28.0411 11.5754C28.0338 11.5679 28.0264 11.5605 28.0189 11.5532C28.0115 11.5462 28.0041 11.5392 27.9966 11.5323C27.9893 11.5257 27.9818 11.5191 27.9743 11.5126C27.967 11.5063 27.9596 11.5001 27.952 11.4939C27.9447 11.488 27.9373 11.4821 27.9297 11.4763C27.9224 11.4706 27.915 11.465 27.9075 11.4595C27.9001 11.4542 27.8927 11.4489 27.8852 11.4436C27.8779 11.4385 27.8704 11.4335 27.8629 11.4285C27.8556 11.4237 27.8481 11.4189 27.8407 11.4141C27.8333 11.4095 27.8259 11.405 27.8184 11.4005C27.811 11.396 27.8036 11.3917 27.7961 11.3874C27.7888 11.3832 27.7813 11.379 27.7738 11.3749C27.7665 11.3709 27.7591 11.367 27.7516 11.363C27.7442 11.3592 27.7368 11.3554 27.7293 11.3517C27.7219 11.348 27.7145 11.3443 27.707 11.3408C27.6996 11.3373 27.6922 11.3338 27.6847 11.3304C27.6774 11.3271 27.6699 11.3239 27.6625 11.3206C27.6551 11.3175 27.6476 11.3143 27.6402 11.3112C27.6328 11.3082 27.6254 11.3052 27.6179 11.3023C27.6105 11.2993 27.6031 11.2965 27.5956 11.2936C27.5883 11.2909 27.5808 11.2882 27.5734 11.2855C27.566 11.2828 27.5586 11.2803 27.5511 11.2777C27.5437 11.2752 27.5363 11.2727 27.5288 11.2703C27.5214 11.2679 27.514 11.2656 27.5065 11.2633C27.4991 11.261 27.4918 11.2587 27.4843 11.2565C27.4769 11.2543 27.4695 11.2522 27.462 11.2502C27.4546 11.2481 27.4472 11.2461 27.4397 11.2442L27.4175 11.2384C27.41 11.2366 27.4026 11.2347 27.3952 11.233C27.3878 11.2312 27.3804 11.2295 27.3729 11.2279L27.3506 11.2231C27.3432 11.2215 27.3358 11.2199 27.3284 11.2185C27.321 11.217 27.3135 11.2157 27.3061 11.2143L27.2838 11.2103C27.2764 11.209 27.269 11.2077 27.2615 11.2065L27.2393 11.2031L27.217 11.1999L27.1947 11.1969L27.1724 11.1942L27.1502 11.1918L27.1279 11.1895L27.1056 11.1875L27.0833 11.1858L27.0611 11.1842L27.0388 11.1829L27.03 11.1824L27.0165 11.1815L26.9942 11.1802L26.972 11.179L26.9497 11.1778L26.9274 11.1767L26.9052 11.1757L26.8829 11.1749L26.8606 11.1742L26.8383 11.1737L26.816 11.1734L26.8038 11.1733H26.7938H26.7715H26.7492H26.727H26.7047H26.6824H26.6601H26.6379H26.6156H26.5933H26.571H26.5488H26.5265H26.5042H26.4819H26.4597H26.4374H26.4151H26.3928H26.3706H26.3483H26.326H26.3038H26.2815H26.2592H26.2369H26.2147H26.1924H26.1701H26.1478H26.1256H26.1033H26.081H26.0587H26.0365H26.0142H25.9919H25.9696H25.9474H25.9251H25.9028H25.8806H25.8583H25.836H25.8137H25.7915H25.7692H25.7469H25.7246H25.7023H25.6801H25.6578H25.6355H25.6133H25.591H25.5687H25.5464H25.5242H25.5019H25.4796H25.4573H25.4351H25.4128H25.3905H25.3682H25.346H25.3237H25.3014H25.2791H25.2569H25.2346H25.2123H25.1901H25.1678H25.1455H25.1232H25.101H25.0787H25.0564H25.0341H25.0119H24.9896H24.9673H24.945H24.9228H24.9005H24.8782H24.8559H24.8337H24.8114H24.7891H24.7669H24.7446H24.7223H24.7H24.6778H24.6555H24.6332H24.6109H24.5887H24.5664H24.5441H24.5218H24.4996H24.4773H24.455H24.4327H24.4105H24.3882H24.3659H24.3437H24.3214H24.2991H24.2768H24.2545H24.2323H24.21H24.1877H24.1654H24.1432H24.1209H24.0986H24.0764H24.0541H24.0318H24.0095H23.9873H23.965H23.9427H23.9204H23.8982H23.8759H23.8536H23.8313H23.8091H23.7868H23.7645H23.7422H23.72H23.6977H23.6754H23.6532H23.6309H23.6086H23.5863H23.5383V8.73946C23.5383 8.57572 23.5549 8.41593 23.5863 8.26166C23.5931 8.22863 23.6005 8.19587 23.6086 8.16338C23.6155 8.13557 23.623 8.10797 23.6309 8.08058C23.6379 8.05611 23.6453 8.03181 23.6532 8.00768C23.6603 7.98563 23.6677 7.9637 23.6754 7.94195C23.6826 7.92177 23.69 7.90171 23.6977 7.8818C23.7049 7.8632 23.7123 7.84469 23.72 7.82634C23.7272 7.80901 23.7346 7.79176 23.7422 7.77465C23.7495 7.75839 23.7569 7.74225 23.7645 7.7262C23.7718 7.71088 23.7792 7.69567 23.7868 7.68054C23.7941 7.66599 23.8015 7.65156 23.8091 7.63717C23.8163 7.62332 23.8238 7.60956 23.8313 7.59587C23.8386 7.58259 23.8461 7.56943 23.8536 7.55633C23.8609 7.54361 23.8683 7.53096 23.8759 7.51842C23.8832 7.50625 23.8906 7.49417 23.8982 7.48215C23.9055 7.47051 23.9129 7.45898 23.9204 7.44749C23.9278 7.43624 23.9352 7.42502 23.9427 7.41391C23.9501 7.40301 23.9574 7.39212 23.965 7.38136C23.9723 7.37093 23.9798 7.36064 23.9873 7.35034C23.9946 7.34022 24.002 7.33017 24.0095 7.32018C24.0169 7.31033 24.0243 7.30045 24.0318 7.29074C24.0391 7.28129 24.0466 7.27199 24.0541 7.26265C24.0614 7.25345 24.0689 7.24432 24.0764 7.23524C24.0837 7.22628 24.0911 7.21732 24.0986 7.20847C24.106 7.19984 24.1134 7.19137 24.1209 7.18286C24.1283 7.17442 24.1357 7.16596 24.1432 7.15764C24.1505 7.14948 24.158 7.1414 24.1654 7.13334C24.1728 7.12539 24.1803 7.11749 24.1877 7.10964C24.1951 7.10189 24.2025 7.09415 24.21 7.0865C24.2174 7.07898 24.2248 7.07158 24.2323 7.06417C24.2397 7.0568 24.247 7.04936 24.2545 7.0421C24.2619 7.035 24.2694 7.02806 24.2768 7.02105C24.2842 7.01407 24.2916 7.00708 24.2991 7.0002C24.3065 6.99343 24.3139 6.98679 24.3214 6.98014C24.3288 6.97352 24.3362 6.9669 24.3437 6.96037C24.351 6.95394 24.3585 6.94761 24.3659 6.94127C24.3733 6.93499 24.3807 6.92872 24.3882 6.92254C24.3956 6.91641 24.403 6.91035 24.4105 6.90433L24.4327 6.88654L24.455 6.86921C24.4624 6.86353 24.4698 6.85789 24.4773 6.8523C24.4847 6.84677 24.4921 6.84126 24.4996 6.8358L24.5218 6.81973C24.5292 6.81447 24.5366 6.80923 24.5441 6.80406L24.5664 6.78874L24.5887 6.77384C24.5961 6.76894 24.6035 6.76407 24.6109 6.75927L24.6332 6.74513C24.6406 6.74046 24.648 6.73579 24.6555 6.73122C24.6629 6.72668 24.6703 6.72227 24.6778 6.71783C24.6852 6.71339 24.6925 6.70891 24.7 6.70456C24.7074 6.70026 24.7149 6.69612 24.7223 6.6919C24.7297 6.68768 24.7371 6.68339 24.7446 6.67926C24.752 6.67519 24.7594 6.67126 24.7669 6.66726C24.7743 6.66327 24.7817 6.65926 24.7891 6.65534C24.7965 6.65146 24.804 6.64769 24.8114 6.6439C24.8188 6.64013 24.8262 6.63635 24.8337 6.63265L24.8559 6.62172C24.8633 6.61814 24.8708 6.61465 24.8782 6.61115C24.8856 6.60766 24.893 6.60411 24.9005 6.6007C24.9079 6.59733 24.9154 6.5941 24.9228 6.5908C24.9302 6.5875 24.9376 6.58415 24.945 6.58092C24.9524 6.57773 24.9599 6.5747 24.9673 6.57158C24.9747 6.56849 24.9821 6.56536 24.9896 6.56234L25.0119 6.55343L25.0341 6.54483C25.0416 6.54198 25.049 6.53909 25.0564 6.53634C25.0638 6.5336 25.0713 6.53103 25.0787 6.52837C25.0861 6.5257 25.0935 6.52299 25.101 6.5204C25.1083 6.51783 25.1158 6.51541 25.1232 6.51292L25.1455 6.50559C25.1529 6.50319 25.1603 6.50077 25.1678 6.49844C25.1752 6.49614 25.1826 6.49396 25.1901 6.49173C25.1975 6.48948 25.2049 6.48716 25.2123 6.485C25.2197 6.48286 25.2272 6.48087 25.2346 6.47881C25.242 6.47675 25.2494 6.47467 25.2569 6.47268L25.2791 6.46683C25.2865 6.46494 25.294 6.46314 25.3014 6.46132C25.3088 6.4595 25.3162 6.45755 25.3237 6.45581C25.3311 6.45408 25.3386 6.45251 25.346 6.45084L25.3682 6.44591L25.3905 6.44124C25.3979 6.43974 25.4054 6.43833 25.4128 6.43691C25.4202 6.43546 25.4276 6.43393 25.4351 6.43256C25.4425 6.43119 25.4499 6.43003 25.4573 6.42875L25.4796 6.425C25.487 6.4238 25.4945 6.42256 25.5019 6.42144C25.5093 6.42031 25.5167 6.41932 25.5242 6.41827C25.5316 6.41722 25.539 6.41608 25.5464 6.4151C25.5538 6.41413 25.5613 6.41326 25.5687 6.41236L25.591 6.40978C25.5984 6.40895 25.6058 6.40803 25.6133 6.40728C25.6207 6.40653 25.6281 6.40595 25.6355 6.40528L25.6578 6.40327L25.6801 6.40156C25.6875 6.40102 25.6949 6.40059 25.7023 6.40012C25.7098 6.39967 25.7172 6.39909 25.7246 6.3987C25.732 6.3983 25.7395 6.39808 25.7469 6.39776L25.7692 6.39691C25.7766 6.39667 25.784 6.39635 25.7915 6.39618C25.7989 6.39601 25.8063 6.396 25.8137 6.39588C25.8211 6.39577 25.8286 6.39564 25.836 6.3956L25.8416 6.39553H25.8583H25.8806H25.9028H25.9251H25.9474H25.9696H25.9919H26.0142H26.0365H26.0587H26.081H26.1033H26.1256H26.1478H26.1701H26.1924H26.2147H26.2369H26.2592H26.2815H26.3038H26.326H26.3483H26.3706H26.3928H26.4151H26.4374H26.4597H26.4819H26.5042H26.5265H26.5488H26.571H26.5933H26.6156H26.6379H26.6601H26.6824H26.7047H26.727H26.7492H26.7715H26.7938H26.816H26.8383H26.8606H26.8829H26.9052H26.9274H26.9497H26.972H26.9942H27.0165H27.0388H27.0611H27.0833H27.1056H27.1279H27.1502H27.1724H27.1947H27.217H27.2393H27.2615H27.2838H27.3061H27.3284H27.3506H27.3729H27.3952H27.4175H27.4397H27.462H27.4843H27.5065H27.5288H27.5511H27.5734H27.5956H27.6179H27.6402H27.6625H27.6847H27.707H27.7293H27.7516H27.7738H27.7961H27.8184H27.8407H27.8629H27.8852H27.9075H27.9297H27.952H27.9743H27.9966H28.0189H28.0411H28.0634H28.0857H28.1079H28.1302H28.1525H28.1748H28.197H28.2193H28.2416H28.2639H28.2861H28.3084H28.3307H28.353H28.3752H28.3975H28.4198H28.4421H28.4643H28.4866H28.5089H28.5312H28.5534H28.5757H28.598H28.6202H28.6425H28.6648H28.6871H28.7093H28.7316H28.7539H28.7762H28.7984H28.8207H28.843H28.8653H28.8875H28.9098H28.9321H28.9544H28.9766H28.9989H29.0212H29.0435H29.0657H29.088H29.1103H29.1326H29.1548H29.1771H29.1994H29.2216V6.39551V6.39551Z" fill="url(#paint0_linear_112_1976)"/>
<path fill-rule="evenodd" clip-rule="evenodd" d="M10.8173 14.551C10.8014 14.5433 10.7854 14.5356 10.7695 14.5278V8.73944C10.7695 8.57617 10.786 8.4168 10.8173 8.26294C10.824 8.2299 10.8315 8.19717 10.8395 8.16465C10.8464 8.13681 10.8539 8.10919 10.8618 8.08176C10.8688 8.05731 10.8762 8.03305 10.884 8.00894C10.8911 7.98687 10.8985 7.9649 10.9062 7.94311C10.9134 7.92295 10.9208 7.90291 10.9285 7.88302C10.9356 7.86442 10.9431 7.84587 10.9507 7.8275C10.9579 7.81018 10.9653 7.79296 10.9729 7.77586C10.9802 7.75961 10.9876 7.74348 10.9952 7.72743C11.0024 7.7121 11.0099 7.69687 11.0174 7.68172C11.0247 7.66717 11.0321 7.65274 11.0396 7.63837C11.0469 7.62452 11.0543 7.61076 11.0619 7.59707C11.0692 7.58381 11.0766 7.57063 11.0841 7.55755C11.0914 7.54483 11.0988 7.53216 11.1063 7.5196C11.1136 7.50745 11.1211 7.49539 11.1286 7.48339C11.1359 7.47177 11.1433 7.46022 11.1508 7.44872C11.1581 7.43747 11.1655 7.42626 11.173 7.41514C11.1804 7.40423 11.1877 7.39334 11.1953 7.38256C11.2026 7.37215 11.21 7.36188 11.2175 7.35158C11.2249 7.34146 11.2323 7.33141 11.2398 7.32141C11.2471 7.31159 11.2545 7.30169 11.262 7.29198C11.2693 7.28255 11.2768 7.27327 11.2842 7.26395C11.2916 7.25474 11.299 7.24557 11.3065 7.23648C11.3138 7.22754 11.3212 7.21861 11.3287 7.20978C11.336 7.20114 11.3435 7.19264 11.3509 7.18411C11.3583 7.17566 11.3657 7.16722 11.3732 7.15889C11.3805 7.15074 11.3879 7.14269 11.3954 7.13465C11.4027 7.12668 11.4101 7.11879 11.4176 7.11093C11.425 7.10319 11.4324 7.09545 11.4399 7.0878C11.4472 7.08028 11.4547 7.07287 11.4621 7.06546C11.4695 7.0581 11.4768 7.05067 11.4843 7.04342C11.4917 7.03631 11.4991 7.02937 11.5066 7.02236C11.514 7.01537 11.5213 7.00835 11.5288 7.00147C11.5361 6.99472 11.5436 6.9881 11.551 6.98145C11.5584 6.97483 11.5658 6.96819 11.5733 6.96167C11.5806 6.95524 11.5881 6.94892 11.5955 6.94258C11.6029 6.9363 11.6103 6.93002 11.6177 6.92383C11.6251 6.91772 11.6325 6.91166 11.64 6.90563C11.6474 6.89964 11.6547 6.89372 11.6622 6.88783C11.6696 6.882 11.677 6.87624 11.6844 6.87051C11.6918 6.86483 11.6992 6.85916 11.7067 6.85358L11.7289 6.83711C11.7363 6.8317 11.7437 6.82631 11.7511 6.82099C11.7585 6.81572 11.7659 6.81051 11.7734 6.80533C11.7808 6.80018 11.7882 6.79506 11.7956 6.79C11.803 6.78499 11.8104 6.78006 11.8178 6.77513C11.8252 6.77024 11.8326 6.7653 11.8401 6.76049C11.8474 6.75572 11.8549 6.75107 11.8623 6.74639C11.8697 6.74172 11.8771 6.73699 11.8845 6.73242C11.8919 6.7279 11.8993 6.72351 11.9068 6.71907C11.9142 6.71462 11.9215 6.71011 11.929 6.70574C11.9364 6.70144 11.9438 6.69734 11.9512 6.69312C11.9587 6.6889 11.966 6.68462 11.9735 6.68048C11.9809 6.67639 11.9883 6.67246 11.9957 6.66846C12.0031 6.66447 12.0105 6.66046 12.0179 6.65654C12.0253 6.65266 12.0327 6.64885 12.0402 6.64504L12.0624 6.63383C12.0698 6.63014 12.0772 6.62645 12.0847 6.62285C12.092 6.61926 12.0995 6.6158 12.1069 6.61229C12.1143 6.60878 12.1217 6.6052 12.1291 6.60179C12.1365 6.5984 12.1439 6.59521 12.1514 6.59191C12.1588 6.58861 12.1661 6.58525 12.1736 6.58203C12.181 6.57884 12.1884 6.57577 12.1958 6.57265L12.2181 6.56343L12.2403 6.55447L12.2625 6.54588C12.27 6.54303 12.2773 6.54009 12.2848 6.53731C12.2921 6.53457 12.2996 6.53202 12.307 6.52936C12.3144 6.5267 12.3218 6.524 12.3292 6.52141L12.3515 6.51385L12.3737 6.50652C12.3811 6.50412 12.3885 6.50167 12.3959 6.49934C12.4033 6.49704 12.4108 6.49484 12.4182 6.49261C12.4256 6.49036 12.433 6.48807 12.4404 6.4859C12.4478 6.48374 12.4552 6.48174 12.4626 6.47966L12.4849 6.47352C12.4923 6.47154 12.4997 6.46951 12.5071 6.4676C12.5145 6.46569 12.5219 6.46394 12.5293 6.46211C12.5367 6.46027 12.5441 6.45836 12.5516 6.45659C12.559 6.45485 12.5664 6.45322 12.5738 6.45155L12.596 6.44664C12.6035 6.44503 12.6108 6.44339 12.6183 6.44188C12.6257 6.44038 12.6331 6.43899 12.6405 6.43754C12.6479 6.4361 12.6553 6.4346 12.6627 6.43323C12.6702 6.43186 12.6776 6.43063 12.685 6.42933L12.7072 6.42558C12.7146 6.42438 12.722 6.42309 12.7294 6.42194C12.7368 6.4208 12.7443 6.41984 12.7517 6.41878C12.7591 6.41773 12.7665 6.4166 12.7739 6.41561L12.7961 6.41278L12.8184 6.41021C12.8258 6.40936 12.8332 6.40839 12.8406 6.40762C12.848 6.40685 12.8554 6.40629 12.8628 6.4056L12.8851 6.40361C12.8925 6.40297 12.8999 6.40235 12.9073 6.40181C12.9147 6.40126 12.9221 6.40083 12.9296 6.40036C12.937 6.3999 12.9444 6.39935 12.9518 6.39894C12.9592 6.39853 12.9666 6.39825 12.974 6.39791L12.9963 6.39705C13.0037 6.39678 13.0111 6.39639 13.0185 6.3962C13.0259 6.39601 13.0333 6.39603 13.0407 6.39592C13.0481 6.39581 13.0555 6.39568 13.063 6.39564L13.0728 6.39551H13.0852H13.1074H13.1297H13.1519H13.1741H13.1964H13.2186H13.2408H13.2631H13.2853H13.3075H13.3298H13.352H13.3742H13.3965H13.4187H13.441H13.4632H13.4854H13.5077H13.5299H13.5521H13.5744H13.5966H13.6188H13.6411H13.6633H13.6855H13.7078H13.73H13.7522H13.7745H13.7967H13.8189H13.8412H13.8634H13.8856H13.9079H13.9301H13.9523H13.9746H13.9968H14.019H14.0413H14.0635H14.0857H14.108H14.1302H14.1524H14.1747H14.1969H14.2191H14.2414H14.2636H14.2859H14.3081H14.3303H14.3526H14.3748H14.397H14.4193H14.4415H14.4637H14.486H14.5082H14.5304H14.5527H14.5749H14.5971H14.6194H14.6416H14.6638H14.6861H14.7083H14.7305H14.7528H14.775H14.7973H14.8195H14.8417H14.864H14.8862H14.9084H14.9307H14.9529H14.9751H14.9973H15.0196H15.0418H15.064H15.0863H15.1085H15.1308H15.153H15.1752H15.1975H15.2197H15.2419H15.2642H15.2864H15.3086H15.3309H15.3531H15.3753H15.3976H15.4198H15.442H15.4643H15.4865H15.5087H15.531H15.5532H15.5754H15.5977H15.6199H15.6422H15.6644H15.6866H15.7089H15.7311H15.7533H15.7756H15.7978H15.82H15.8423H15.8645H15.8867H15.909H15.9312H15.9534H15.9757H15.9979H16.0201H16.0424H16.0646H16.0868H16.1091H16.1313H16.1535H16.1758H16.198H16.2202H16.2425H16.2647H16.2869H16.3092H16.3314H16.3536H16.3759H16.3981H16.4203H16.4426H16.4615V18.1143C16.4615 18.2162 16.455 18.3167 16.4426 18.4152C16.4366 18.4626 16.4291 18.5095 16.4203 18.556C16.4137 18.5914 16.4063 18.6265 16.3981 18.6613C16.3912 18.6906 16.3838 18.7197 16.3759 18.7486C16.3689 18.7739 16.3614 18.799 16.3536 18.824C16.3466 18.8466 16.3391 18.869 16.3314 18.8914C16.3243 18.912 16.3169 18.9325 16.3092 18.9529C16.302 18.9719 16.2946 18.9908 16.2869 19.0096C16.2797 19.0273 16.2723 19.0449 16.2647 19.0624C16.2575 19.0789 16.2501 19.0954 16.2425 19.1118C16.2352 19.1274 16.2278 19.1429 16.2202 19.1583C16.213 19.1732 16.2056 19.1879 16.198 19.2025C16.1907 19.2166 16.1833 19.2306 16.1758 19.2445C16.1685 19.258 16.1611 19.2714 16.1535 19.2847C16.1463 19.2975 16.1388 19.3102 16.1313 19.3229C16.124 19.3352 16.1166 19.3473 16.1091 19.3594C16.1018 19.3712 16.0943 19.383 16.0868 19.3947C16.0795 19.4061 16.0721 19.4175 16.0646 19.4288C16.0573 19.4397 16.0499 19.4506 16.0424 19.4614C16.0351 19.4719 16.0276 19.4824 16.0201 19.4928C16.0128 19.5031 16.0054 19.5133 15.9979 19.5234C15.9906 19.5333 15.9832 19.5431 15.9757 19.5529C15.9683 19.5625 15.9609 19.5719 15.9534 19.5813C15.9461 19.5907 15.9387 19.6 15.9312 19.6092C15.9239 19.6181 15.9164 19.627 15.909 19.6359C15.9016 19.6446 15.8942 19.6533 15.8867 19.6619C15.8793 19.6704 15.872 19.679 15.8645 19.6874C15.8572 19.6956 15.8497 19.7036 15.8423 19.7118C15.8349 19.7198 15.8275 19.7279 15.82 19.7358C15.8127 19.7436 15.8052 19.7512 15.7978 19.7589C15.7904 19.7665 15.783 19.7741 15.7756 19.7816C15.7682 19.789 15.7608 19.7963 15.7533 19.8036C15.746 19.8108 15.7385 19.8179 15.7311 19.825C15.7237 19.832 15.7163 19.8391 15.7089 19.846C15.7015 19.8528 15.6941 19.8595 15.6866 19.8662C15.6792 19.8729 15.6719 19.8796 15.6644 19.8862C15.6571 19.8927 15.6496 19.8989 15.6422 19.9053C15.6348 19.9117 15.6274 19.9181 15.6199 19.9244C15.6126 19.9305 15.6051 19.9365 15.5977 19.9426C15.5903 19.9486 15.5829 19.9547 15.5754 19.9606C15.5681 19.9665 15.5606 19.9722 15.5532 19.9779C15.5458 19.9837 15.5385 19.9895 15.531 19.9951C15.5236 20.0007 15.5162 20.0061 15.5087 20.0116C15.5013 20.017 15.494 20.0225 15.4865 20.0279C15.4792 20.0332 15.4717 20.0384 15.4643 20.0436C15.4569 20.0488 15.4495 20.0541 15.442 20.0592C15.4347 20.0642 15.4272 20.0691 15.4198 20.0741C15.4124 20.079 15.405 20.084 15.3976 20.0889C15.3902 20.0937 15.3827 20.0983 15.3753 20.103C15.3679 20.1077 15.3606 20.1125 15.3531 20.1171C15.3457 20.1217 15.3383 20.1261 15.3309 20.1305C15.3235 20.135 15.3161 20.1395 15.3086 20.1439C15.3013 20.1482 15.2938 20.1525 15.2864 20.1567C15.279 20.161 15.2716 20.1652 15.2642 20.1693C15.2568 20.1735 15.2494 20.1775 15.2419 20.1816L15.2197 20.1935C15.2123 20.1974 15.2049 20.2013 15.1975 20.2052C15.1901 20.209 15.1827 20.2127 15.1752 20.2164C15.1678 20.2201 15.1605 20.224 15.153 20.2276C15.1456 20.2312 15.1382 20.2346 15.1308 20.2381C15.1233 20.2417 15.116 20.2453 15.1085 20.2487C15.1012 20.2521 15.0937 20.2554 15.0863 20.2587L15.064 20.2686L15.0418 20.2782C15.0344 20.2813 15.027 20.2843 15.0196 20.2874C15.0122 20.2905 15.0048 20.2936 14.9973 20.2966C14.99 20.2995 14.9825 20.3023 14.9751 20.3051C14.9677 20.308 14.9603 20.3109 14.9529 20.3137C14.9455 20.3165 14.9381 20.3191 14.9307 20.3218L14.9084 20.3298L14.8862 20.3375C14.8788 20.34 14.8714 20.3424 14.864 20.3449C14.8565 20.3473 14.8492 20.3498 14.8417 20.3522C14.8343 20.3545 14.8269 20.3567 14.8195 20.3589L14.7973 20.3657L14.775 20.3721C14.7676 20.3742 14.7602 20.3762 14.7528 20.3782C14.7454 20.3802 14.738 20.3824 14.7305 20.3843C14.7232 20.3862 14.7157 20.388 14.7083 20.3898C14.7009 20.3917 14.6935 20.3935 14.6861 20.3953L14.6638 20.4005L14.6416 20.4054C14.6342 20.4071 14.6268 20.4088 14.6194 20.4104C14.612 20.4119 14.6045 20.4132 14.5971 20.4147C14.5897 20.4162 14.5823 20.4176 14.5749 20.419L14.5527 20.4231C14.5453 20.4244 14.5379 20.4256 14.5304 20.4268C14.523 20.4281 14.5156 20.4294 14.5082 20.4306C14.5008 20.4317 14.4934 20.4327 14.486 20.4338L14.4637 20.437C14.4563 20.438 14.4489 20.439 14.4415 20.4399C14.4341 20.4409 14.4267 20.4417 14.4193 20.4425C14.4118 20.4434 14.4045 20.4443 14.397 20.4451C14.3896 20.4459 14.3822 20.4466 14.3748 20.4473L14.3526 20.4493C14.3451 20.4499 14.3378 20.4507 14.3303 20.4513C14.3229 20.4519 14.3155 20.4522 14.3081 20.4527L14.2859 20.4541L14.2636 20.4553C14.2562 20.4557 14.2488 20.4559 14.2414 20.4562C14.234 20.4565 14.2266 20.4568 14.2191 20.4571C14.2118 20.4573 14.2043 20.4573 14.1969 20.4575L14.1747 20.4578C14.1678 20.4578 14.161 20.458 14.1541 20.458H14.1524H14.1302H14.108H14.0857H14.0635H14.0413H14.019H13.9968H13.9746H13.9523H13.9301H13.9079H13.8856H13.8634H13.8412H13.8189H13.7967H13.7745H13.7522H13.73H13.7078H13.6855H13.6633H13.6411H13.6188H13.5966H13.5744H13.5521H13.5299H13.5077H13.4854H13.4632H13.441H13.4187H13.3965H13.3742H13.352H13.3298H13.3075H13.2853H13.2631H13.2408H13.2186H13.1964H13.1741H13.1519H13.1297H13.1074H13.0852H13.063H13.0407H13.0185H12.9963H12.974H12.9518H12.9296H12.9073H12.8851H12.8628H12.8406H12.8184H12.7961H12.7739H12.7517H12.7294H12.7072H12.685H12.6627H12.6405H12.6183H12.596H12.5738H12.5516H12.5293H12.5071H12.4849H12.4626H12.4404H12.4182H12.3959H12.3737H12.3515H12.3292H12.307H12.2848H12.2625H12.2403H12.2181H12.1958H12.1736H12.1514H12.1291H12.1069H12.0847H12.0624H12.0402H12.0179H11.9957H11.9735H11.9512H11.929H11.9068H11.8845H11.8623H11.8401H11.8178H11.7956H11.7734H11.7511H11.7289H11.7067H11.6844H11.6622H11.64H11.6177H11.5955H11.5733H11.551H11.5288H11.5066H11.4843H11.4621H11.4399H11.4176H11.3954H11.3732H11.3509H11.3287H11.3065H11.2842H11.262H11.2398H11.2175H11.1953H11.173H11.1508H11.1286H11.1063H11.0841H11.0619H11.0396H11.0174H10.9952H10.9729H10.9507H10.9285H10.9062H10.884H10.8618H10.8395H10.8173H10.7695V15.5187C10.7695 15.5187 10.786 15.5233 10.8173 15.5313L10.8395 15.537L10.8618 15.5425L10.884 15.5479L10.9062 15.5532L10.9285 15.5585L10.9507 15.5637L10.9729 15.5688L10.9952 15.5738L11.0174 15.5787L11.0396 15.5836L11.0619 15.5884L11.0841 15.5932L11.1063 15.5979L11.1286 15.6025L11.1508 15.6071L11.173 15.6116L11.1953 15.6161L11.2175 15.6205L11.2398 15.6248L11.262 15.6291L11.2842 15.6333L11.3065 15.6375L11.3287 15.6417L11.3509 15.6457L11.3732 15.6498L11.3954 15.6537L11.4176 15.6576L11.4399 15.6615L11.4621 15.6653L11.4843 15.669L11.5066 15.6727L11.5288 15.6764L11.551 15.68L11.5733 15.6836L11.5955 15.6871L11.6177 15.6905L11.64 15.6939L11.6622 15.6973L11.6844 15.7006L11.7067 15.7038L11.7289 15.7071L11.7511 15.7102L11.7734 15.7133L11.7956 15.7164L11.8178 15.7194L11.8401 15.7224L11.8623 15.7253L11.8845 15.7281L11.9068 15.731L11.929 15.7337L11.9512 15.7365L11.9735 15.7391L11.9957 15.7417L12.0179 15.7443L12.0402 15.7468L12.0624 15.7493L12.0847 15.7517L12.1069 15.7541L12.1291 15.7564L12.1514 15.7587L12.1736 15.761L12.1958 15.7631L12.2181 15.7653L12.2403 15.7674L12.2625 15.7694L12.2848 15.7714L12.307 15.7733L12.3292 15.7752L12.3515 15.7771L12.3737 15.7789L12.3959 15.7806L12.4182 15.7823L12.4404 15.784L12.4626 15.7856L12.4849 15.7871L12.5071 15.7886L12.5293 15.7901L12.5516 15.7915L12.5738 15.7928L12.596 15.7941L12.6183 15.7953L12.6405 15.7965L12.6627 15.7977L12.685 15.7988L12.7072 15.7998L12.7294 15.8008L12.7517 15.8018L12.7739 15.8027L12.7961 15.8035L12.8184 15.8043L12.8406 15.805L12.8628 15.8057L12.8851 15.8064L12.9073 15.8069L12.9296 15.8074L12.9518 15.808L12.974 15.8083L12.9963 15.8087L13.0185 15.809L13.0407 15.8093L13.063 15.8095L13.0852 15.8097L13.1074 15.8098L13.1297 15.8098L13.1382 15.8099L13.1519 15.8098L13.1741 15.8096L13.1964 15.8095L13.2186 15.8094L13.2408 15.8092L13.2631 15.8088L13.2853 15.8084L13.3075 15.808L13.3298 15.8076L13.352 15.807L13.3742 15.8063L13.3965 15.8056L13.4187 15.8049L13.441 15.8042L13.4632 15.8032L13.4854 15.8022L13.5077 15.8012L13.5299 15.8002L13.5521 15.7989L13.5744 15.7976L13.5966 15.7963L13.6188 15.795L13.6411 15.7935L13.6633 15.7919L13.6855 15.7903L13.7078 15.7886L13.73 15.7868L13.7522 15.7849L13.7745 15.7829L13.7967 15.781L13.8189 15.7788L13.8412 15.7765L13.8634 15.7742L13.8856 15.7719L13.9079 15.7694L13.9301 15.7668L13.9523 15.7641L13.9746 15.7615L13.9968 15.7585L14.019 15.7555L14.0413 15.7525L14.0635 15.7494C14.071 15.7483 14.0783 15.7471 14.0857 15.746L14.108 15.7426L14.1302 15.7392L14.1524 15.7356C14.1599 15.7344 14.1672 15.7331 14.1747 15.7318L14.1969 15.7281C14.2043 15.7268 14.2118 15.7256 14.2191 15.7242C14.2266 15.7229 14.2339 15.7215 14.2414 15.7201L14.2636 15.7158L14.2859 15.7116L14.3081 15.7072C14.3156 15.7057 14.3229 15.7041 14.3303 15.7026L14.3526 15.6979L14.3748 15.6932C14.3823 15.6915 14.3896 15.6898 14.397 15.6881L14.4193 15.683C14.4266 15.6813 14.4342 15.6797 14.4415 15.6779C14.449 15.6761 14.4563 15.6742 14.4637 15.6724L14.486 15.6668C14.4933 15.665 14.5009 15.6632 14.5082 15.6613C14.5157 15.6594 14.523 15.6573 14.5304 15.6554L14.5527 15.6493C14.5601 15.6473 14.5676 15.6453 14.5749 15.6433C14.5824 15.6412 14.5897 15.639 14.5971 15.6369L14.6194 15.6303C14.6268 15.6281 14.6343 15.626 14.6416 15.6238L14.6638 15.6168L14.6861 15.6098C14.6935 15.6074 14.701 15.6051 14.7083 15.6027L14.7305 15.5952L14.7528 15.5875C14.7602 15.5849 14.7677 15.5825 14.775 15.5799C14.7825 15.5772 14.7898 15.5744 14.7973 15.5717L14.8195 15.5634C14.8269 15.5606 14.8344 15.5579 14.8417 15.5551C14.8492 15.5522 14.8565 15.5492 14.864 15.5462C14.8714 15.5433 14.8788 15.5404 14.8862 15.5374L14.9084 15.5282L14.9307 15.5187C14.938 15.5155 14.9456 15.5125 14.9529 15.5092C14.9604 15.5059 14.9677 15.5025 14.9751 15.4991L14.9973 15.4889L15.0196 15.4784C15.0271 15.4749 15.0344 15.4712 15.0418 15.4676C15.0492 15.4639 15.0568 15.4603 15.064 15.4566C15.0716 15.4528 15.0789 15.4489 15.0863 15.445C15.0937 15.4411 15.1012 15.4373 15.1085 15.4334C15.116 15.4294 15.1234 15.4253 15.1308 15.4212C15.1382 15.4171 15.1456 15.413 15.153 15.4088C15.1605 15.4046 15.1679 15.4003 15.1752 15.396C15.1827 15.3916 15.1901 15.3872 15.1975 15.3827C15.2049 15.3783 15.2124 15.3738 15.2197 15.3692C15.2272 15.3646 15.2346 15.3598 15.2419 15.3551C15.2494 15.3504 15.2569 15.3456 15.2642 15.3408C15.2717 15.3359 15.279 15.3308 15.2864 15.3258C15.2938 15.3207 15.3013 15.3157 15.3086 15.3105C15.3162 15.3052 15.3235 15.2998 15.3309 15.2945C15.3383 15.2891 15.3458 15.2837 15.3531 15.2782C15.3606 15.2726 15.368 15.2668 15.3753 15.2611C15.3828 15.2553 15.3903 15.2495 15.3976 15.2436C15.4051 15.2376 15.4125 15.2315 15.4198 15.2254C15.4273 15.2192 15.4347 15.2128 15.442 15.2065C15.4495 15.2001 15.457 15.1936 15.4643 15.1871C15.4718 15.1804 15.4791 15.1735 15.4865 15.1666C15.494 15.1597 15.5015 15.1528 15.5087 15.1457C15.5163 15.1385 15.5237 15.1311 15.531 15.1237C15.5385 15.1161 15.5459 15.1085 15.5532 15.1008C15.5607 15.093 15.5682 15.0851 15.5754 15.0772C15.583 15.0689 15.5903 15.0605 15.5977 15.0521C15.6052 15.0434 15.6126 15.0347 15.6199 15.026C15.6274 15.017 15.6349 15.0079 15.6422 14.9988C15.6497 14.9893 15.6571 14.9798 15.6644 14.9701C15.672 14.9601 15.6793 14.9499 15.6866 14.9397C15.6942 14.9291 15.7016 14.9184 15.7089 14.9076C15.7164 14.8964 15.7238 14.8851 15.7311 14.8737C15.7387 14.8618 15.7461 14.8498 15.7533 14.8377C15.7609 14.8249 15.7684 14.8121 15.7756 14.7991C15.7832 14.7853 15.7906 14.7715 15.7978 14.7576C15.8055 14.7426 15.8129 14.7276 15.82 14.7125C15.8277 14.6962 15.8351 14.6798 15.8423 14.6633C15.85 14.6453 15.8574 14.6272 15.8645 14.609C15.8723 14.5889 15.8797 14.5686 15.8867 14.5481C15.8947 14.5249 15.902 14.5015 15.909 14.4778C15.917 14.4502 15.9244 14.4223 15.9312 14.3941C15.9396 14.3591 15.947 14.3238 15.9534 14.288C15.963 14.2348 15.9703 14.1807 15.9757 14.1259C15.9831 14.0495 15.9868 13.9717 15.9868 13.8927V11.1734H15.9757H15.9534H15.9312H15.909H15.8867H15.8645H15.8423H15.82H15.7978H15.7756H15.7533H15.7311H15.7089H15.6866H15.6644H15.6422H15.6199H15.5977H15.5754H15.5532H15.531H15.5087H15.4865H15.4643H15.442H15.4198H15.3976H15.3753H15.3531H15.3309H15.3086H15.2864H15.2642H15.2419H15.2197H15.1975H15.1752H15.153H15.1308H15.1085H15.0863H15.064H15.0418H15.0196H14.9973H14.9751H14.9529H14.9307H14.9084H14.8862H14.864H14.8417H14.8195H14.7973H14.775H14.7528H14.7305H14.7083H14.6861H14.6638H14.6416H14.6194H14.5971H14.5749H14.5527H14.5304H14.5082H14.486H14.4637H14.4415H14.4193H14.397H14.3748H14.3526H14.3303H14.3081H14.2859H14.2636H14.2414H14.2191H14.1969H14.1747H14.1524H14.1302H14.108H14.0857H14.0635H14.0413H14.019H14.0022V13.8927C14.0022 13.9353 14.0004 13.9772 13.9968 14.0183C13.9923 14.0706 13.9848 14.1216 13.9746 14.1712C13.9682 14.2019 13.9608 14.2319 13.9523 14.2614C13.9456 14.285 13.9382 14.3081 13.9301 14.3308C13.9232 14.3502 13.9158 14.3693 13.9079 14.388C13.9008 14.4048 13.8934 14.4213 13.8856 14.4376C13.8785 14.4524 13.8712 14.467 13.8634 14.4814C13.8563 14.4947 13.8488 14.5076 13.8412 14.5205C13.834 14.5326 13.8266 14.5445 13.8189 14.5563C13.8117 14.5673 13.8043 14.5782 13.7967 14.5889C13.7895 14.5991 13.7821 14.6093 13.7745 14.6192C13.7672 14.6287 13.7598 14.6379 13.7522 14.6471C13.745 14.6559 13.7376 14.6646 13.73 14.6731C13.7227 14.6814 13.7153 14.6896 13.7078 14.6976C13.7005 14.7053 13.6931 14.7129 13.6855 14.7205C13.6782 14.7277 13.6708 14.7349 13.6633 14.742C13.656 14.7488 13.6486 14.7555 13.6411 14.7621C13.6338 14.7685 13.6263 14.7749 13.6188 14.7811C13.6115 14.7872 13.6041 14.7932 13.5966 14.7991C13.5893 14.8048 13.5818 14.8105 13.5744 14.8161C13.567 14.8215 13.5596 14.8269 13.5521 14.8322C13.5448 14.8373 13.5374 14.8424 13.5299 14.8474C13.5226 14.8523 13.5151 14.8571 13.5077 14.8618C13.5003 14.8664 13.4929 14.8709 13.4854 14.8754C13.4781 14.8798 13.4707 14.884 13.4632 14.8883C13.4559 14.8924 13.4484 14.8965 13.441 14.9005C13.4336 14.9044 13.4262 14.9082 13.4187 14.912C13.4114 14.9157 13.404 14.9194 13.3965 14.923C13.3891 14.9265 13.3817 14.93 13.3742 14.9334C13.3669 14.9368 13.3595 14.9401 13.352 14.9433C13.3447 14.9464 13.3372 14.9495 13.3298 14.9525C13.3224 14.9555 13.315 14.9584 13.3075 14.9612C13.3002 14.964 13.2928 14.9668 13.2853 14.9695C13.2779 14.9721 13.2705 14.9748 13.2631 14.9773C13.2557 14.9798 13.2483 14.9823 13.2408 14.9846C13.2335 14.987 13.226 14.9892 13.2186 14.9915C13.2112 14.9937 13.2038 14.9958 13.1964 14.9979C13.189 15 13.1816 15.0021 13.1741 15.004C13.1668 15.006 13.1594 15.0078 13.1519 15.0096C13.1445 15.0114 13.1371 15.0132 13.1297 15.0148C13.1223 15.0165 13.1149 15.0182 13.1074 15.0197C13.1001 15.0213 13.0927 15.0228 13.0852 15.0243C13.0778 15.0257 13.0704 15.027 13.063 15.0283C13.0556 15.0297 13.0482 15.031 13.0407 15.0322L13.0185 15.0356C13.0111 15.0367 13.0037 15.0377 12.9963 15.0387C12.9889 15.0397 12.9815 15.0407 12.974 15.0416L12.9518 15.0441C12.9444 15.0448 12.937 15.0455 12.9296 15.0462C12.9222 15.0469 12.9148 15.0476 12.9073 15.0482C12.9 15.0487 12.8925 15.0492 12.8851 15.0497C12.8777 15.0502 12.8703 15.0506 12.8628 15.051C12.8554 15.0514 12.8481 15.0518 12.8406 15.0521C12.8333 15.0524 12.8258 15.0526 12.8184 15.0528L12.7961 15.0533C12.7888 15.0535 12.7814 15.0535 12.7739 15.0536L12.7656 15.0536L12.7517 15.0536L12.7294 15.0534L12.7072 15.0531L12.685 15.0526L12.6627 15.052L12.6405 15.0513L12.6183 15.0504L12.596 15.0493L12.5738 15.0482L12.5516 15.0468L12.5293 15.0454L12.5071 15.0438L12.4849 15.042L12.4626 15.0401L12.4404 15.0381L12.4182 15.0359L12.3959 15.0336L12.3737 15.0312L12.3515 15.0286L12.3292 15.0259L12.307 15.023L12.2848 15.0201L12.2625 15.0169L12.2403 15.0136L12.2181 15.0102L12.1958 15.0067L12.1736 15.003L12.1514 14.9993L12.1291 14.9953L12.1069 14.9913L12.0847 14.9871L12.0624 14.9828L12.0402 14.9783L12.0179 14.9737L11.9957 14.969L11.9735 14.9642L11.9512 14.9592L11.929 14.9541L11.9068 14.9489L11.8845 14.9436L11.8623 14.9381L11.8401 14.9325L11.8178 14.9268L11.7956 14.921L11.7734 14.915L11.7511 14.9089L11.7289 14.9027L11.7067 14.8964L11.6844 14.89L11.6622 14.8834L11.64 14.8767L11.6177 14.8699L11.5955 14.863L11.5733 14.856L11.551 14.8488L11.5288 14.8415L11.5066 14.8342L11.4843 14.8266L11.4621 14.819L11.4399 14.8113L11.4176 14.8035L11.3954 14.7955L11.3732 14.7874L11.3509 14.7793L11.3287 14.771L11.3065 14.7626L11.2842 14.7541L11.262 14.7454L11.2398 14.7367L11.2175 14.7279L11.1953 14.7189L11.173 14.7099L11.1508 14.7007L11.1286 14.6915L11.1063 14.6821L11.0841 14.6726L11.0619 14.663L11.0396 14.6534L11.0174 14.6436L10.9952 14.6337L10.9729 14.6237L10.9507 14.6136L10.9285 14.6035L10.9062 14.5932L10.884 14.5828L10.8618 14.5723L10.8395 14.5617L10.8173 14.551V14.551V14.551Z" fill="url(#paint1_linear_112_1976)"/>
<path fill-rule="evenodd" clip-rule="evenodd" d="M17.2017 11.7676C17.1855 11.7809 17.1695 11.7943 17.1539 11.8079V8.73944C17.1539 8.57626 17.1704 8.41698 17.2017 8.26318C17.2084 8.23016 17.2158 8.19745 17.2239 8.16495C17.2308 8.13707 17.2383 8.10942 17.2461 8.08195C17.2532 8.05748 17.2606 8.03318 17.2684 8.00905C17.2755 7.987 17.2829 7.96507 17.2906 7.94332C17.2978 7.92316 17.3052 7.9031 17.3129 7.88321C17.3201 7.86461 17.3274 7.8461 17.3351 7.82773C17.3423 7.8104 17.3497 7.79319 17.3573 7.77607C17.3645 7.75981 17.372 7.74367 17.3796 7.72762C17.3868 7.71228 17.3942 7.6971 17.4018 7.68195C17.409 7.6674 17.4165 7.65296 17.424 7.63858C17.4313 7.62472 17.4387 7.61096 17.4463 7.59728C17.4536 7.58402 17.461 7.57082 17.4685 7.55773C17.4758 7.54502 17.4832 7.53236 17.4907 7.5198C17.498 7.50767 17.5054 7.49562 17.513 7.48363C17.5203 7.47197 17.5277 7.46044 17.5352 7.44893C17.5425 7.43766 17.5499 7.42647 17.5574 7.41535C17.5648 7.40444 17.5721 7.39352 17.5797 7.38276C17.587 7.37234 17.5944 7.36208 17.6019 7.35181C17.6093 7.34168 17.6167 7.33161 17.6242 7.32162C17.6315 7.31178 17.6389 7.30191 17.6464 7.2922C17.6537 7.28277 17.6612 7.27347 17.6686 7.26415C17.676 7.25495 17.6834 7.24578 17.6909 7.2367C17.6982 7.22774 17.7056 7.21882 17.7131 7.20999C17.7204 7.20136 17.7279 7.19285 17.7353 7.18434C17.7427 7.1759 17.7501 7.16742 17.7576 7.15908C17.7649 7.15093 17.7723 7.14286 17.7798 7.13482C17.7871 7.12687 17.7945 7.11898 17.802 7.11112C17.8094 7.10338 17.8168 7.09563 17.8243 7.08798C17.8316 7.08048 17.839 7.07308 17.8465 7.06567C17.8539 7.0583 17.8612 7.05088 17.8687 7.0436C17.8761 7.0365 17.8835 7.02956 17.891 7.02255C17.8983 7.01555 17.9057 7.00854 17.9132 7.00166C17.9205 6.99491 17.928 6.98827 17.9354 6.98162C17.9428 6.97498 17.9502 6.96836 17.9577 6.96184C17.965 6.95541 17.9725 6.94909 17.9799 6.94275C17.9873 6.93647 17.9947 6.93019 18.0021 6.92398C18.0095 6.91787 18.0169 6.91181 18.0244 6.90579C18.0318 6.89981 18.0392 6.89387 18.0466 6.88798C18.054 6.88217 18.0614 6.87641 18.0688 6.87068C18.0762 6.865 18.0836 6.85933 18.0911 6.85375C18.0984 6.8482 18.1059 6.84272 18.1133 6.83726C18.1207 6.83186 18.1281 6.82646 18.1355 6.82114C18.1429 6.81587 18.1503 6.81068 18.1578 6.80548C18.1652 6.80033 18.1726 6.79519 18.18 6.79013C18.1874 6.78512 18.1948 6.78019 18.2023 6.77526C18.2096 6.77035 18.217 6.76544 18.2245 6.76062C18.2319 6.75585 18.2393 6.7512 18.2467 6.74652C18.2541 6.74185 18.2615 6.73712 18.269 6.73255C18.2763 6.72801 18.2838 6.72362 18.2912 6.71918C18.2986 6.71474 18.306 6.7102 18.3134 6.70585C18.3208 6.70156 18.3283 6.69743 18.3357 6.69321C18.3431 6.68899 18.3504 6.68474 18.3579 6.68061C18.3653 6.67653 18.3727 6.67259 18.3801 6.66858C18.3875 6.66458 18.3949 6.66057 18.4024 6.65665L18.4246 6.64516L18.4469 6.63393C18.4542 6.63025 18.4616 6.62654 18.4691 6.62294C18.4765 6.61936 18.4839 6.61589 18.4913 6.61238C18.4987 6.6089 18.5061 6.6053 18.5135 6.60188C18.5209 6.59849 18.5284 6.5953 18.5358 6.592C18.5432 6.5887 18.5506 6.58535 18.558 6.58212C18.5654 6.57893 18.5728 6.57584 18.5802 6.57273L18.6025 6.5635C18.6099 6.56048 18.6173 6.55747 18.6247 6.55452C18.6321 6.5516 18.6395 6.54878 18.647 6.54594C18.6544 6.54309 18.6617 6.54014 18.6692 6.53737C18.6766 6.53463 18.684 6.53208 18.6914 6.52942C18.6988 6.52675 18.7062 6.52405 18.7137 6.52147C18.7211 6.51888 18.7285 6.5164 18.7359 6.51391L18.7581 6.50658C18.7655 6.50418 18.7729 6.50172 18.7804 6.49938C18.7878 6.49707 18.7952 6.4949 18.8026 6.49267C18.81 6.49042 18.8174 6.48811 18.8249 6.48594C18.8322 6.48378 18.8397 6.48177 18.8471 6.47969L18.8693 6.47356C18.8767 6.47157 18.8841 6.46955 18.8916 6.46764C18.8989 6.46574 18.9064 6.46396 18.9138 6.46212C18.9212 6.46029 18.9286 6.45837 18.936 6.45661C18.9434 6.45487 18.9509 6.45324 18.9583 6.45157L18.9805 6.44666C18.9879 6.44506 18.9953 6.44341 19.0027 6.44189C19.0101 6.44038 19.0176 6.43901 19.025 6.43756C19.0324 6.43612 19.0398 6.4346 19.0472 6.43323L19.0694 6.42933L19.0917 6.4256C19.0991 6.42438 19.1065 6.42309 19.1139 6.42194C19.1213 6.4208 19.1287 6.41984 19.1361 6.41878C19.1436 6.41773 19.151 6.41662 19.1584 6.41563L19.1806 6.41279L19.2028 6.41021C19.2103 6.40936 19.2177 6.40839 19.2251 6.40762C19.2325 6.40685 19.2399 6.40629 19.2473 6.40559L19.2696 6.40361C19.277 6.40297 19.2844 6.40235 19.2918 6.40181C19.2992 6.40126 19.3066 6.40083 19.314 6.40036C19.3214 6.3999 19.3288 6.39935 19.3363 6.39894C19.3437 6.39853 19.3511 6.39825 19.3585 6.39791L19.3807 6.39705C19.3882 6.39678 19.3955 6.39639 19.403 6.3962C19.4104 6.39601 19.4178 6.39603 19.4252 6.39592C19.4326 6.39581 19.44 6.39568 19.4475 6.39564L19.4573 6.39551H19.4697H19.4919H19.5142H19.5364H19.5586H19.5809H19.6031H19.6253H19.6476H19.6698H19.692H19.7143H19.7365H19.7587H19.781H19.8032H19.8254H19.8477H19.8699H19.8921H19.9144H19.9366H19.9589H19.9811H20.0033H20.0256H20.0478H20.0701H20.0923H20.1145H20.1368H20.159H20.1812H20.2035H20.2257H20.2479H20.2702H20.2924H20.3146H20.3369H20.3591H20.3813H20.4036H20.4258H20.448H20.4703H20.4925H20.5147H20.537H20.5592H20.5815H20.6037H20.6259H20.6482H20.6704H20.6926H20.7149H20.7371H20.7594H20.7816H20.8038H20.8261H20.8483H20.8705H20.8928H20.915H20.9372H20.9595H20.9817H21.0039H21.0262H21.0484H21.0706H21.0929H21.1151H21.1373H21.1596H21.1818H21.2041H21.2263H21.2485H21.2708H21.293H21.3152H21.3375H21.3597H21.3819H21.4042H21.4264H21.4487H21.4709H21.4931H21.5154H21.5376H21.5598H21.5821H21.6043H21.6265H21.6488H21.671H21.6932H21.7155H21.7377H21.7599H21.7822H21.8044H21.8266H21.8489H21.8711H21.8934H21.9156H21.9378H21.9601H21.9823H22.0045H22.0268H22.049H22.0712H22.0935H22.1157H22.138H22.1602H22.1824H22.2046H22.2269H22.2491H22.2714H22.2936H22.3158H22.3381H22.3603H22.3825H22.4048H22.427H22.4492H22.4715H22.4937H22.516H22.5382H22.5604H22.5827H22.6049H22.6271H22.6494H22.6716H22.6938H22.7161H22.7383H22.7605H22.7828H22.805H22.8272H22.8461V18.1143C22.8461 18.2162 22.8397 18.3165 22.8272 18.415C22.8213 18.4624 22.8138 18.5093 22.805 18.5558C22.7984 18.5912 22.791 18.6263 22.7828 18.6611C22.7759 18.6904 22.7685 18.7195 22.7605 18.7484C22.7535 18.7738 22.7461 18.7989 22.7383 18.8239C22.7312 18.8465 22.7238 18.8689 22.7161 18.8912C22.7089 18.9119 22.7015 18.9324 22.6938 18.9528C22.6866 18.9718 22.6793 18.9907 22.6716 19.0095C22.6644 19.0272 22.657 19.0448 22.6494 19.0622C22.6421 19.0788 22.6347 19.0953 22.6271 19.1116C22.6199 19.1273 22.6125 19.1428 22.6049 19.1582C22.5976 19.173 22.5902 19.1877 22.5827 19.2024C22.5754 19.2165 22.568 19.2305 22.5604 19.2444C22.5531 19.2579 22.5458 19.2713 22.5382 19.2846C22.5309 19.2974 22.5235 19.3101 22.516 19.3228C22.5087 19.335 22.5012 19.3472 22.4937 19.3593C22.4864 19.3711 22.479 19.3829 22.4715 19.3945C22.4641 19.4059 22.4568 19.4174 22.4492 19.4287C22.4419 19.4396 22.4345 19.4504 22.427 19.4612C22.4197 19.4718 22.4123 19.4822 22.4048 19.4927C22.3974 19.5029 22.39 19.5132 22.3825 19.5233C22.3752 19.5332 22.3678 19.543 22.3603 19.5527C22.353 19.5623 22.3455 19.5718 22.3381 19.5812C22.3307 19.5905 22.3234 19.5998 22.3158 19.609C22.3085 19.618 22.3011 19.6269 22.2936 19.6358C22.2862 19.6445 22.2788 19.6531 22.2714 19.6618C22.264 19.6703 22.2566 19.6788 22.2491 19.6872C22.2418 19.6954 22.2343 19.7035 22.2269 19.7116C22.2195 19.7197 22.2121 19.7277 22.2046 19.7357C22.1973 19.7435 22.1899 19.7511 22.1824 19.7588C22.1751 19.7664 22.1677 19.7739 22.1602 19.7814C22.1528 19.7888 22.1454 19.7962 22.138 19.8035C22.1306 19.8107 22.1232 19.8178 22.1157 19.8249C22.1083 19.8319 22.101 19.839 22.0935 19.8459C22.0861 19.8527 22.0787 19.8594 22.0712 19.8661C22.0638 19.8728 22.0565 19.8795 22.049 19.8861C22.0417 19.8926 22.0342 19.8989 22.0268 19.9053C22.0194 19.9116 22.012 19.918 22.0045 19.9243C21.9972 19.9304 21.9897 19.9364 21.9823 19.9424C21.9749 19.9485 21.9675 19.9546 21.9601 19.9605C21.9527 19.9664 21.9453 19.9721 21.9378 19.9778C21.9304 19.9836 21.9231 19.9893 21.9156 19.995C21.9082 20.0006 21.9008 20.006 21.8934 20.0115C21.886 20.0169 21.8786 20.0225 21.8711 20.0278C21.8638 20.0331 21.8563 20.0383 21.8489 20.0435C21.8415 20.0487 21.8341 20.054 21.8266 20.0591C21.8193 20.0641 21.8118 20.069 21.8044 20.074C21.797 20.0789 21.7897 20.084 21.7822 20.0888C21.7748 20.0936 21.7673 20.0982 21.7599 20.1029C21.7525 20.1076 21.7452 20.1124 21.7377 20.117C21.7303 20.1216 21.7229 20.126 21.7155 20.1304C21.7081 20.1349 21.7007 20.1394 21.6932 20.1438C21.6859 20.1481 21.6784 20.1524 21.671 20.1566L21.6488 20.1693L21.6265 20.1815L21.6043 20.1934C21.5969 20.1973 21.5895 20.2013 21.5821 20.2051C21.5747 20.2089 21.5673 20.2126 21.5598 20.2163C21.5524 20.2201 21.5451 20.2239 21.5376 20.2275C21.5302 20.2311 21.5228 20.2345 21.5154 20.2381C21.5079 20.2416 21.5006 20.2452 21.4931 20.2486C21.4857 20.252 21.4783 20.2553 21.4709 20.2587L21.4487 20.2685L21.4264 20.2781L21.4042 20.2873C21.3968 20.2904 21.3894 20.2935 21.3819 20.2965C21.3746 20.2994 21.3671 20.3022 21.3597 20.3051C21.3523 20.3079 21.3449 20.3109 21.3375 20.3137C21.3301 20.3164 21.3227 20.3191 21.3152 20.3218L21.293 20.3297L21.2708 20.3375C21.2634 20.34 21.2559 20.3424 21.2485 20.3448C21.2411 20.3472 21.2337 20.3498 21.2263 20.3521C21.2189 20.3545 21.2115 20.3566 21.2041 20.3589L21.1818 20.3656L21.1596 20.372C21.1522 20.3741 21.1448 20.3761 21.1373 20.3781C21.1299 20.3802 21.1226 20.3823 21.1151 20.3843C21.1077 20.3862 21.1003 20.3879 21.0929 20.3898C21.0855 20.3916 21.0781 20.3935 21.0706 20.3953L21.0484 20.4005L21.0262 20.4054C21.0187 20.407 21.0114 20.4088 21.0039 20.4103C20.9966 20.4119 20.9891 20.4132 20.9817 20.4147L20.9595 20.419L20.9372 20.4231C20.9298 20.4244 20.9224 20.4256 20.915 20.4268C20.9076 20.428 20.9002 20.4294 20.8928 20.4305C20.8854 20.4317 20.8779 20.4327 20.8705 20.4338L20.8483 20.4369C20.8409 20.438 20.8335 20.439 20.8261 20.4399C20.8187 20.4409 20.8112 20.4417 20.8038 20.4425C20.7964 20.4434 20.789 20.4443 20.7816 20.4451C20.7742 20.4459 20.7668 20.4466 20.7594 20.4473L20.7371 20.4493C20.7297 20.4499 20.7223 20.4507 20.7149 20.4513C20.7075 20.4518 20.7001 20.4522 20.6926 20.4527L20.6704 20.4541L20.6482 20.4553C20.6408 20.4557 20.6333 20.4559 20.6259 20.4562C20.6185 20.4565 20.6111 20.4568 20.6037 20.457C20.5963 20.4573 20.5889 20.4573 20.5815 20.4575L20.5592 20.4578C20.5523 20.4578 20.5454 20.458 20.5385 20.458H20.537H20.5147H20.4925H20.4703H20.448H20.4258H20.4036H20.3813H20.3591H20.3369H20.3146H20.2924H20.2702H20.2479H20.2257H20.2035H20.1812H20.159H20.1368H20.1145H20.0923H20.0701H20.0478H20.0256H20.0033H19.9811H19.9589H19.9366H19.9144H19.8921H19.8699H19.8477H19.8254H19.8032H19.781H19.7587H19.7365H19.7143H19.692H19.6698H19.6476H19.6253H19.6031H19.5809H19.5586H19.5364H19.5142H19.4919H19.4697H19.4475H19.4252H19.403H19.3807H19.3585H19.3363H19.314H19.2918H19.2696H19.2473H19.2251H19.2028H19.1806H19.1584H19.1361H19.1139H19.0917H19.0694H19.0472H19.025H19.0027H18.9805H18.9583H18.936H18.9138H18.8916H18.8693H18.8471H18.8249H18.8026H18.7804H18.7581H18.7359H18.7137H18.6914H18.6692H18.647H18.6247H18.6025H18.5802H18.558H18.5358H18.5135H18.4913H18.4691H18.4469H18.4246H18.4024H18.3801H18.3579H18.3357H18.3134H18.2912H18.269H18.2467H18.2245H18.2023H18.18H18.1578H18.1355H18.1133H18.0911H18.0688H18.0466H18.0244H18.0021H17.9799H17.9577H17.9354H17.9132H17.891H17.8687H17.8465H17.8243H17.802H17.7798H17.7576H17.7353H17.7131H17.6909H17.6686H17.6464H17.6242H17.6019H17.5797H17.5574H17.5352H17.513H17.4907H17.4685H17.4463H17.424H17.4018H17.3796H17.3573H17.3351H17.3129H17.2906H17.2684H17.2461H17.2239H17.2017H17.1539V15.0466C17.1695 15.0602 17.1855 15.0736 17.2017 15.0869C17.209 15.0929 17.2164 15.0989 17.2239 15.1049C17.2313 15.1108 17.2387 15.1166 17.2461 15.1225C17.2535 15.1282 17.2609 15.134 17.2684 15.1397C17.2757 15.1452 17.2832 15.1507 17.2906 15.1562C17.298 15.1617 17.3054 15.1671 17.3129 15.1725C17.3202 15.1778 17.3276 15.1831 17.3351 15.1883L17.3573 15.2038C17.3647 15.2089 17.3721 15.2139 17.3796 15.2189L17.4018 15.2336C17.4092 15.2384 17.4166 15.2432 17.424 15.248C17.4314 15.2527 17.4388 15.2574 17.4463 15.262L17.4685 15.2758C17.4759 15.2803 17.4833 15.2848 17.4907 15.2892C17.4981 15.2936 17.5055 15.2979 17.513 15.3022L17.5352 15.3151L17.5574 15.3276L17.5797 15.3398C17.5871 15.3438 17.5944 15.3479 17.6019 15.3518C17.6093 15.3558 17.6167 15.3596 17.6242 15.3635L17.6464 15.3749L17.6686 15.3862L17.6909 15.3971C17.6983 15.4007 17.7056 15.4043 17.7131 15.4079L17.7353 15.4183L17.7576 15.4286L17.7798 15.4386L17.802 15.4485L17.8243 15.4581L17.8465 15.4675L17.8687 15.4768L17.891 15.4858L17.9132 15.4947L17.9354 15.5033C17.9428 15.5062 17.9502 15.5091 17.9577 15.5119L17.9799 15.5201C17.9873 15.5228 17.9947 15.5256 18.0021 15.5283C18.0095 15.531 18.017 15.5336 18.0244 15.5362L18.0466 15.5441L18.0688 15.5516C18.0762 15.5541 18.0836 15.5567 18.0911 15.5592C18.0984 15.5616 18.1059 15.564 18.1133 15.5664L18.1355 15.5736L18.1578 15.5806L18.18 15.5875L18.2023 15.5942L18.2245 15.6008L18.2467 15.6072L18.269 15.6135L18.2912 15.6196L18.3134 15.6257L18.3357 15.6316L18.3579 15.6373L18.3801 15.643L18.4024 15.6485L18.4246 15.654L18.4469 15.6592L18.4691 15.6643L18.4913 15.6694L18.5135 15.6743L18.5358 15.6792L18.558 15.6838L18.5802 15.6885L18.6025 15.6929L18.6247 15.6973L18.647 15.7016L18.6692 15.7057L18.6914 15.7099L18.7137 15.7138L18.7359 15.7177L18.7581 15.7215L18.7804 15.7251L18.8026 15.7288L18.8249 15.7322L18.8471 15.7356L18.8693 15.7389L18.8916 15.7421L18.9138 15.7453L18.936 15.7483L18.9583 15.7513L18.9805 15.7542L19.0027 15.7569L19.025 15.7597L19.0472 15.7623L19.0694 15.7648L19.0917 15.7674L19.1139 15.7697L19.1361 15.772L19.1584 15.7743L19.1806 15.7764L19.2028 15.7785L19.2251 15.7805L19.2473 15.7824L19.2696 15.7843L19.2918 15.7861L19.314 15.7878L19.3363 15.7895L19.3585 15.791L19.3807 15.7925L19.403 15.794L19.4252 15.7953L19.4475 15.7967L19.4697 15.7979L19.4919 15.7991L19.5142 15.8002L19.5364 15.8013L19.5586 15.8022L19.5809 15.8031L19.6031 15.804L19.6253 15.8048L19.6476 15.8055L19.6698 15.8063L19.692 15.8068L19.7143 15.8074L19.7365 15.808L19.7587 15.8084L19.781 15.8087L19.8032 15.8091L19.8254 15.8093L19.8477 15.8096L19.8699 15.8098L19.8921 15.8099L19.9144 15.8099L19.9366 15.8099L19.9589 15.8099L19.9811 15.8097L20.0033 15.8096L20.0256 15.8094L20.0478 15.8091L20.0701 15.8088L20.0923 15.8085L20.1145 15.8081L20.1368 15.8076L20.159 15.8071L20.1812 15.8066L20.2035 15.8059L20.2257 15.8053L20.2479 15.8046L20.2702 15.8038L20.2924 15.8031L20.3146 15.8023L20.3369 15.8013L20.3591 15.8004L20.3813 15.7995L20.3922 15.799L20.4036 15.7984L20.4258 15.7973L20.448 15.7961L20.4703 15.7949L20.4925 15.7935L20.5147 15.7922L20.537 15.7906L20.5592 15.7891L20.5815 15.7874L20.6037 15.7857L20.6259 15.7839L20.6482 15.7821L20.6704 15.7802L20.6926 15.7782L20.7149 15.7761L20.7371 15.774L20.7594 15.7718L20.7816 15.7696L20.8038 15.7673L20.8261 15.7649L20.8483 15.7625L20.8705 15.76L20.8928 15.7574L20.915 15.7548L20.9372 15.7522L20.9595 15.7495L20.9817 15.7467L21.0039 15.7439L21.0262 15.741L21.0484 15.7381L21.0706 15.735L21.0929 15.732L21.1151 15.7289L21.1373 15.7258L21.1596 15.7226L21.1818 15.7193L21.2041 15.716L21.2263 15.7127L21.2485 15.7093L21.2708 15.7058L21.293 15.7023L21.3152 15.6988L21.3375 15.6952L21.3597 15.6916L21.3819 15.6879L21.4042 15.6841L21.4264 15.6804L21.4487 15.6765L21.4709 15.6727L21.4931 15.6688L21.5154 15.6648L21.5376 15.6608L21.5598 15.6567L21.5821 15.6527L21.6043 15.6485L21.6265 15.6444L21.6488 15.6401L21.671 15.6358L21.6932 15.6315L21.7155 15.6272L21.7377 15.6228L21.7599 15.6183L21.7822 15.6138L21.8044 15.6093L21.8266 15.6047L21.8489 15.6001L21.8711 15.5954L21.8934 15.5907L21.9156 15.586L21.9378 15.5811L21.9601 15.5763L21.9823 15.5714L22.0045 15.5664L22.0268 15.5614L22.049 15.5564L22.0712 15.5513L22.0935 15.5461L22.1157 15.5409L22.138 15.5355L22.1602 15.5302L22.1824 15.5247L22.2045 15.5192V14.5278L22.1824 14.5389L22.1602 14.5501L22.138 14.5611L22.1157 14.5721L22.0935 14.583L22.0712 14.5937L22.049 14.6043L22.0268 14.6149L22.0045 14.6253L21.9823 14.6356L21.9601 14.6458L21.9378 14.6558L21.9156 14.6658L21.8934 14.6756L21.8711 14.6853L21.8489 14.6949L21.8266 14.7044L21.8044 14.7138L21.7822 14.723L21.7599 14.7321L21.7377 14.7411L21.7155 14.75L21.6932 14.7587L21.671 14.7674L21.6488 14.7758L21.6265 14.7842L21.6043 14.7924L21.5821 14.8006L21.5598 14.8085L21.5376 14.8164L21.5154 14.8241L21.4931 14.8317L21.4709 14.8392L21.4487 14.8465L21.4264 14.8537L21.4042 14.8608L21.3819 14.8677L21.3597 14.8746L21.3375 14.8813L21.3152 14.8878L21.293 14.8943L21.2708 14.9006L21.2485 14.9068L21.2263 14.9128L21.2041 14.9187L21.1818 14.9245L21.1596 14.9302L21.1373 14.9357L21.1151 14.9412L21.0929 14.9465L21.0706 14.9516L21.0484 14.9566L21.0262 14.9616L21.0039 14.9663L20.9817 14.971L20.9595 14.9755L20.9372 14.9799L20.915 14.9842L20.8928 14.9883L20.8705 14.9924L20.8483 14.9963L20.8261 15L20.8038 15.0037L20.7816 15.0072L20.7594 15.0106L20.7371 15.0139L20.7149 15.0171L20.6926 15.0201L20.6704 15.0231L20.6482 15.0259L20.6259 15.0286L20.6037 15.0311L20.5815 15.0336L20.5592 15.0359L20.537 15.0381L20.5147 15.0402L20.4925 15.0422L20.4703 15.044L20.4568 15.0451L20.448 15.0457L20.4258 15.0472L20.4036 15.0487L20.3813 15.0499L20.3591 15.0511L20.3369 15.0521L20.3146 15.0528L20.2924 15.0536L20.2702 15.0541L20.2479 15.0544L20.2257 15.0547C20.2182 15.0547 20.2109 15.0546 20.2035 15.0546L20.1812 15.0545L20.159 15.0542L20.1368 15.0537L20.1145 15.0531C20.1071 15.0529 20.0997 15.0525 20.0923 15.0522C20.0849 15.0519 20.0774 15.0517 20.0701 15.0513L20.0478 15.05L20.0256 15.0487L20.0033 15.0471L19.9811 15.0453C19.9737 15.0447 19.9662 15.0442 19.9589 15.0435C19.9514 15.0428 19.944 15.042 19.9366 15.0412L19.9144 15.039L19.8921 15.0363L19.8699 15.0336L19.8477 15.0306L19.8254 15.0274C19.818 15.0263 19.8106 15.0252 19.8032 15.024C19.7958 15.0229 19.7884 15.0216 19.781 15.0203C19.7736 15.0191 19.7661 15.0179 19.7587 15.0166C19.7513 15.0152 19.7439 15.0137 19.7365 15.0123C19.7291 15.0109 19.7216 15.0096 19.7143 15.0081C19.7068 15.0066 19.6995 15.005 19.692 15.0034C19.6846 15.0018 19.6772 15.0003 19.6698 14.9986C19.6623 14.997 19.655 14.9952 19.6476 14.9934L19.6253 14.9881C19.6179 14.9863 19.6105 14.9844 19.6031 14.9824C19.5957 14.9805 19.5882 14.9786 19.5809 14.9766C19.5734 14.9746 19.566 14.9724 19.5586 14.9703C19.5512 14.9682 19.5437 14.9661 19.5364 14.9639C19.5289 14.9617 19.5215 14.9594 19.5142 14.9571C19.5067 14.9547 19.4993 14.9524 19.4919 14.95C19.4845 14.9476 19.4771 14.9451 19.4697 14.9425C19.4623 14.94 19.4548 14.9375 19.4475 14.9349C19.44 14.9322 19.4326 14.9295 19.4252 14.9267C19.4178 14.924 19.4103 14.9213 19.403 14.9184C19.3955 14.9155 19.3881 14.9125 19.3807 14.9096C19.3733 14.9066 19.3659 14.9036 19.3585 14.9006C19.351 14.8974 19.3437 14.8942 19.3363 14.8909C19.3288 14.8877 19.3214 14.8845 19.314 14.8812C19.3065 14.8778 19.2992 14.8742 19.2918 14.8707C19.2844 14.8672 19.2769 14.8637 19.2696 14.8601C19.2621 14.8564 19.2547 14.8527 19.2473 14.8489C19.2399 14.8451 19.2325 14.8412 19.2251 14.8373C19.2177 14.8333 19.2102 14.8294 19.2028 14.8254C19.1954 14.8212 19.188 14.8169 19.1806 14.8127C19.1732 14.8084 19.1657 14.8041 19.1584 14.7997C19.1509 14.7952 19.1435 14.7907 19.1361 14.7861C19.1287 14.7814 19.1213 14.7767 19.1139 14.7719C19.1065 14.7671 19.099 14.7623 19.0917 14.7574C19.0842 14.7523 19.0768 14.7471 19.0694 14.7419C19.062 14.7366 19.0546 14.7313 19.0472 14.7259C19.0397 14.7205 19.0323 14.715 19.025 14.7094C19.0175 14.7037 19.0101 14.6978 19.0027 14.6919C18.9953 14.686 18.9879 14.68 18.9805 14.6739C18.973 14.6677 18.9656 14.6615 18.9583 14.6551C18.9507 14.6486 18.9434 14.642 18.936 14.6353C18.9285 14.6285 18.9211 14.6216 18.9138 14.6146C18.9063 14.6075 18.8989 14.6003 18.8916 14.5931C18.8841 14.5857 18.8766 14.5782 18.8693 14.5706C18.8618 14.5628 18.8544 14.5548 18.8471 14.5468C18.8396 14.5385 18.8322 14.5302 18.8249 14.5218C18.8173 14.5131 18.8099 14.5044 18.8026 14.4955C18.7951 14.4864 18.7877 14.4772 18.7804 14.4679C18.7729 14.4582 18.7654 14.4485 18.7581 14.4386C18.7506 14.4284 18.7432 14.4181 18.7359 14.4077C18.7284 14.3968 18.7209 14.3859 18.7137 14.3747C18.7061 14.3631 18.6987 14.3514 18.6914 14.3395C18.6838 14.3271 18.6764 14.3145 18.6692 14.3017C18.6616 14.2883 18.6542 14.2747 18.647 14.261C18.6393 14.2464 18.6319 14.2316 18.6247 14.2167C18.6171 14.2008 18.6096 14.1847 18.6025 14.1684C18.5948 14.1509 18.5873 14.1332 18.5802 14.1152C18.5724 14.0953 18.5651 14.075 18.558 14.0545C18.5502 14.0318 18.5427 14.0088 18.5358 13.9854C18.5278 13.9583 18.5203 13.9307 18.5135 13.9027C18.5051 13.8678 18.4978 13.8321 18.4913 13.7958C18.4817 13.742 18.4743 13.6867 18.4691 13.6299C18.4631 13.5643 18.46 13.4967 18.46 13.4271C18.46 13.3576 18.4631 13.2899 18.4691 13.2243C18.4743 13.1674 18.4817 13.1121 18.4913 13.0583C18.4978 13.022 18.5051 12.9863 18.5135 12.9514C18.5203 12.9233 18.5278 12.8957 18.5358 12.8686C18.5427 12.8452 18.5502 12.8222 18.558 12.7994C18.5651 12.779 18.5724 12.7587 18.5802 12.7388C18.5873 12.7207 18.5948 12.703 18.6025 12.6855C18.6096 12.6692 18.6171 12.6531 18.6247 12.6372C18.6319 12.6222 18.6393 12.6074 18.647 12.5929C18.6542 12.5791 18.6616 12.5655 18.6692 12.5521C18.6764 12.5393 18.6838 12.5267 18.6914 12.5143C18.6987 12.5024 18.7061 12.4907 18.7137 12.479C18.7209 12.4679 18.7284 12.457 18.7359 12.4461C18.7432 12.4356 18.7506 12.4253 18.7581 12.4151C18.7654 12.4053 18.7729 12.3955 18.7804 12.3859C18.7877 12.3766 18.7951 12.3674 18.8026 12.3582C18.8099 12.3494 18.8173 12.3406 18.8249 12.332C18.8322 12.3235 18.8396 12.3152 18.8471 12.3069C18.8544 12.2989 18.8618 12.2909 18.8693 12.2831C18.8766 12.2755 18.8841 12.268 18.8916 12.2606C18.8989 12.2533 18.9063 12.2462 18.9138 12.2391C18.9211 12.2321 18.9285 12.2252 18.936 12.2184C18.9434 12.2117 18.9507 12.205 18.9583 12.1985C18.9656 12.1922 18.973 12.186 18.9805 12.1798C18.9879 12.1737 18.9953 12.1677 19.0027 12.1617C19.0101 12.1558 19.0175 12.15 19.025 12.1442C19.0323 12.1386 19.0397 12.1332 19.0472 12.1277C19.0546 12.1223 19.062 12.117 19.0694 12.1118C19.0768 12.1066 19.0842 12.1013 19.0917 12.0963C19.099 12.0913 19.1065 12.0865 19.1139 12.0817C19.1213 12.0769 19.1287 12.0722 19.1361 12.0675C19.1435 12.0629 19.1509 12.0584 19.1584 12.0539C19.1657 12.0495 19.1732 12.0452 19.1806 12.0409C19.188 12.0367 19.1954 12.0324 19.2028 12.0282C19.2102 12.0242 19.2177 12.0202 19.2251 12.0163C19.2325 12.0124 19.2399 12.0085 19.2473 12.0047C19.2547 12.0009 19.2621 11.9972 19.2696 11.9935C19.2769 11.9899 19.2844 11.9863 19.2918 11.9828C19.2992 11.9793 19.3065 11.9758 19.314 11.9724C19.3214 11.9691 19.3288 11.9659 19.3363 11.9626C19.3437 11.9594 19.351 11.9561 19.3585 11.953C19.3659 11.9499 19.3733 11.947 19.3807 11.944C19.3881 11.941 19.3955 11.938 19.403 11.9351C19.4103 11.9323 19.4178 11.9296 19.4252 11.9268C19.4326 11.9241 19.44 11.9213 19.4475 11.9187C19.4548 11.9161 19.4623 11.9135 19.4697 11.911C19.4771 11.9085 19.4845 11.906 19.4919 11.9035C19.4993 11.9011 19.5067 11.8988 19.5142 11.8965C19.5215 11.8942 19.5289 11.8919 19.5364 11.8897L19.5586 11.8832C19.566 11.8811 19.5734 11.879 19.5809 11.8769C19.5882 11.8749 19.5957 11.873 19.6031 11.8711C19.6105 11.8692 19.6179 11.8672 19.6253 11.8654L19.6476 11.8601C19.655 11.8583 19.6623 11.8566 19.6698 11.8549C19.6772 11.8532 19.6846 11.8517 19.692 11.8501C19.6995 11.8486 19.7068 11.8469 19.7143 11.8454C19.7216 11.8439 19.7291 11.8426 19.7365 11.8412C19.7439 11.8398 19.7513 11.8383 19.7587 11.8369C19.7661 11.8356 19.7736 11.8345 19.781 11.8332C19.7884 11.8319 19.7958 11.8306 19.8032 11.8295L19.8254 11.8261L19.8477 11.8229L19.8699 11.8199L19.8921 11.8172L19.9144 11.8145L19.9366 11.8123C19.944 11.8115 19.9514 11.8107 19.9589 11.81C19.9662 11.8093 19.9737 11.8088 19.9811 11.8082L20.0033 11.8064L20.0256 11.8048L20.0478 11.8035L20.0701 11.8022C20.0774 11.8018 20.0849 11.8016 20.0923 11.8013C20.0997 11.801 20.1071 11.8006 20.1145 11.8004L20.1368 11.7998L20.159 11.7993L20.1812 11.799L20.2035 11.7989C20.2109 11.7989 20.2182 11.7988 20.2257 11.7988L20.2479 11.7991L20.2702 11.7994L20.2924 11.7999L20.3146 11.8006L20.3369 11.8014L20.3591 11.8024L20.3813 11.8036L20.4036 11.8048L20.4258 11.8063L20.448 11.8078L20.4568 11.8084L20.4703 11.8095L20.4925 11.8113L20.5147 11.8132L20.537 11.8153L20.5592 11.8175L20.5815 11.8198L20.6037 11.8222L20.6259 11.8247L20.6482 11.8273L20.6704 11.8301L20.6926 11.833L20.7149 11.836L20.7371 11.8391L20.7594 11.8424L20.7816 11.8457L20.8038 11.8492L20.8261 11.8528L20.8483 11.8566L20.8705 11.8604L20.8928 11.8644L20.915 11.8685L20.9372 11.8728L20.9595 11.8771L20.9817 11.8816L21.0039 11.8862L21.0262 11.891L21.0484 11.8958L21.0706 11.9008L21.0929 11.9059L21.1151 11.9112L21.1373 11.9166L21.1596 11.9221L21.1818 11.9277L21.2041 11.9335L21.2263 11.9394L21.2485 11.9454L21.2708 11.9516L21.293 11.9579L21.3152 11.9643L21.3375 11.9709L21.3597 11.9776L21.3819 11.9844L21.4042 11.9913L21.4264 11.9984L21.4487 12.0056L21.4709 12.013L21.4931 12.0205L21.5154 12.0281L21.5376 12.0358L21.5598 12.0436L21.5821 12.0517L21.6043 12.0598L21.6265 12.0681L21.6488 12.0765L21.671 12.085L21.6932 12.0936L21.7155 12.1024L21.7377 12.1113L21.7599 12.1204L21.7822 12.1295L21.8044 12.1388L21.8266 12.1483L21.8489 12.1578L21.8711 12.1675L21.8934 12.1773L21.9156 12.1872L21.9378 12.1972L21.9601 12.2074L21.9823 12.2176L22.0045 12.228L22.0268 12.2385L22.049 12.2492L22.0712 12.2599L22.0935 12.2707L22.1157 12.2817L22.138 12.2927L22.1602 12.3039L22.1824 12.3152L22.2045 12.3264V11.3343L22.1824 11.3287L22.1602 11.3233L22.138 11.3179L22.1157 11.3126L22.0935 11.3074L22.0712 11.3023L22.049 11.2971L22.0268 11.2921L22.0045 11.2871L21.9823 11.2821L21.9601 11.2772L21.9378 11.2724L21.9156 11.2675L21.8934 11.2628L21.8711 11.2581L21.8489 11.2534L21.8266 11.2488L21.8044 11.2442L21.7822 11.2397L21.7599 11.2352L21.7377 11.2308L21.7155 11.2264L21.6932 11.222L21.671 11.2177L21.6488 11.2134L21.6265 11.2092L21.6043 11.205L21.5821 11.2009L21.5598 11.1968L21.5376 11.1928L21.5154 11.1888L21.4931 11.1848L21.4709 11.1809L21.4487 11.1771L21.4264 11.1732L21.4042 11.1695L21.3819 11.1657L21.3597 11.1621L21.3375 11.1584L21.3152 11.1548L21.293 11.1513L21.2708 11.1478L21.2485 11.1444L21.2263 11.141L21.2041 11.1376L21.1818 11.1343L21.1596 11.1311L21.1373 11.1279L21.1151 11.1248L21.0929 11.1217L21.0706 11.1187L21.0484 11.1157L21.0262 11.1127L21.0039 11.1099L20.9817 11.107L20.9595 11.1043L20.9372 11.1016L20.915 11.0989L20.8928 11.0963L20.8705 11.0938L20.8483 11.0913L20.8261 11.0889L20.8038 11.0865L20.7816 11.0842L20.7594 11.082L20.7371 11.0798L20.7149 11.0777L20.6926 11.0757L20.6704 11.0737L20.6482 11.0718L20.6259 11.0699L20.6037 11.0681L20.5815 11.0665L20.5592 11.0648L20.537 11.0633L20.5147 11.0618L20.4925 11.0604L20.4703 11.0591L20.448 11.0578L20.4258 11.0566L20.4036 11.0555L20.3922 11.055L20.3813 11.0545L20.3591 11.0536L20.3369 11.0527L20.3146 11.0517L20.2924 11.0509L20.2702 11.0502L20.2479 11.0494L20.2257 11.0487L20.2035 11.0481L20.1812 11.0474L20.159 11.0469L20.1368 11.0464L20.1145 11.0459L20.0923 11.0455L20.0701 11.0452L20.0478 11.0449L20.0256 11.0446L20.0033 11.0444L19.9811 11.0443L19.9589 11.0441L19.9366 11.0441L19.9144 11.0441L19.8921 11.0442L19.8699 11.0442L19.8477 11.0444L19.8254 11.0447L19.8032 11.0449L19.781 11.0453L19.7587 11.0457L19.7365 11.0461L19.7143 11.0466L19.692 11.0472L19.6698 11.0477L19.6476 11.0485L19.6253 11.0492L19.6031 11.05L19.5809 11.0509L19.5586 11.0518L19.5364 11.0528L19.5142 11.0539L19.4919 11.055L19.4697 11.0561L19.4475 11.0574L19.4252 11.0587L19.403 11.06L19.3807 11.0615L19.3585 11.063L19.3363 11.0645L19.314 11.0663L19.2918 11.068L19.2696 11.0697L19.2473 11.0717L19.2251 11.0735L19.2028 11.0756L19.1806 11.0777L19.1584 11.0798L19.1361 11.082L19.1139 11.0844L19.0917 11.0867L19.0694 11.0892L19.0472 11.0918L19.025 11.0944L19.0027 11.0971L18.9805 11.0999L18.9583 11.1028L18.936 11.1058L18.9138 11.1088L18.8916 11.1119L18.8693 11.1151L18.8471 11.1184L18.8249 11.1219L18.8026 11.1253L18.7804 11.129L18.7581 11.1327L18.7359 11.1364L18.7137 11.1403L18.6914 11.1442L18.6692 11.1484L18.647 11.1526L18.6247 11.1568L18.6025 11.1612L18.5802 11.1657L18.558 11.1703L18.5358 11.175L18.5135 11.1798L18.4913 11.1848L18.4691 11.1898L18.4469 11.195L18.4246 11.2002L18.4024 11.2057L18.3801 11.2111L18.3579 11.2168L18.3357 11.2226L18.3134 11.2285L18.2912 11.2345L18.269 11.2407L18.2467 11.247L18.2245 11.2534L18.2023 11.26L18.18 11.2667L18.1578 11.2736L18.1355 11.2806L18.1133 11.2878C18.1059 11.2902 18.0984 11.2926 18.0911 11.2951L18.0688 11.3026C18.0614 11.3051 18.054 11.3076 18.0466 11.3102L18.0244 11.318L18.0021 11.3259C17.9947 11.3286 17.9873 11.3314 17.9799 11.3341C17.9725 11.3369 17.965 11.3396 17.9577 11.3424L17.9354 11.3509C17.928 11.3538 17.9205 11.3566 17.9132 11.3595L17.891 11.3685L17.8687 11.3775L17.8465 11.3867L17.8243 11.3961L17.802 11.4058L17.7798 11.4156L17.7576 11.4257L17.7353 11.436L17.7131 11.4464C17.7056 11.45 17.6983 11.4536 17.6909 11.4572L17.6686 11.4681L17.6464 11.4794L17.6242 11.4909C17.6167 11.4947 17.6093 11.4986 17.6019 11.5025C17.5944 11.5065 17.5871 11.5105 17.5797 11.5146L17.5574 11.5268L17.5352 11.5393C17.5277 11.5435 17.5203 11.5478 17.513 11.5521C17.5055 11.5565 17.4981 11.5608 17.4907 11.5652C17.4833 11.5696 17.4759 11.5741 17.4685 11.5786C17.461 11.5832 17.4536 11.5878 17.4463 11.5924C17.4388 11.597 17.4314 11.6017 17.424 11.6064C17.4166 11.6111 17.4092 11.616 17.4018 11.6208L17.3796 11.6356C17.3721 11.6406 17.3647 11.6455 17.3573 11.6506L17.3351 11.6661C17.3276 11.6714 17.3202 11.6767 17.3129 11.682C17.3054 11.6873 17.298 11.6928 17.2906 11.6982C17.2832 11.7037 17.2757 11.7092 17.2684 11.7148C17.2609 11.7205 17.2535 11.7262 17.2461 11.732C17.2387 11.7378 17.2313 11.7437 17.2239 11.7496C17.2164 11.7555 17.209 11.7615 17.2017 11.7676V11.7676V11.7676Z" fill="url(#paint2_linear_112_1976)"/>
<defs>
<linearGradient id="paint0_linear_112_1976" x1="23.5383" y1="13.4268" x2="29.2309" y2="13.4268" gradientUnits="userSpaceOnUse">
<stop stop-color="#007B40"/>
<stop offset="1" stop-color="#55B330"/>
</linearGradient>
<linearGradient id="paint1_linear_112_1976" x1="10.7695" y1="13.4268" x2="16.4615" y2="13.4268" gradientUnits="userSpaceOnUse">
<stop stop-color="#1D2970"/>
<stop offset="1" stop-color="#006DBA"/>
</linearGradient>
<linearGradient id="paint2_linear_112_1976" x1="17.1539" y1="13.4268" x2="22.8461" y2="13.4268" gradientUnits="userSpaceOnUse">
<stop stop-color="#6E2B2F"/>
<stop offset="1" stop-color="#E30138"/>
</linearGradient>
</defs>
</svg>
