<svg width="40" height="27" viewBox="0 0 40 27" fill="none" xmlns="http://www.w3.org/2000/svg">
<rect y="0.426758" width="40" height="26" rx="2.51813" fill="#F4F5FF"/>
<path d="M23.4991 19.8156H16.4998V7.04004H23.4991V19.8156Z" fill="#6C6BBD"/>
<path d="M16.9481 13.4268C16.9481 10.8352 18.1429 8.52665 20.0034 7.03895C18.6428 5.95108 16.9258 5.30176 15.0597 5.30176C10.6418 5.30176 7.06067 8.93939 7.06067 13.4268C7.06067 17.9141 10.6418 21.5518 15.0597 21.5518C16.9258 21.5518 18.6428 20.9024 20.0034 19.8146C18.1429 18.3269 16.9481 16.0183 16.9481 13.4268Z" fill="#EB001B"/>
<path d="M32.9391 13.4268C32.9391 17.9141 29.3579 21.5518 24.9401 21.5518C23.074 21.5518 21.3569 20.9024 19.9958 19.8146C21.8569 18.3269 23.0516 16.0183 23.0516 13.4268C23.0516 10.8352 21.8569 8.52665 19.9958 7.03895C21.3569 5.95108 23.074 5.30176 24.9401 5.30176C29.3579 5.30176 32.9391 8.93939 32.9391 13.4268Z" fill="#0099DF"/>
<path d="M27.2122 12.0376C27.3267 12.0376 27.4914 12.0599 27.6172 12.1101L27.4419 12.6542C27.3217 12.604 27.2016 12.5875 27.0864 12.5875C26.7146 12.5875 26.5287 12.8316 26.5287 13.2702V14.759H25.9598V12.1044H26.5231V12.4267C26.6708 12.1934 26.8842 12.0376 27.2122 12.0376V12.0376ZM25.1104 12.632H24.181V13.8315C24.181 14.0979 24.2736 14.2758 24.5584 14.2758C24.7061 14.2758 24.892 14.2256 25.061 14.1258L25.225 14.6197C25.0447 14.7475 24.7606 14.8257 24.5146 14.8257C23.8417 14.8257 23.607 14.4589 23.607 13.8423V12.632H23.0763V12.1044H23.607V11.299H24.181V12.1044H25.1104V12.632ZM17.8319 13.1984C17.8926 12.8151 18.1217 12.5538 18.5266 12.5538C18.8928 12.5538 19.1281 12.7871 19.1882 13.1984H17.8319ZM19.779 13.4317C19.7734 12.604 19.2702 12.0376 18.5373 12.0376C17.7718 12.0376 17.236 12.604 17.236 13.4317C17.236 14.2752 17.7937 14.8251 18.5761 14.8251C18.9698 14.8251 19.3303 14.7253 19.6476 14.4532L19.3685 14.0254C19.15 14.2034 18.8709 14.3032 18.6086 14.3032C18.2425 14.3032 17.9089 14.1309 17.8269 13.6535H19.7678C19.7734 13.5811 19.779 13.5092 19.779 13.4317V13.4317ZM22.2776 12.782C22.1193 12.6816 21.7969 12.5538 21.4633 12.5538C21.1516 12.5538 20.9657 12.6708 20.9657 12.8653C20.9657 13.0426 21.1623 13.0928 21.4083 13.1259L21.6761 13.1647C22.2451 13.2486 22.5893 13.4927 22.5893 13.9593C22.5893 14.4646 22.1518 14.8257 21.3976 14.8257C20.9707 14.8257 20.5771 14.7145 20.2654 14.4812L20.5332 14.0311C20.7248 14.1811 21.0096 14.3089 21.4032 14.3089C21.7913 14.3089 21.9991 14.1926 21.9991 13.9866C21.9991 13.8372 21.8514 13.7533 21.5397 13.7095L21.2718 13.6707C20.6866 13.5868 20.3693 13.3204 20.3693 12.8875C20.3693 12.3599 20.7961 12.0376 21.4577 12.0376C21.8733 12.0376 22.2507 12.1323 22.5236 12.3154L22.2776 12.782ZM29.2908 12.5862C29.1738 12.5862 29.0655 12.6072 28.9647 12.6485C28.8646 12.6905 28.7776 12.7489 28.7043 12.824C28.6311 12.899 28.5735 12.9892 28.5316 13.0941C28.4897 13.199 28.469 13.3147 28.469 13.4406C28.469 13.5671 28.4897 13.6821 28.5316 13.787C28.5735 13.8919 28.6311 13.9822 28.7043 14.0572C28.7776 14.1322 28.8646 14.1907 28.9647 14.2326C29.0655 14.2746 29.1738 14.2949 29.2908 14.2949C29.4079 14.2949 29.5168 14.2746 29.6169 14.2326C29.7177 14.1907 29.8053 14.1322 29.8785 14.0572C29.953 13.9822 30.0106 13.8919 30.0532 13.787C30.0951 13.6821 30.1157 13.5671 30.1157 13.4406C30.1157 13.3147 30.0951 13.199 30.0532 13.0941C30.0106 12.9892 29.953 12.899 29.8785 12.824C29.8053 12.7489 29.7177 12.6905 29.6169 12.6485C29.5168 12.6072 29.4079 12.5862 29.2908 12.5862V12.5862ZM29.2908 12.0376C29.4936 12.0376 29.6814 12.0732 29.8541 12.1451C30.0269 12.2163 30.1765 12.3148 30.3023 12.44C30.4287 12.5652 30.527 12.7134 30.5983 12.8837C30.6697 13.0547 30.7053 13.2403 30.7053 13.4406C30.7053 13.6408 30.6697 13.8264 30.5983 13.9974C30.527 14.1678 30.4287 14.3165 30.3023 14.4418C30.1765 14.567 30.0269 14.6649 29.8541 14.7367C29.6814 14.8079 29.4936 14.8435 29.2908 14.8435C29.088 14.8435 28.9002 14.8079 28.7275 14.7367C28.5548 14.6649 28.4064 14.567 28.2812 14.4418C28.1561 14.3165 28.0578 14.1678 27.9864 13.9974C27.9151 13.8264 27.8794 13.6408 27.8794 13.4406C27.8794 13.2403 27.9151 13.0547 27.9864 12.8837C28.0578 12.7134 28.1561 12.5652 28.2812 12.44C28.4064 12.3148 28.5548 12.2163 28.7275 12.1451C28.9002 12.0732 29.088 12.0376 29.2908 12.0376V12.0376ZM14.5096 13.4317C14.5096 12.9651 14.8107 12.5818 15.3026 12.5818C15.7727 12.5818 16.09 12.9486 16.09 13.4317C16.09 13.9148 15.7727 14.2809 15.3026 14.2809C14.8107 14.2809 14.5096 13.8983 14.5096 13.4317V13.4317ZM16.6258 13.4317V12.1044H16.0575V12.4267C15.8766 12.1876 15.6037 12.0376 15.2319 12.0376C14.499 12.0376 13.925 12.6205 13.925 13.4317C13.925 14.2422 14.499 14.8257 15.2319 14.8257C15.6037 14.8257 15.8766 14.6757 16.0575 14.4367V14.759H16.6258V13.4317ZM13.4218 14.759V13.0928C13.4218 12.4654 13.0281 12.0433 12.3941 12.0376C12.0605 12.0319 11.7156 12.1374 11.4753 12.5099C11.295 12.2156 11.0102 12.0376 10.6109 12.0376C10.3324 12.0376 10.0588 12.1209 9.84542 12.4317V12.1044H9.2771V14.759H9.85105V13.2874C9.85105 12.8265 10.1027 12.5818 10.4907 12.5818C10.8681 12.5818 11.0597 12.8316 11.0597 13.2816V14.759H11.6336V13.2874C11.6336 12.8265 11.8965 12.5818 12.2733 12.5818C12.662 12.5818 12.8478 12.8316 12.8478 13.2816V14.759H13.4218Z" fill="white"/>
</svg>
