<svg width="40" height="27" viewBox="0 0 40 27" fill="none" xmlns="http://www.w3.org/2000/svg">
<rect y="0.426758" width="40" height="26" rx="2.51813" fill="#F4F5FF"/>
<path d="M23.4909 19.8166H16.4916V7.04102H23.4909V19.8166Z" fill="#FF5F00"/>
<path d="M16.94 13.4277C16.94 10.8361 18.1347 8.52763 19.9952 7.03993C18.6347 5.95205 16.9176 5.30273 15.0515 5.30273C10.6336 5.30273 7.05249 8.94036 7.05249 13.4277C7.05249 17.9151 10.6336 21.5527 15.0515 21.5527C16.9176 21.5527 18.6347 20.9034 19.9952 19.8155C18.1347 18.3278 16.94 16.0193 16.94 13.4277Z" fill="#EB001B"/>
<path d="M32.9309 13.4277C32.9309 17.9151 29.3497 21.5527 24.9319 21.5527C23.0658 21.5527 21.3487 20.9034 19.9877 19.8155C21.8487 18.3278 23.0434 16.0193 23.0434 13.4277C23.0434 10.8361 21.8487 8.52763 19.9877 7.03993C21.3487 5.95205 23.0658 5.30273 24.9319 5.30273C29.3497 5.30273 32.9309 8.94036 32.9309 13.4277Z" fill="#F79E1B"/>
<path d="M13.0715 13.4792C13.0715 13.1243 13.3005 12.8328 13.6747 12.8328C14.0322 12.8328 14.2736 13.1117 14.2736 13.4792C14.2736 13.8467 14.0322 14.1257 13.6747 14.1257C13.3005 14.1257 13.0715 13.8341 13.0715 13.4792ZM14.6811 13.4792V12.4696H14.2488V12.7148C14.1117 12.533 13.9037 12.4189 13.6209 12.4189C13.0634 12.4189 12.6264 12.8627 12.6264 13.4792C12.6264 14.0962 13.0634 14.5396 13.6209 14.5396C13.9037 14.5396 14.1117 14.4254 14.2488 14.2436V14.4888H14.6811V13.4792ZM29.289 13.4792C29.289 13.1243 29.5179 12.8328 29.8921 12.8328C30.2501 12.8328 30.491 13.1117 30.491 13.4792C30.491 13.8467 30.2501 14.1257 29.8921 14.1257C29.5179 14.1257 29.289 13.8341 29.289 13.4792ZM30.899 13.4792V11.6588H30.4663V12.7148C30.3292 12.533 30.1211 12.4189 29.8383 12.4189C29.2809 12.4189 28.8438 12.8627 28.8438 13.4792C28.8438 14.0962 29.2809 14.5396 29.8383 14.5396C30.1211 14.5396 30.3292 14.4254 30.4663 14.2436V14.4888H30.899V13.4792ZM20.0469 12.812C20.3254 12.812 20.5044 12.9894 20.5501 13.3018H19.5185C19.5647 13.0102 19.7389 12.812 20.0469 12.812ZM20.0555 12.4189C19.4728 12.4189 19.0653 12.8497 19.0653 13.4792C19.0653 14.1213 19.4895 14.5396 20.0845 14.5396C20.384 14.5396 20.6582 14.4636 20.8996 14.2567L20.6877 13.9313C20.5211 14.0662 20.3088 14.1426 20.1093 14.1426C19.8308 14.1426 19.5771 14.0116 19.5147 13.648H20.991C20.9953 13.5933 20.9996 13.5382 20.9996 13.4792C20.9953 12.8497 20.6125 12.4189 20.0555 12.4189ZM25.2752 13.4792C25.2752 13.1243 25.5042 12.8328 25.8784 12.8328C26.2359 12.8328 26.4773 13.1117 26.4773 13.4792C26.4773 13.8467 26.2359 14.1257 25.8784 14.1257C25.5042 14.1257 25.2752 13.8341 25.2752 13.4792ZM26.8848 13.4792V12.4696H26.4525V12.7148C26.3149 12.533 26.1074 12.4189 25.8246 12.4189C25.2671 12.4189 24.83 12.8627 24.83 13.4792C24.83 14.0962 25.2671 14.5396 25.8246 14.5396C26.1074 14.5396 26.3149 14.4254 26.4525 14.2436V14.4888H26.8848V13.4792ZM22.8339 13.4792C22.8339 14.0918 23.2538 14.5396 23.8946 14.5396C24.194 14.5396 24.3935 14.4719 24.6096 14.2988L24.4021 13.9439C24.2397 14.0623 24.0693 14.1257 23.8817 14.1257C23.5366 14.1213 23.2828 13.868 23.2828 13.4792C23.2828 13.0905 23.5366 12.8371 23.8817 12.8328C24.0693 12.8328 24.2397 12.8961 24.4021 13.0146L24.6096 12.6597C24.3935 12.4866 24.194 12.4189 23.8946 12.4189C23.2538 12.4189 22.8339 12.8666 22.8339 13.4792ZM28.4073 12.4189C28.1578 12.4189 27.9955 12.5373 27.8831 12.7148V12.4696H27.4546V14.4888H27.8874V13.3569C27.8874 13.0228 28.0288 12.8371 28.3116 12.8371C28.3992 12.8371 28.4906 12.8497 28.582 12.8879L28.7153 12.474C28.6196 12.4358 28.4949 12.4189 28.4073 12.4189ZM16.8192 12.6302C16.6111 12.4909 16.3245 12.4189 16.0084 12.4189C15.5047 12.4189 15.1805 12.664 15.1805 13.0653C15.1805 13.3946 15.4219 13.5977 15.8665 13.661L16.0708 13.6905C16.3079 13.7243 16.4197 13.7877 16.4197 13.9018C16.4197 14.058 16.2617 14.1469 15.9665 14.1469C15.6671 14.1469 15.4509 14.0498 15.3052 13.9356L15.1015 14.2775C15.3386 14.4549 15.638 14.5396 15.9622 14.5396C16.5364 14.5396 16.8692 14.2649 16.8692 13.8805C16.8692 13.5256 16.6073 13.34 16.1746 13.2766L15.9708 13.2466C15.7837 13.2215 15.6337 13.1838 15.6337 13.0484C15.6337 12.9004 15.7751 12.812 16.0122 12.812C16.266 12.812 16.5116 12.9091 16.6321 12.9851L16.8192 12.6302ZM22.3968 12.4189C22.1474 12.4189 21.985 12.5373 21.8732 12.7148V12.4696H21.4447V14.4888H21.877V13.3569C21.877 13.0228 22.0184 12.8371 22.3011 12.8371C22.3887 12.8371 22.4802 12.8497 22.5716 12.8879L22.7049 12.474C22.6092 12.4358 22.4844 12.4189 22.3968 12.4189ZM18.7077 12.4696H18.0008V11.857H17.5637V12.4696H17.1605V12.871H17.5637V13.792C17.5637 14.2606 17.7427 14.5396 18.254 14.5396C18.4416 14.5396 18.6578 14.4806 18.7949 14.3834L18.6701 14.0072C18.5411 14.0831 18.3997 14.1213 18.2874 14.1213C18.0712 14.1213 18.0008 13.9859 18.0008 13.7833V12.871H18.7077V12.4696ZM12.2441 14.4888V13.2215C12.2441 12.7443 11.9446 12.4232 11.4619 12.4189C11.2082 12.4145 10.9463 12.4948 10.763 12.7781C10.6259 12.5543 10.4098 12.4189 10.1061 12.4189C9.89372 12.4189 9.68616 12.4822 9.52382 12.7186V12.4696H9.09106V14.4888H9.52762V13.3695C9.52762 13.0189 9.719 12.8328 10.0146 12.8328C10.3017 12.8328 10.4469 13.0228 10.4469 13.3651V14.4888H10.884V13.3695C10.884 13.0189 11.0834 12.8328 11.3705 12.8328C11.6657 12.8328 11.8071 13.0228 11.8071 13.3651V14.4888H12.2441Z" fill="white"/>
</svg>
