<svg width="40" height="27" viewBox="0 0 40 27" fill="none" xmlns="http://www.w3.org/2000/svg">
<rect y="0.426758" width="40" height="26" rx="2.51813" fill="#F4F5FF"/>
<path d="M12.2201 5.30176H18.6044C19.4956 5.30176 20.0499 6.0395 19.842 6.94762L16.8696 19.9084C16.6599 20.8134 15.7676 21.5518 14.8758 21.5518H8.49213C7.60219 21.5518 7.04665 20.8134 7.25455 19.9084L10.2281 6.94762C10.436 6.0395 11.3278 5.30176 12.2201 5.30176Z" fill="#E21836"/>
<path d="M18.0732 5.30176H25.4149C26.306 5.30176 25.9042 6.0395 25.6946 6.94762L22.7227 19.9084C22.5142 20.8134 22.5792 21.5518 21.6863 21.5518H14.3446C13.4517 21.5518 12.8991 20.8134 13.1088 19.9084L16.0806 6.94762C16.2916 6.0395 17.1815 5.30176 18.0732 5.30176Z" fill="#00447C"/>
<path d="M25.1237 5.30176H31.5079C32.4004 5.30176 32.9547 6.0395 32.7451 6.94762L29.7732 19.9084C29.5634 20.8134 28.6705 21.5518 27.7782 21.5518H21.3969C20.504 21.5518 19.9502 20.8134 20.1593 19.9084L23.1317 6.94762C23.3396 6.0395 24.2308 5.30176 25.1237 5.30176Z" fill="#007B84"/>
<path d="M13.8874 9.45526C13.2309 9.46205 13.037 9.45526 12.975 9.4404C12.9512 9.5553 12.5082 11.6309 12.507 11.6326C12.4116 12.0525 12.3422 12.3519 12.1064 12.5452C11.9726 12.6575 11.8164 12.7117 11.6352 12.7117C11.3441 12.7117 11.1745 12.5649 11.146 12.2864L11.1405 12.1908C11.1405 12.1908 11.2292 11.6284 11.2292 11.6252C11.2292 11.6252 11.6942 9.73373 11.7775 9.48371C11.7818 9.46948 11.7831 9.46205 11.7842 9.45526C10.8791 9.46332 10.7187 9.45526 10.7076 9.4404C10.7016 9.46079 10.6792 9.57806 10.6792 9.57806L10.2044 11.7099L10.1636 11.8907L10.0847 12.4821C10.0847 12.6575 10.1186 12.8007 10.1862 12.9218C10.4025 13.3057 11.0195 13.3632 11.3685 13.3632C11.8182 13.3632 12.2401 13.2662 12.5252 13.089C13.02 12.792 13.1495 12.3279 13.265 11.9154L13.3185 11.7037C13.3185 11.7037 13.7975 9.73926 13.8788 9.48371C13.882 9.46948 13.8832 9.46205 13.8874 9.45526ZM15.5171 11.04C15.4016 11.04 15.1906 11.0685 15.0011 11.1628C14.9323 11.1987 14.8672 11.2401 14.7986 11.2814L14.8606 11.0542L14.8266 11.016C14.4247 11.0987 14.3347 11.1097 13.9634 11.1628L13.9323 11.1838C13.8892 11.5469 13.8509 11.8198 13.6911 12.5334C13.6303 12.7964 13.5671 13.0619 13.5038 13.3242L13.5209 13.3576C13.9014 13.3372 14.0168 13.3372 14.3475 13.3427L14.3743 13.3132C14.4163 13.0946 14.4217 13.0434 14.5148 12.6007C14.5585 12.3908 14.6497 11.9296 14.6947 11.7654C14.7773 11.7266 14.8588 11.6883 14.9366 11.6883C15.122 11.6883 15.0994 11.8525 15.0923 11.9179C15.0843 12.0278 15.0168 12.3865 14.9475 12.6946L14.9013 12.8934C14.8691 13.0402 14.8338 13.1829 14.8016 13.3285L14.8156 13.3576C15.1906 13.3372 15.305 13.3372 15.6252 13.3427L15.6629 13.3132C15.7208 12.9718 15.7377 12.8804 15.8404 12.3834L15.8921 12.155C15.9925 11.7081 16.0429 11.4814 15.9669 11.2968C15.8867 11.09 15.694 11.04 15.5171 11.04ZM17.3376 11.508C17.1383 11.5468 17.0111 11.5728 16.8848 11.5895C16.7595 11.6099 16.6374 11.6284 16.4447 11.6556L16.4295 11.6696L16.4155 11.6809C16.3954 11.8266 16.3814 11.9525 16.3548 12.1006C16.3322 12.2538 16.2975 12.4278 16.241 12.6778C16.1973 12.8692 16.1747 12.9359 16.1498 13.0032C16.1255 13.0705 16.0988 13.136 16.0496 13.3242L16.0611 13.3416L16.0708 13.3575C16.2508 13.3489 16.3686 13.3427 16.4897 13.3416C16.6106 13.3372 16.7359 13.3416 16.9298 13.3427L16.9467 13.3286L16.9649 13.3131C16.9929 13.1434 16.9971 13.0977 17.0142 13.0149C17.0312 12.9261 17.0605 12.8031 17.1322 12.4747C17.1661 12.3205 17.2039 12.1667 17.2391 12.0093C17.2757 11.8525 17.314 11.6981 17.3504 11.5438L17.3449 11.5252L17.3376 11.508ZM17.3419 10.877C17.1607 10.7685 16.8428 10.8029 16.6288 10.9529C16.4155 11.0999 16.3912 11.3085 16.5717 11.4185C16.7498 11.5241 17.0689 11.4926 17.281 11.3414C17.4939 11.1912 17.5205 10.9845 17.3419 10.877ZM18.4373 13.3916C18.8038 13.3916 19.1794 13.289 19.4621 12.9846C19.6797 12.7378 19.7794 12.3705 19.814 12.2192C19.9265 11.7179 19.8389 11.4838 19.7289 11.3413C19.5617 11.124 19.2664 11.0543 18.96 11.0543C18.7757 11.0543 18.3369 11.0728 17.9941 11.3938C17.7479 11.6253 17.6342 11.9395 17.5655 12.2407C17.4963 12.5476 17.4166 13.1001 17.9169 13.3058C18.0713 13.3731 18.2938 13.3916 18.4373 13.3916ZM18.4087 12.2636C18.4932 11.884 18.5929 11.5654 18.8475 11.5654C19.047 11.5654 19.0614 11.8025 18.9727 12.1833C18.9569 12.2679 18.884 12.5822 18.7855 12.7161C18.7168 12.8149 18.6354 12.8748 18.5454 12.8748C18.5187 12.8748 18.3595 12.8748 18.357 12.6347C18.3557 12.5162 18.3796 12.3951 18.4087 12.2636ZM20.7301 13.3428L20.7587 13.3132C20.7993 13.0946 20.806 13.0433 20.896 12.6007C20.9409 12.3909 21.034 11.9297 21.0777 11.7655C21.1605 11.7264 21.2406 11.6882 21.3209 11.6882C21.505 11.6882 21.4826 11.8524 21.4753 11.9178C21.4686 12.0278 21.4011 12.3864 21.3306 12.6945L21.2868 12.8933C21.2534 13.0403 21.217 13.1828 21.1848 13.3285L21.1988 13.3576C21.575 13.3372 21.6851 13.3372 22.0072 13.3428L22.0461 13.3132C22.1026 12.9717 22.1178 12.8803 22.2236 12.3834L22.2741 12.1549C22.3749 11.708 22.4259 11.4815 22.3512 11.2969C22.2686 11.09 22.0747 11.0401 21.9003 11.0401C21.7847 11.0401 21.5726 11.0684 21.3841 11.1629C21.3167 11.1987 21.2492 11.24 21.1829 11.2814L21.2406 11.0543L21.2097 11.0159C20.8079 11.0987 20.7161 11.1098 20.3452 11.1629L20.3168 11.1839C20.2718 11.5469 20.2352 11.8197 20.0754 12.5334C20.0146 12.7964 19.9514 13.0619 19.8882 13.3243L19.9052 13.3576C20.2863 13.3372 20.4 13.3372 20.7301 13.3428ZM23.4946 13.3575C23.5182 13.2403 23.6588 12.5452 23.66 12.5452C23.66 12.5452 23.7797 12.0352 23.787 12.0167C23.787 12.0167 23.8246 11.9636 23.8623 11.9426H23.9177C24.4404 11.9426 25.0306 11.9426 25.4933 11.5969C25.8081 11.3599 26.0233 11.0098 26.1193 10.5843C26.1442 10.48 26.1626 10.356 26.1626 10.2319C26.1626 10.069 26.1303 9.90777 26.0373 9.78181C25.8014 9.4466 25.3316 9.44043 24.7893 9.4379C24.7876 9.4379 24.5219 9.44043 24.5219 9.44043C23.8278 9.44913 23.5494 9.4466 23.435 9.43237C23.4253 9.48374 23.4071 9.57509 23.4071 9.57509C23.4071 9.57509 23.1585 10.7456 23.1585 10.7475C23.1585 10.7475 22.5634 13.236 22.5354 13.3533C23.1415 13.3458 23.39 13.3458 23.4946 13.3575ZM23.9554 11.2783C23.9554 11.2783 24.2197 10.1102 24.2185 10.1146L24.2271 10.0547L24.2308 10.0091L24.3365 10.0201C24.3365 10.0201 24.8817 10.0677 24.8945 10.069C25.1097 10.1535 25.1984 10.3715 25.1365 10.6559C25.08 10.9159 24.9139 11.1345 24.7006 11.2401C24.5249 11.3295 24.3097 11.337 24.0879 11.337H23.9445L23.9554 11.2783ZM25.6015 12.2853C25.5316 12.5878 25.4513 13.1403 25.9491 13.3372C26.1078 13.4058 26.2501 13.4262 26.3946 13.4187C26.5473 13.4104 26.6887 13.3326 26.8198 13.2207C26.8079 13.2667 26.7961 13.3127 26.7843 13.3588L26.8068 13.3884C27.1649 13.3731 27.276 13.3731 27.664 13.3761L27.6991 13.3489C27.7558 13.0107 27.8091 12.6823 27.9564 12.0352C28.0281 11.7253 28.0997 11.4184 28.1733 11.1097L28.1618 11.0758C27.7612 11.1511 27.6542 11.1673 27.2689 11.2227L27.2396 11.2469C27.2357 11.2784 27.2317 11.3086 27.2279 11.3387C27.168 11.2404 27.0812 11.1565 26.9472 11.1042C26.7759 11.0358 26.3735 11.124 26.0275 11.4438C25.7845 11.6722 25.6678 11.9851 25.6015 12.2853ZM26.4427 12.3037C26.5285 11.9309 26.627 11.6155 26.8822 11.6155C27.0435 11.6155 27.1285 11.7667 27.1112 12.0246C27.0975 12.089 27.0827 12.1568 27.0652 12.2334C27.0396 12.3442 27.0119 12.454 26.985 12.564C26.9576 12.6393 26.9257 12.7102 26.8907 12.7575C26.8251 12.852 26.6688 12.9106 26.5789 12.9106C26.5534 12.9106 26.3959 12.9106 26.3904 12.6748C26.3892 12.5574 26.413 12.4365 26.4427 12.3037ZM30.8357 11.0727L30.8047 11.0369C30.4084 11.1184 30.3367 11.1314 29.9725 11.1813L29.9458 11.2085C29.9445 11.2129 29.9434 11.2197 29.9416 11.2259L29.9403 11.2197C29.6692 11.8549 29.6772 11.7179 29.4565 12.2179C29.4553 12.1952 29.4553 12.1809 29.454 12.1568L29.3988 11.0727L29.3641 11.0369C28.9489 11.1184 28.9391 11.1314 28.5557 11.1813L28.5258 11.2085C28.5216 11.2215 28.5216 11.2357 28.5191 11.2512L28.5216 11.2567C28.5695 11.5055 28.558 11.45 28.6061 11.8426C28.6285 12.0352 28.6584 12.229 28.6808 12.4193C28.7186 12.7377 28.7398 12.8945 28.786 13.3805C28.5271 13.8145 28.4657 13.9787 28.2165 14.3596L28.2182 14.3634L28.0426 14.6453C28.0226 14.675 28.0044 14.6954 27.9788 14.7041C27.9508 14.7182 27.9144 14.7207 27.8638 14.7207H27.7666L27.622 15.209L28.118 15.2177C28.4091 15.2165 28.5921 15.0782 28.6906 14.8923L29.0025 14.3496H28.9975L29.0303 14.3114C29.2401 13.8527 30.8357 11.0727 30.8357 11.0727ZM25.6015 17.4865H25.3911L26.1698 14.8707H26.4281L26.5101 14.6013L26.518 14.9009C26.5084 15.0862 26.6518 15.2504 27.0287 15.2232H27.4646L27.6146 14.7195H27.4506C27.3563 14.7195 27.3126 14.6953 27.318 14.6435L27.3101 14.3386H26.5029V14.3402C26.242 14.3457 25.4627 14.3656 25.3049 14.4083C25.1139 14.4583 24.9127 14.6052 24.9127 14.6052L24.9918 14.3355H24.2368L24.0794 14.8707L23.2903 17.5265H23.1372L22.987 18.0266H24.4909L24.4404 18.1933H25.1815L25.2306 18.0266H25.4385L25.6015 17.4865ZM24.9845 15.4022C24.8636 15.4362 24.6385 15.5393 24.6385 15.5393L24.8387 14.8707H25.4385L25.2938 15.3578C25.2938 15.3578 25.1085 15.3689 24.9845 15.4022ZM24.996 16.3573C24.996 16.3573 24.8075 16.3813 24.6835 16.4098C24.5614 16.4474 24.3323 16.5659 24.3323 16.5659L24.5389 15.8702H25.1419L24.996 16.3573ZM24.6599 17.4927H24.0581L24.2325 16.9056H24.8324L24.6599 17.4927ZM26.109 15.8702H26.9764L26.8517 16.2802H25.9728L25.8409 16.7284H26.6099L26.0276 17.5611C25.9869 17.6223 25.9503 17.6439 25.9097 17.6612C25.8689 17.6822 25.8154 17.7068 25.7534 17.7068H25.5401L25.3935 18.1977H25.9515C26.2416 18.1977 26.4129 18.0637 26.5394 17.8878L26.9387 17.3327L27.0245 17.8963C27.0427 18.0019 27.1174 18.0637 27.1679 18.0877C27.2238 18.1162 27.2815 18.165 27.3631 18.1723C27.4505 18.1761 27.5137 18.1791 27.5557 18.1791H27.8299L27.9946 17.6297H27.8864C27.8243 17.6297 27.7174 17.6191 27.6992 17.5994C27.681 17.5753 27.681 17.5384 27.6712 17.4821L27.5842 16.9172H27.228L27.3842 16.7284H28.2614L28.3963 16.2802H27.5842L27.7107 15.8702H28.5204L28.6705 15.3646H26.2567L26.109 15.8702ZM18.7831 17.6068L18.9855 16.9228H19.8176L19.9696 16.4141H19.1368L19.2639 15.9931H20.0778L20.2286 15.5004H18.1922L18.0446 15.9931H18.5072L18.3838 16.4141H17.9199L17.7662 16.9315H18.2286L17.9588 17.8365C17.9224 17.9563 17.9759 18.0019 18.0099 18.0576C18.0446 18.1118 18.0797 18.1477 18.1588 18.1681C18.2403 18.1865 18.2962 18.1976 18.3721 18.1976H19.3101L19.4773 17.634L19.0615 17.692C18.9812 17.692 18.7588 17.6822 18.7831 17.6068ZM18.8785 14.3324L18.6677 14.7194C18.6225 14.804 18.5819 14.8564 18.5454 14.8806C18.5131 14.901 18.4493 14.9095 18.3569 14.9095H18.2469L18.0998 15.4047H18.4652C18.6409 15.4047 18.7758 15.3393 18.8402 15.3066C18.9095 15.2689 18.9277 15.2904 18.9812 15.238L19.1046 15.1294H20.2456L20.397 14.6139H19.5618L19.7076 14.3324H18.8785ZM20.5629 17.6168C20.5435 17.5883 20.5575 17.5382 20.5872 17.4339L20.899 16.3856H22.0084C22.1701 16.3833 22.2868 16.3814 22.3627 16.3758C22.4443 16.3671 22.533 16.3376 22.6296 16.2845C22.7294 16.2288 22.7804 16.1702 22.8235 16.1029C22.8716 16.0357 22.9488 15.8887 23.0151 15.6621L23.407 14.3355L22.2558 14.3423C22.2558 14.3423 21.9013 14.3954 21.7453 14.454C21.5878 14.5195 21.3628 14.7021 21.3628 14.7021L21.4667 14.3385H20.7556L19.76 17.692C19.7246 17.8222 19.701 17.9167 19.6955 17.9735C19.6937 18.0346 19.7715 18.0952 19.8219 18.1409C19.8815 18.1865 19.9696 18.1791 20.0541 18.1865C20.1429 18.1933 20.2693 18.1976 20.4437 18.1976H20.9902L21.158 17.6223L20.6687 17.6693C20.6165 17.6693 20.5786 17.6408 20.5629 17.6168ZM21.1003 15.6776H22.2655L22.1914 15.9134C22.181 15.9189 22.1561 15.9017 22.0375 15.9159H21.0285L21.1003 15.6776ZM21.3337 14.8867H22.5087L22.4242 15.1707C22.4242 15.1707 21.8704 15.1652 21.7817 15.1818C21.3914 15.2504 21.1634 15.4622 21.1634 15.4622L21.3337 14.8867ZM22.2175 16.703C22.2078 16.7383 22.1926 16.7598 22.1713 16.7759C22.1476 16.7914 22.1093 16.7969 22.0522 16.7969H21.8862L21.896 16.5097H21.2054L21.1774 17.9136C21.1763 18.0149 21.1859 18.0736 21.2589 18.1205C21.3319 18.1791 21.5568 18.1866 21.8594 18.1866H22.2922L22.4484 17.6611L22.0717 17.6821L21.9464 17.6895C21.9293 17.6821 21.913 17.6753 21.8947 17.6568C21.8789 17.6409 21.8521 17.6507 21.8565 17.5493L21.8594 17.1895L22.2545 17.1729C22.4679 17.1729 22.5591 17.1024 22.6369 17.0352C22.7111 16.9709 22.7354 16.8969 22.7634 16.7969L22.8297 16.4783H22.2867L22.2175 16.703Z" fill="#FEFEFE"/>
</svg>
