<svg width="40" height="27" viewBox="0 0 40 27" fill="none" xmlns="http://www.w3.org/2000/svg">
<rect y="0.426758" width="40" height="26" rx="2.51813" fill="#F4F5FF"/>
<path d="M17.9731 17.9243H15.5105L17.0508 8.95801H19.5133L17.9731 17.9243Z" fill="#00579F"/>
<path d="M26.9005 9.17763C26.4147 8.99621 25.6443 8.7959 24.6917 8.7959C22.2598 8.7959 20.5473 10.0168 20.5368 11.7623C20.5166 13.0501 21.7629 13.7654 22.695 14.1948C23.6478 14.6336 23.9716 14.92 23.9716 15.3111C23.962 15.9118 23.2018 16.1887 22.4928 16.1887C21.5096 16.1887 20.9828 16.0459 20.1822 15.7117L19.8579 15.5685L19.5133 17.5812C20.0909 17.8289 21.155 18.0488 22.2598 18.0584C24.8437 18.0584 26.526 16.8564 26.5459 14.9963C26.5557 13.9756 25.8976 13.1935 24.4788 12.5544C23.6175 12.1441 23.09 11.8675 23.09 11.4477C23.1001 11.0661 23.5361 10.6753 24.5084 10.6753C25.309 10.6561 25.8972 10.8373 26.3428 11.0186L26.5656 11.1138L26.9005 9.17763V9.17763Z" fill="#00579F"/>
<path d="M30.1733 14.7479C30.3762 14.2328 31.1565 12.2392 31.1565 12.2392C31.1463 12.2583 31.3589 11.7146 31.4805 11.3808L31.6526 12.1534C31.6526 12.1534 32.119 14.2996 32.2202 14.7479C31.8354 14.7479 30.6598 14.7479 30.1733 14.7479ZM33.2131 8.95801H31.3083C30.7209 8.95801 30.2746 9.12003 30.0212 9.70195L26.3633 17.9242H28.9472C28.9472 17.9242 29.3726 16.8176 29.4641 16.5792C29.7475 16.5792 32.2612 16.5792 32.6259 16.5792C32.6966 16.894 32.9197 17.9242 32.9197 17.9242H35.1998L33.2131 8.95801V8.95801Z" fill="#00579F"/>
<path d="M13.4538 8.95801L11.042 15.0722L10.7785 13.8322C10.3326 12.4013 8.93427 10.8468 7.37378 10.0738L9.58282 17.9148H12.187L16.0578 8.95801H13.4538V8.95801Z" fill="#00579F"/>
<path d="M8.80269 8.95801H4.84058L4.80005 9.13918C7.89074 9.88324 9.93764 11.6768 10.7786 13.8325L9.91731 9.71171C9.7755 9.13905 9.33973 8.9769 8.80269 8.95801Z" fill="#FAA61A"/>
</svg>
