<svg width="120" height="56" viewBox="0 0 120 56" fill="none" xmlns="http://www.w3.org/2000/svg">
<g clip-path="url(#clip0_112_1020)">
<path d="M59.5271 23.3252C45.8602 23.5063 39.9528 24.7625 35.7842 25.9735C35.8578 26.1886 35.9031 26.4036 35.9031 26.613V26.7771C35.8352 27.7504 35.7785 28.6728 35.7275 29.5499C36.0957 29.4254 36.4808 29.2896 36.8943 29.1482C40.9043 27.7504 47.2761 25.5321 58.4679 24.8984C58.7624 24.208 59.1136 23.6874 59.5271 23.3252Z" fill="#0B284C"/>
<path d="M32.6295 11.5155C31.7799 9.46701 30.1997 8.42578 27.9455 8.42578C26.9203 8.42578 25.9348 8.66345 25.0173 9.13314C23.4257 9.94235 22.5025 11.1194 22.2646 12.6869V12.8057C22.2646 12.9359 22.2873 13.0717 22.3383 13.2301C22.5648 13.847 22.9896 13.9941 23.3295 13.9771C23.3408 13.9771 23.3521 13.9771 23.3634 13.9771C22.9273 14.3959 22.6894 15.256 22.6441 16.5745V16.5859C22.6441 18.1477 23.0066 19.4719 23.7259 20.5188C24.5812 21.7524 25.7309 22.3805 27.1469 22.3805C28.7837 22.3579 30.2054 21.6222 31.3778 20.1792C32.5899 18.623 33.2072 16.733 33.2072 14.5543C33.2072 13.4395 33.009 12.4209 32.6238 11.5268L32.6295 11.5155ZM24.3263 12.9359C24.3999 12.6643 24.5019 12.3926 24.6265 12.1493C25.1249 11.2552 25.8442 10.8195 26.8241 10.8195C27.5207 10.8195 28.1267 11.0628 28.6648 11.5664C29.5823 12.4492 30.0524 13.8074 30.0524 15.6069C30.0524 16.5066 29.8995 17.3555 29.5993 18.1251C29.0499 19.5511 28.2117 20.2415 27.0336 20.2415C26.8807 20.2415 26.7278 20.2019 26.5635 20.1226C25.9008 19.8171 25.578 19.2172 25.578 18.2892C25.578 17.7855 25.663 17.1857 25.8272 16.5236C25.8782 16.3765 25.9008 16.1614 25.9008 15.8728C25.9008 15.5446 25.8215 15.1994 25.663 14.8316C25.2778 14.0677 24.7284 13.6772 23.9978 13.6772C23.9978 13.6772 23.9525 13.6829 23.9298 13.6885C24.0941 13.5188 24.2243 13.2698 24.3376 12.9415L24.3263 12.9359Z" fill="#0B284C"/>
<path d="M40.6325 21.5205C40.6098 21.4299 40.5872 21.2771 40.5532 21.0847C40.2983 19.5682 40.1227 18.94 39.6753 18.94C39.5847 18.94 39.4997 18.957 39.4147 18.9796C39.1032 19.0758 38.922 19.4833 38.6615 20.151C38.5652 20.3887 38.4292 20.7395 38.3386 20.8584C38.231 20.8584 38.146 20.8471 38.0837 20.8357C37.8798 20.7905 37.2172 20.2699 37.2172 15.4259C37.2172 14.645 37.2512 13.5188 37.3248 12.0702C38.0101 11.9457 39.3354 11.6118 39.3694 10.5593C39.3694 10.4291 39.3468 10.2933 39.3015 10.1688C39.1089 9.40485 38.6784 9.2464 38.3499 9.2464C38.248 9.2464 38.1347 9.2747 38.0101 9.33694C37.8005 9.45012 37.6136 9.54632 37.4607 9.62555C37.6306 7.27712 37.8345 5.27389 38.0894 3.67243L38.1234 3.60452C38.1574 3.50832 38.1687 3.45174 38.1687 3.40081C38.1687 3.25368 38.1234 3.10654 38.0441 2.96507C37.7552 2.46144 37.2172 2.20679 36.4242 2.20679C35.6426 2.27469 35.1442 2.57461 34.946 3.09523L34.929 3.16313C34.6288 5.55683 34.0737 13.6603 34.0737 14.2205C34.0737 19.7719 35.0536 22.6579 37.0812 23.0427C37.5513 23.1219 37.9818 23.1672 38.3669 23.1672C38.6728 23.1672 39.1485 23.1276 39.8339 23.0483C39.8792 23.0483 39.9358 23.0314 40.0434 22.9974C40.3379 22.8673 40.6834 22.5673 40.6834 21.8543C40.6834 21.7581 40.6721 21.6563 40.6495 21.5261L40.6325 21.5205Z" fill="#0B284C"/>
<path d="M46.217 42.3512C45.9905 41.6778 45.56 41.5363 45.2429 41.5363C45.0333 41.5363 44.7841 41.6608 44.4499 41.9437C44.399 41.9947 44.3423 42.0456 44.2574 42.1078C44.0421 42.3002 43.8326 42.4983 43.6173 42.702C42.7734 43.4943 41.9012 44.3148 41.1932 44.3148C39.8679 44.2978 39.3808 42.1588 39.3638 40.1668C39.3638 38.7804 39.6243 37.4563 40.1341 36.2453L40.355 35.7303C40.8534 34.5589 41.2782 33.5516 41.8785 33.5516C42.6205 33.6139 42.8414 33.7384 42.9037 33.812C43.2549 34.2024 43.4701 34.9437 43.6627 35.6001C43.7306 35.8265 43.7929 36.0415 43.8552 36.2283L43.8779 36.2792C44.1214 36.698 44.4273 36.9243 44.8011 36.947C44.886 36.947 44.9767 36.9356 45.1239 36.896C45.4411 36.7546 45.8206 36.4377 45.8206 35.7246C45.8206 35.5322 45.7923 35.3738 45.7526 35.2606C45.5657 34.6381 45.2599 34.0609 44.8464 33.5403C43.8496 32.3406 42.5582 31.7295 40.995 31.7295C39.7999 31.7521 38.7181 32.4765 37.7836 33.8912C36.6791 35.6171 36.1184 37.7335 36.1184 40.1725C36.1184 41.3665 36.3053 42.4134 36.6735 43.2905C37.4268 45.0674 38.8144 45.9672 40.7967 45.9672C41.2272 45.9672 41.6803 45.9162 42.1561 45.8144C43.7646 45.4692 45.0673 44.6996 46.0528 43.5056C46.1774 43.3132 46.251 43.0698 46.2737 42.7643C46.2737 42.6511 46.2624 42.5266 46.2284 42.3512H46.217Z" fill="#0B284C"/>
<path d="M57.0689 42.322C56.8424 41.6486 56.4119 41.5071 56.0947 41.5071C55.8852 41.5071 55.636 41.6316 55.3018 41.9146C55.2508 41.9655 55.1942 42.0164 55.1092 42.0787C54.8204 42.3333 54.5372 42.6219 54.2483 42.9105C53.478 43.6801 52.6851 44.478 52.0451 44.478C50.8953 44.4611 50.3176 42.5936 50.227 40.647C51.422 40.8224 52.4925 40.7602 53.4667 40.4659C55.5963 39.7982 56.6724 38.1911 56.6724 35.6898C56.6724 34.8467 56.4232 34.094 55.9361 33.4603C55.1545 32.4077 53.9991 31.8701 52.4925 31.8701C51.0935 31.8928 49.8928 32.4813 48.9186 33.6244C47.6216 35.2032 46.9646 37.4045 46.9646 40.166C46.9646 41.2978 47.1289 42.2994 47.4574 43.1595C48.2106 44.9987 49.6153 45.9267 51.6429 45.9267C52.0734 45.9267 52.5322 45.8758 53.0023 45.7739C54.6108 45.4287 55.9135 44.6648 56.899 43.4651C57.0236 43.2727 57.0972 43.0294 57.1199 42.7238C57.1199 42.6106 57.1086 42.4861 57.0746 42.3107L57.0689 42.322ZM50.4026 38.1401C50.5102 37.6082 50.6574 37.0932 50.8387 36.6236C50.9293 36.4029 51.0086 36.1878 51.0935 35.9728C51.6203 34.6033 52.0791 33.4263 53.0249 33.4263C53.6819 33.4433 54.6391 34.6769 54.6561 35.8087C54.6391 37.4894 53.8179 39.204 52.0337 39.2379C51.9318 39.2379 51.6429 38.9946 51.4504 38.8362C51.1389 38.5759 50.7934 38.2816 50.4026 38.1401Z" fill="#0B284C"/>
<path d="M61.4471 37.2524V36.6413C61.6341 36.2565 61.838 35.8151 62.0418 35.3341C63.5258 31.8765 64.2791 29.0471 64.2791 26.9137C64.2564 24.769 63.1916 23.6146 61.1923 23.5693C61.079 23.5693 60.9544 23.5807 60.7958 23.6089C58.9777 24.0673 58.1338 27.7003 58.1338 35.0512C58.1338 43.1037 59.057 46.8612 61.0393 46.8838C61.147 46.8838 61.2772 46.8612 61.4528 46.7989C61.9852 46.5556 62.2684 46.1199 62.2684 45.537C62.2684 45.3729 62.2118 45.1805 62.0985 44.9485C61.6624 43.9695 61.4471 41.3834 61.4471 37.2524ZM61.5944 31.6445C61.6001 31.5144 61.6114 31.3842 61.6227 31.2597C61.821 27.5192 62.0135 26.3365 62.1211 25.9687C62.2231 26.0932 62.2854 26.3705 62.2967 26.7666C62.2967 28.3228 62.0645 29.9582 61.6001 31.6445H61.5944Z" fill="#0B284C"/>
<path d="M75.8276 34.5644C75.8502 34.5192 75.8672 34.4626 75.8672 34.4003C75.8672 34.2871 75.8389 34.1626 75.7879 34.0325C75.567 33.4666 75.029 33.178 74.1851 33.178C73.4941 33.2176 73.007 33.4723 72.7464 33.9137C71.7553 32.9347 70.5942 32.431 69.2745 32.4141C67.8925 32.4367 66.6465 33.1441 65.576 34.5305C64.3639 36.1036 63.7466 37.988 63.7466 40.1214C63.7466 41.3154 63.9505 42.4019 64.3583 43.3583C65.1342 45.1125 66.352 46.001 67.9775 46.001H68.357C69.8409 45.8708 71.1549 45.1521 72.2763 43.8619C72.3273 44.1732 72.3953 44.5806 72.4802 45.0673C72.5709 45.4747 72.8937 45.967 73.9358 45.9953C74.1567 45.9953 74.3833 45.9614 74.5985 45.8991C75.5274 45.6614 75.7256 45.1521 75.7256 44.773C75.7256 44.6711 75.7143 44.5693 75.6803 44.4448C75.3405 43.4771 75.1649 42.3623 75.1649 41.123C75.1649 40.0422 75.3235 38.3615 75.635 36.1206C75.7313 35.4246 75.7936 34.904 75.8389 34.5701L75.8276 34.5644ZM72.0555 40.0535C71.3135 43.7148 69.7219 44.1675 69.1046 44.1675C68.9007 44.1675 68.6911 44.1336 68.4816 44.0656C67.5753 43.777 67.0146 42.2605 67.0146 40.1158V39.6517C67.0033 38.5143 66.9863 37.0939 67.4847 36.1885C68.1304 35.0171 69.3481 34.157 70.1751 34.2532C72.0158 34.4626 72.4802 37.9371 72.0498 40.0535H72.0555Z" fill="#0B284C"/>
<path d="M119.626 32.3798C118.522 28.9505 115.282 26.8511 109.148 25.7363C108.593 26.2908 107.721 26.6021 106.662 26.6021C105.852 26.6021 105.025 26.421 104.266 26.0758C103.631 25.7872 103.105 25.408 102.669 24.9667C92.8588 24.2933 84.5556 23.8519 77.4871 23.5916L78.5803 23.7726C79.0051 23.8575 79.4695 24.1914 79.5658 24.6611C79.5941 24.8082 79.6168 25.1364 79.3336 25.4477C84.7539 25.957 90.8198 26.7662 97.6051 27.9489C97.6448 27.598 97.6788 27.2528 97.7241 26.9133L97.7524 26.7775C97.928 26.1663 98.4604 25.21 100.143 25.1647C101.796 25.1647 102.397 26.0192 102.606 26.5342C102.703 26.7775 102.754 27.0095 102.754 27.2359V27.4226C102.725 27.8414 102.686 28.3959 102.629 29.058C107.313 30.4274 109.205 32.2609 110.672 34.847C112.773 38.5649 112.932 42.3167 111.119 45.695C109.233 49.2148 105.268 51.0144 102.278 51.9028C97.0161 53.4703 91.1767 53.2666 89.0244 52.0895C87.3706 51.1898 87.6821 49.2035 88.1522 46.1987C88.2711 45.4178 88.4127 44.5406 88.526 43.6069L88.5373 43.5277C88.7412 42.1696 88.8432 40.8115 88.8432 39.459C88.8432 38.6102 88.8035 37.7896 88.7242 37.0144C88.39 33.9303 87.5518 32.4307 86.1642 32.4307C85.5241 32.4533 84.7255 32.8721 83.723 33.7039C82.375 34.83 81.2536 36.2278 80.37 37.8632C80.438 37.3086 80.5173 36.6748 80.6193 35.9562C80.6985 35.311 80.7552 34.83 80.8005 34.4792V34.3604C80.8005 34.2302 80.7722 34.0944 80.7212 33.9586C80.4947 33.4153 79.9736 33.138 79.1467 33.138C78.365 33.1833 77.844 33.5002 77.5891 34.1283C77.2323 35.8486 77.051 38.0386 77.051 40.636C77.051 42.1413 77.1926 43.6239 77.4702 45.0612C77.5608 45.4517 77.8836 45.9271 78.9258 45.961C79.124 45.961 79.3222 45.9384 79.5261 45.8931C80.4833 45.6554 80.6816 45.1461 80.6816 44.7613C80.6816 44.6764 80.6702 44.5859 80.6532 44.4954C80.6532 44.2577 80.6759 43.9917 80.7099 43.7031C80.9194 41.7904 81.6444 39.7532 82.8565 37.6538C83.808 36.0014 85.3656 34.7338 85.6941 34.7338C86.3284 34.7508 86.47 36.9182 86.521 37.733C86.6116 39.1138 86.2944 40.0079 85.9319 41.0435C85.6827 41.7565 85.2579 43.8106 85.0654 44.7444C83.8363 50.7937 86.7532 53.3515 89.2963 54.7379C90.6329 55.4679 92.2471 55.8357 94.0879 55.8357C99.1853 55.8357 106.078 52.8592 111.657 48.2472C118.131 42.8996 121.11 36.9634 119.632 32.3741L119.626 32.3798Z" fill="#0B284C"/>
<path d="M103.971 46.1366C103.886 45.9329 103.671 45.814 103.45 45.8536C103.156 45.9046 102.929 45.9216 102.765 45.9046H102.737C101.927 45.9046 101.734 45.1972 101.536 44.122C101.496 43.89 101.451 43.6693 101.406 43.5052C101.247 42.1924 101.168 40.7041 101.168 39.0857C101.168 37.173 101.326 34.2473 101.638 30.388C101.757 29.0299 101.836 28.0339 101.876 27.3888V27.2417C101.876 27.1285 101.847 27.004 101.796 26.8682C101.57 26.3193 101.026 26.042 100.171 26.042C99.1004 26.0703 98.7322 26.5683 98.6019 27.0266C98.3301 29.1996 98.1545 31.5707 98.0809 34.0889C97.1577 33.4211 96.1098 33.0759 94.9544 33.059C93.6008 33.0816 92.4114 33.8456 91.4202 35.3395C90.3554 36.9692 89.8116 38.9046 89.8116 41.0945C89.8116 42.0622 89.9476 42.9563 90.2081 43.7485C90.8764 45.6952 92.1508 46.6798 93.9859 46.6798C94.2351 46.6798 94.4956 46.6572 94.7732 46.6176C96.0985 46.3969 97.2653 45.7235 98.2564 44.6144C98.2508 45.7348 98.7039 46.6402 99.5478 47.1552C100.035 47.4494 100.601 47.5966 101.196 47.5966C102.057 47.5966 102.986 47.291 103.818 46.7025C104 46.578 104.062 46.346 103.977 46.1422L103.971 46.1366ZM98.0922 40.6192C97.9166 41.3831 97.5711 42.4696 97.2596 43.0242C96.6083 44.1616 95.8663 44.7388 95.0564 44.7388C94.8298 44.7388 94.6146 44.7049 94.405 44.6313C93.5441 44.3597 93.023 43.0412 93.023 41.1115C93.023 39.8836 93.2892 38.6952 93.8216 37.5804C94.422 36.3128 95.0847 35.1358 95.8776 35.0056C95.8833 35.0169 95.889 35.0283 95.8946 35.0396C96.0872 35.3734 96.2798 35.679 96.529 35.8205C97.3219 36.2392 97.826 36.6637 98.0299 37.0768V37.0994C98.0299 38.6273 98.0469 39.81 98.0865 40.6079L98.0922 40.6192Z" fill="#0B284C"/>
<path d="M37.9817 46.5444C37.9194 46.4369 37.8288 46.3633 37.7098 46.335C37.4096 46.2558 37.0415 46.4765 36.6167 46.7255C36.4128 46.85 36.0673 47.0537 35.9314 47.0537C34.9515 47.0537 34.7929 45.7182 34.7136 44.3544L34.7023 44.1394C34.7023 44.0375 34.691 43.9357 34.6683 43.8564C34.4701 42.6568 34.4814 41.5307 34.4927 39.8217C34.4927 39.3577 34.4984 38.8484 34.4984 38.2825C34.4984 35.9623 34.674 32.086 35.0308 26.7045V26.6139C35.0308 26.4838 35.0025 26.3479 34.9515 26.2121C34.725 25.6632 34.1812 25.3973 33.3543 25.3916C32.6293 25.4821 32.1196 25.799 31.8421 26.3366L31.8194 26.4045C31.304 28.6341 31.0435 31.4805 31.0435 34.8645C31.0435 37.6204 31.2247 40.812 31.5872 44.3318C31.6325 46.4539 32.7766 48.1119 34.64 48.7683C35.1328 48.9438 35.6368 49.023 36.1013 49.023C36.8886 49.023 37.5795 48.7853 37.959 48.3383C38.1912 48.061 38.5028 47.4668 37.9817 46.5444Z" fill="#0B284C"/>
<path d="M28.3248 29.1992C25.3796 29.5387 24.4394 29.0973 23.1311 28.0844C21.0128 26.449 20.8825 23.4271 20.8825 21.7408C20.8825 21.5201 20.8995 21.09 20.9165 20.858C21.0751 16.0706 21.1544 13.3714 21.1544 12.6018C21.1544 4.97362 20.2029 1.40854 18.1639 1.38591H18.1525C17.0594 1.40854 16.0229 2.57427 14.9751 4.95665C14.7033 5.67532 14.4484 6.48454 14.2162 7.37863C13.6554 3.27597 12.7549 1.33498 11.4069 1.29537C10.4271 1.31234 9.53783 2.21776 8.71657 4.05689C8.73923 3.6834 8.75055 3.38348 8.75055 3.17411V3.08356C8.75055 2.96473 8.7279 2.84589 8.68825 2.72706C8.67126 2.529 8.56365 1.84993 7.9123 1.33498C7.1137 0.701186 5.83367 0.565374 4.1062 0.933199C2.26544 1.318 0.928775 2.48938 0.322743 4.22665C-0.25497 5.8847 -0.0454071 7.84832 0.821162 8.88955C0.821162 8.88955 3.31326 10.1854 4.12319 8.8556C4.42904 8.36328 4.2931 7.37298 4.15717 6.32043C4.06655 5.61307 3.95894 4.81517 4.06655 4.5096C4.20248 4.13045 4.72922 3.66643 4.96144 3.71736C5.05772 3.73433 5.21065 3.96635 5.17666 4.66804C4.88781 6.55244 4.74621 8.79335 4.74621 11.3229C4.74621 14.2824 4.63293 19.1094 5.36923 21.5654C5.65809 22.5161 6.76821 22.8499 7.24397 22.8499C7.37424 22.8499 7.50451 22.833 7.63477 22.799C8.78454 22.4934 9.33393 20.9316 9.35659 20.8637L9.57181 20.2356L8.97144 20.5128C8.80719 20.5864 8.67692 20.609 8.60329 20.5751C8.54099 20.5411 8.50701 20.4449 8.49568 20.3827C8.33143 19.1038 8.13886 17.4174 8.20116 15.4029C8.26913 13.2355 8.64294 11.2097 8.9941 9.36489C9.75306 5.28486 10.4327 4.50394 10.7329 4.37378C10.9481 4.7982 11.3616 6.95422 11.5258 16.9987C11.5258 18.3285 11.6051 19.6187 11.9789 20.3035C12.2791 20.858 13.31 21.4126 13.9613 21.2598C15.145 20.9882 15.7114 19.3811 15.7341 19.3132L15.9493 18.685L15.3489 18.9623C15.1564 19.0529 14.9978 19.0811 14.9185 19.0359C14.8618 19.0076 14.8449 18.9227 14.8392 18.9227L14.8335 17.525C14.8505 16.8402 14.8845 16.1272 14.9185 15.3859C15.2073 11.1531 15.7794 7.89925 16.595 5.74888C17.1104 4.78122 17.4219 4.47564 17.5522 4.37944C17.6598 4.67936 17.858 5.79981 17.858 9.91946C17.858 12.3132 17.7787 15.7311 17.6201 20.0771C17.5975 20.8863 17.5918 21.3334 17.5918 21.4126C17.5918 21.4239 17.5918 21.4409 17.5918 21.4522C17.5862 21.871 17.6145 26.2339 20.1859 28.9219C22.1909 31.01 24.7169 31.7117 28.625 31.259C29.2084 31.1911 29.7521 31.1062 30.2675 31.0157C30.3355 30.0706 30.4261 29.1822 30.5451 28.3504C29.8541 28.7521 29.1234 29.086 28.3022 29.1822L28.3248 29.1992Z" fill="#0B284C"/>
<path d="M45.9622 8.42554C44.937 8.42554 43.9515 8.66321 43.034 9.13289C41.4424 9.94211 40.5192 11.1192 40.287 12.6867V12.8055C40.287 12.9356 40.3096 13.0771 40.3606 13.2299C40.5872 13.8467 41.0346 13.9939 41.3518 13.9769C41.3631 13.9769 41.3744 13.9769 41.3858 13.9769C40.9497 14.3956 40.7118 15.2558 40.6665 16.5743V16.5856C40.6665 18.1475 41.029 19.4716 41.7483 20.5185C42.6035 21.7521 43.7533 22.3803 45.1692 22.3803C46.8061 22.3576 48.2277 21.622 49.4001 20.179C50.6122 18.6228 51.2296 16.7327 51.2296 14.5541C51.2296 13.4393 51.0313 12.4207 50.6462 11.5266C49.7966 9.47808 48.222 8.43685 45.9622 8.43685V8.42554ZM42.343 12.9356C42.4166 12.664 42.5185 12.3924 42.6432 12.1491C43.1416 11.255 43.8609 10.8192 44.8407 10.8192C45.5374 10.8192 46.1434 11.0626 46.6815 11.5662C47.599 12.449 48.0691 13.8071 48.0691 15.6066C48.0691 16.5064 47.9162 17.3552 47.616 18.1248C47.0666 19.5508 46.2284 20.2412 45.0503 20.2412C44.8974 20.2412 44.7444 20.2016 44.5802 20.1224C43.9175 19.8168 43.5947 19.217 43.5947 18.2889C43.5947 17.7853 43.6796 17.1798 43.8439 16.5234C43.8949 16.3762 43.9175 16.1612 43.9175 15.8726C43.9175 15.5387 43.8382 15.1935 43.6796 14.8314C43.2945 14.0674 42.7451 13.677 42.0145 13.677C42.0145 13.677 41.9692 13.6826 41.9465 13.6883C42.1107 13.5185 42.241 13.2695 42.3543 12.9413L42.343 12.9356Z" fill="#0B284C"/>
<path d="M61.2263 9.0144C60.5183 9.03704 59.7083 9.48409 58.7398 10.3895C57.5674 11.5326 56.5423 12.9643 55.687 14.6563C55.755 14.0338 55.8399 13.3208 55.9419 12.5059C56.0212 11.7986 56.0778 11.2779 56.1231 10.9158V10.8252C56.1231 10.6951 56.0948 10.5593 56.0438 10.4235C55.8399 9.92548 55.3925 10.0217 55.0697 10.0952C54.8997 10.1292 54.7015 10.1745 54.4693 10.1745C53.6877 10.2197 53.1666 10.5366 52.9117 11.1648C52.5209 13.0548 52.3737 14.6619 52.3737 17.1009C52.3737 18.5835 52.5153 20.0605 52.7928 21.4922C52.8834 21.8996 53.2062 22.3919 54.2484 22.4202C54.4523 22.4202 54.6675 22.3863 54.8771 22.324C55.806 22.0864 56.0042 21.5771 56.0042 21.1979C56.0042 21.113 55.9929 21.0225 55.9759 20.932C55.9872 20.5472 56.1458 16.3766 57.4655 14.3564C58.7342 12.4041 59.3232 11.991 59.5724 11.991C59.799 12.0023 59.833 12.5965 59.8386 12.7719C59.8386 13.0209 59.782 13.3265 59.6744 13.6886C59.2496 14.9958 59.2496 15.1656 59.2496 15.2505C59.2496 15.3523 59.2609 15.4542 59.2836 15.5334C59.4252 16.3483 61.4415 16.4445 61.4811 16.4445C61.7077 16.4162 61.9229 16.2917 62.1778 16.037C62.7102 15.3127 62.9707 14.0734 62.9707 12.24C62.9481 10.1462 62.3704 9.05968 61.2319 9.0144H61.2263Z" fill="#0B284C"/>
<path d="M82.7376 8.42554C81.7124 8.42554 80.7269 8.66321 79.8094 9.13289C78.2179 9.94211 77.2946 11.1192 77.0568 12.6867V12.8055C77.0568 12.9356 77.0794 13.0771 77.1361 13.2299C77.3626 13.8467 77.7817 13.9939 78.1272 13.9769C78.1386 13.9769 78.1499 13.9769 78.1612 13.9769C77.7251 14.3956 77.4872 15.2558 77.4419 16.5743V16.5856C77.4419 18.1475 77.8044 19.4716 78.5237 20.5185C79.3789 21.7521 80.5287 22.3803 81.9447 22.3803C83.5815 22.3576 85.0031 21.622 86.1756 20.179C87.3876 18.6228 88.005 16.7327 88.005 14.5541C88.005 13.4393 87.8068 12.4207 87.4216 11.5266C86.572 9.47808 84.9975 8.43685 82.7376 8.43685V8.42554ZM79.1184 12.9356C79.192 12.664 79.294 12.3924 79.4129 12.1491C79.9113 11.255 80.6363 10.8192 81.6162 10.8192C82.3128 10.8192 82.9188 11.0626 83.4569 11.5662C84.3745 12.449 84.8446 13.8071 84.8446 15.6066C84.8446 16.5064 84.6916 17.3552 84.3914 18.1248C83.8421 19.5508 83.0038 20.2412 81.8257 20.2412C81.6728 20.2412 81.5199 20.2016 81.3556 20.1224C80.693 19.8168 80.3701 19.217 80.3701 18.2889C80.3701 17.7853 80.4551 17.1798 80.6193 16.5234C80.6703 16.3762 80.693 16.1612 80.693 15.8726C80.693 15.5444 80.6137 15.1992 80.4551 14.8314C80.0699 14.0674 79.5205 13.677 78.7899 13.677C78.7899 13.677 78.7446 13.6826 78.7219 13.6883C78.8862 13.5185 79.0165 13.2695 79.1297 12.9413L79.1184 12.9356Z" fill="#0B284C"/>
<path d="M117.066 18.7868C116.839 18.1134 116.409 17.9719 116.092 17.9719C115.882 17.9719 115.633 18.0964 115.305 18.3794C115.254 18.4303 115.197 18.4812 115.112 18.5435C114.857 18.7698 114.602 19.0188 114.347 19.2678C113.549 20.0431 112.716 20.8523 112.048 20.8523C110.824 20.8353 110.315 18.9 110.23 17.1175C111.425 17.2929 112.495 17.225 113.47 16.9364C115.599 16.2686 116.675 14.6615 116.675 12.1603C116.675 11.3171 116.426 10.5645 115.939 9.93071C115.157 8.87817 114.002 8.34058 112.495 8.34058C111.102 8.36321 109.896 8.95173 108.921 10.0948C107.624 11.6736 106.967 13.8749 106.967 16.6365C106.967 17.7682 107.132 18.7698 107.46 19.63C108.213 21.4691 109.618 22.3972 111.646 22.3972C112.076 22.3972 112.535 22.3462 113.005 22.2444C114.614 21.8992 115.916 21.1352 116.902 19.9356C117.026 19.7432 117.1 19.4998 117.123 19.1943C117.123 19.0811 117.111 18.9566 117.077 18.7812L117.066 18.7868ZM110.405 14.5993C110.519 14.0673 110.66 13.558 110.841 13.0884C111.425 11.6453 112.246 9.98164 113.447 9.98164C114.144 9.99862 114.642 11.204 114.659 12.2678C114.642 13.7561 113.945 15.499 112.037 15.5386C111.918 15.5386 111.646 15.3406 111.425 15.1821C111.119 14.9614 110.779 14.7181 110.405 14.5936V14.5993Z" fill="#0B284C"/>
<path d="M77.4646 24.6101C77.2776 24.6328 77.1191 24.6384 77.0001 24.6271H76.9718C76.5866 24.6271 76.2751 24.48 76.0316 24.1914C75.5842 23.6594 75.4992 22.7767 75.6068 22.1881L75.6634 21.8543C75.9466 20.1396 76.0882 18.3231 76.0882 16.4557C76.0882 15.7144 76.0656 14.9844 76.0259 14.2827C75.7541 10.6384 74.9101 8.86718 73.4319 8.86718C72.8485 8.88982 72.1179 9.28028 71.189 10.0555C69.7957 11.2835 68.6176 12.8454 67.6774 14.7241L67.6661 12.4549C70.1978 9.62547 71.4948 6.6093 71.5118 3.49127C71.5118 3.11213 71.5005 2.81787 71.4779 2.60283C71.4156 2.03694 71.172 1.51067 70.7529 1.02967C70.1072 0.344946 69.3539 -0.000244141 68.51 -0.000244141C68.3401 -0.000244141 68.1702 0.0110736 67.9889 0.033709C65.4685 0.4751 64.2451 4.22126 64.2451 11.4816C64.2451 14.8769 64.4037 18.2665 64.7152 21.5487C64.7379 21.8373 64.8058 22.1089 64.9135 22.3466C65.2306 23.0935 65.7913 23.4897 66.5333 23.4897C66.6296 23.4897 66.7372 23.4783 66.8618 23.4501C67.3659 23.3312 67.9663 22.9521 67.9663 21.792C67.9663 21.792 67.9436 21.2601 67.9663 21.0847C68.1532 19.3191 68.9291 16.6538 70.1469 14.3167C71.274 12.0927 71.8517 11.8494 72.0386 11.8494C72.2935 11.8551 72.8882 12.1946 72.9108 15.1598C72.9108 16.3821 72.7635 18.2779 72.469 20.7847C72.3897 21.4581 72.3388 21.9108 72.3218 22.1712V22.273C72.2312 23.7556 72.8202 24.9893 73.9303 25.6683C74.4684 25.9965 75.0801 26.155 75.7144 26.155C76.4111 26.155 77.1304 25.9569 77.7874 25.5665C77.9969 25.442 78.0876 25.1873 78.0083 24.9553C77.929 24.7176 77.6968 24.5762 77.4476 24.6101H77.4646ZM69.3029 2.33686C69.3369 2.39345 69.4332 2.59717 69.4502 3.25926C69.4502 5.30776 68.8838 7.36759 67.7624 9.38214C67.7737 9.15578 67.7907 8.92943 67.802 8.70308C68.1192 3.19701 68.9235 2.39911 69.3029 2.34252V2.33686Z" fill="#0B284C"/>
<path d="M108.633 23.3485C108.412 22.9524 107.744 23.009 106.747 23.1391C106.469 23.1731 106.18 23.2127 106.039 23.2014C105.75 23.2014 105.557 23.1335 105.444 23.0033C105.206 22.7204 105.291 22.0979 105.399 21.5263C105.399 21.5263 105.869 16.5918 105.869 15.4317C105.869 11.165 105.048 9.06553 103.343 9.02026C102.946 9.02026 102.516 9.1391 102.063 9.37677C100.964 9.95397 99.9387 11.0292 99.0042 12.574C98.5794 11.1763 97.8488 10.4633 96.8293 10.4633C96.2799 10.4633 95.6852 10.6896 95.0735 11.131C94.0823 11.8327 93.2044 12.8739 92.4568 14.2321C92.5474 13.3832 92.672 12.3703 92.7966 11.4083C92.8533 10.899 92.5927 10.186 92.1679 9.71064C91.8847 9.39375 91.5789 9.21832 91.2221 9.22964C90.2309 9.35414 89.1434 14.5716 89.1434 16.7276C89.1434 18.2102 89.285 19.6872 89.5626 21.1189C89.6532 21.5263 89.976 22.0187 91.0182 22.047C91.2164 22.047 91.4146 22.0243 91.6185 21.979C92.5757 21.7414 92.774 21.2321 92.774 20.8473C92.774 20.7567 92.7626 20.6718 92.7456 20.5813C92.7513 19.3364 93.1931 17.7519 94.0483 15.8675C95.5266 12.6136 96.0307 12.2798 96.1326 12.2571C96.1496 12.2571 96.5744 12.3024 96.5971 14.3905C96.5971 15.0922 96.1893 17.0841 95.8947 18.5328L95.7815 19.093C95.7418 19.3194 95.7135 19.4665 95.6965 19.5457V19.7042C95.6909 19.84 95.7135 19.9758 95.7701 20.106C95.9967 20.6549 96.5178 20.9322 97.3447 20.9322C98.1263 20.8869 98.6474 20.57 98.8966 19.9645C99.1345 19.1892 99.1741 18.2216 99.3497 17.1294C99.514 16.1165 99.9784 15.1488 100.414 14.1981C101.287 12.2628 102.703 10.6161 103.037 10.5934C103.037 10.5934 103.479 10.6896 103.501 13.4342C103.501 14.3735 103.207 15.7939 102.901 17.2992C102.663 18.4649 102.414 19.6646 102.267 20.8246L102.227 21.0793C102.023 22.975 102.895 24.5086 104.623 25.2895C105.28 25.5894 106.005 25.7309 106.662 25.7309C107.466 25.7309 108.174 25.5158 108.565 25.0914C108.803 24.8311 109.131 24.2596 108.627 23.3598L108.633 23.3485Z" fill="#0B284C"/>
</g>
<defs>
<clipPath id="clip0_112_1020">
<rect width="120" height="55.8416" fill="white"/>
</clipPath>
</defs>
</svg>
