<svg width="20" height="16" viewBox="0 0 20 16" fill="none" xmlns="http://www.w3.org/2000/svg">
<path d="M1.02583 0.307007C0.459641 0.307007 0 0.766648 0 1.33284C0 1.89903 0.459641 2.35868 1.02583 2.35868H18.9742C19.5404 2.35868 20 1.89903 20 1.33284C20 0.766648 19.5404 0.307007 18.9742 0.307007H1.02583ZM1.02583 6.97422C0.459641 6.97422 0 7.43386 0 8.00005C0 8.56624 0.459641 9.02588 1.02583 9.02588H18.9742C19.5404 9.02588 20 8.56624 20 8.00005C20 7.43386 19.5404 6.97422 18.9742 6.97422H1.02583ZM1.02583 13.6414C0.459641 13.6414 0 14.1011 0 14.6673C0 15.2335 0.459641 15.6931 1.02583 15.6931H18.9742C19.5404 15.6931 20 15.2335 20 14.6673C20 14.1011 19.5404 13.6414 18.9742 13.6414H1.02583Z" fill="#173C6A"/>
</svg>
